<svg height="512" width="512" xml:space="preserve" xmlns="http://www.w3.org/2000/svg"><circle cx="255.927" cy="256.414" fill="#00AEEF" r="251.623"/><circle cx="255.928" cy="256.414" fill="#66CEF6" r="206.335"/><path clip-rule="evenodd" d="m251.99 214.228-22.882-15.087-13.632 21.657 23.126 15.33 13.388-21.9zm3.748-14.009c-.679-4.011-6.425-8.135-6.425-8.135s-5.037-3.33-9.467-3.018c-5.917.417-9.278 7.398-9.278 7.398l22.396 14.6c0-.001 3.55-6.256 2.774-10.845zm-67.511 54.645-43.345-.244.122 42.947h17.74l25.483-42.703zm115.016 26.032 16.892-9.844s-33.397-65.692-54.921-99.146c-16.68-25.923-21.988-21.918-21.988-21.918s-6.303.616 7.695 31.919c30.687 68.63 52.322 98.989 52.322 98.989zm63.644 16.307-.121-42.583-48.602.122 20.713 42.584 28.01-.123zm-45.033-22.63-16.674 9.734 15.092 25.306 14.604-9.004-13.022-26.036zm-86.895-19.953-26.102 42.827 97.823-.121-25.723-42.827-45.998.121zm-21.431-30.659-52.093 88.087 22.395 15.329 53.311-88.086-23.613-15.33zM149.75 358.523l31.159-25.793-22.152-15.33-9.007 41.123zm187.317-52.803-13.754 8.03s8.937 30.952 19.077 44.106c5.572 7.23 15.49 1.396 15.49 1.396s9.523-6.347 5.248-14.251c-14.676-27.138-26.061-39.281-26.061-39.281z" fill="#FFF" fill-rule="evenodd"/></svg>