<svg width="32" height="32" fill="none" xmlns="http://www.w3.org/2000/svg"><path d="M32 16c0-8.837-7.163-16-16-16S0 7.163 0 16s7.163 16 16 16 16-7.163 16-16Z" fill="#000"/><path d="M15.983 16a2.667 2.667 0 1 1 5.334 0 2.667 2.667 0 0 1-5.334 0Z" fill="#1ABCFE"/><path d="M10.65 21.333a2.667 2.667 0 0 1 2.667-2.666h2.666v2.666a2.667 2.667 0 1 1-5.333 0Z" fill="#0ACF83"/><path d="M15.983 8v5.333h2.667a2.667 2.667 0 1 0 0-5.333h-2.667Z" fill="#FF7262"/><path d="M10.65 10.667a2.667 2.667 0 0 0 2.667 2.666h2.666V8h-2.666a2.667 2.667 0 0 0-2.667 2.667Z" fill="#F24E1E"/><path d="M10.65 16a2.667 2.667 0 0 0 2.667 2.667h2.666v-5.334h-2.666A2.667 2.667 0 0 0 10.65 16Z" fill="#A259FF"/></svg>