<svg width="32" height="32" fill="none" xmlns="http://www.w3.org/2000/svg"><path d="M0 16c0 8.837 7.163 16 16 16s16-7.163 16-16S24.837 0 16 0 0 7.163 0 16Z" fill="#3A76F0"/><path d="m14.08 8.234.179.727a7.264 7.264 0 0 0-2.01.832l-.383-.643a7.9 7.9 0 0 1 2.213-.916Zm3.84 0-.179.727a7.266 7.266 0 0 1 2.01.832l.388-.643a7.957 7.957 0 0 0-2.218-.916Zm-8.77 3.63a7.944 7.944 0 0 0-.916 2.215l.727.18a7.264 7.264 0 0 1 .832-2.01l-.643-.386ZM8.75 16a7.3 7.3 0 0 1 .081-1.086l-.74-.114a8 8 0 0 0 0 2.398l.74-.112A7.26 7.26 0 0 1 8.75 16Zm11.384 6.848-.384-.64a7.23 7.23 0 0 1-2.007.831l.18.727a7.965 7.965 0 0 0 2.211-.918ZM23.25 16a7.3 7.3 0 0 1-.081 1.086l.74.112a7.966 7.966 0 0 0 0-2.398l-.74.114c.054.36.082.722.081 1.086Zm.516 1.918-.727-.18a7.25 7.25 0 0 1-.832 2.012l.643.387a7.93 7.93 0 0 0 .916-2.219Zm-6.68 5.25a7.19 7.19 0 0 1-2.172 0l-.112.742c.794.12 1.602.12 2.396 0l-.112-.741Zm4.75-2.868a7.229 7.229 0 0 1-1.536 1.534l.446.605a8.07 8.07 0 0 0 1.695-1.689l-.604-.45ZM20.3 10.163c.587.432 1.105.95 1.537 1.537l.604-.45a8.056 8.056 0 0 0-1.69-1.691l-.45.604ZM10.163 11.7a7.244 7.244 0 0 1 1.537-1.537l-.45-.604a8.058 8.058 0 0 0-1.691 1.69l.604.45Zm12.688.163-.644.387c.377.623.658 1.3.832 2.007l.727-.18a7.932 7.932 0 0 0-.915-2.214Zm-7.937-3.032a7.254 7.254 0 0 1 2.172 0l.112-.74a7.984 7.984 0 0 0-2.396 0l.112.74ZM10.547 22.64 9 23l.362-1.549-.73-.17-.361 1.548a.75.75 0 0 0 .9.902l1.548-.357-.17-.734Zm-1.761-2.027.732.168.25-1.073a7.187 7.187 0 0 1-.807-1.968l-.727.18c.163.662.41 1.302.736 1.902l-.184.79Zm3.5 1.623-1.073.25.17.731.79-.184c.6.327 1.239.574 1.902.737l.18-.728a7.202 7.202 0 0 1-1.962-.811l-.007.005ZM16 9.5a6.502 6.502 0 0 0-6.498 6.502 6.517 6.517 0 0 0 .998 3.455l-.625 2.668 2.666-.625a6.502 6.502 0 0 0 6.93-11A6.517 6.517 0 0 0 16 9.5Z" fill="#fff"/></svg>