<svg width="32" height="32" fill="none" xmlns="http://www.w3.org/2000/svg"><path d="M32 16c0-8.837-7.163-16-16-16S0 7.163 0 16s7.163 16 16 16 16-7.163 16-16Z" fill="#4A154B"/><path d="M11.376 18.115a1.68 1.68 0 0 1-1.682 1.681 1.68 1.68 0 0 1-1.681-1.681c0-.93.751-1.682 1.681-1.682h1.682v1.682Zm.841 0a1.68 1.68 0 1 1 3.363 0v4.204A1.68 1.68 0 0 1 13.898 24a1.68 1.68 0 0 1-1.681-1.681v-4.204Z" fill="#E01E5A"/><path d="M13.898 11.363a1.68 1.68 0 0 1-1.681-1.681 1.68 1.68 0 1 1 3.363 0v1.681h-1.682Zm0 .854c.93 0 1.682.751 1.682 1.681a1.68 1.68 0 0 1-1.682 1.682H9.682A1.68 1.68 0 0 1 8 13.898c0-.93.752-1.681 1.682-1.681h4.216Z" fill="#36C5F0"/><path d="M20.637 13.898c0-.93.752-1.681 1.682-1.681.93 0 1.681.751 1.681 1.681a1.68 1.68 0 0 1-1.681 1.682h-1.682v-1.682Zm-.841 0a1.68 1.68 0 0 1-1.681 1.682 1.68 1.68 0 0 1-1.682-1.682V9.682a1.68 1.68 0 1 1 3.363 0v4.216Z" fill="#2EB67D"/><path d="M18.115 20.637c.93 0 1.681.752 1.681 1.681A1.68 1.68 0 0 1 18.115 24a1.68 1.68 0 0 1-1.682-1.681v-1.682h1.682Zm0-.841a1.68 1.68 0 0 1-1.682-1.681c0-.93.752-1.682 1.682-1.682h4.216c.93 0 1.682.752 1.682 1.682a1.68 1.68 0 0 1-1.682 1.681h-4.216Z" fill="#ECB22E"/></svg>