<svg width="38" height="39" fill="none" xmlns="http://www.w3.org/2000/svg"><path fill-rule="evenodd" clip-rule="evenodd" d="M27.576 15.764c.134-.43 0-.744-.59-.744h-1.964c-.496 0-.724.274-.858.567 0 0-1.01 2.506-2.42 4.13-.458.47-.668.627-.916.627-.133 0-.305-.157-.305-.587v-4.013c0-.51-.152-.744-.572-.744h-3.088a.479.479 0 0 0-.496.47c0 .49.705.607.781 1.977v2.977c0 .646-.112.764-.362.764-.667 0-2.288-2.525-3.26-5.403-.188-.57-.38-.785-.876-.785h-1.983c-.572 0-.667.274-.667.568 0 .528.667 3.19 3.107 6.713 1.62 2.406 3.927 3.7 6.005 3.7 1.259 0 1.41-.294 1.41-.784v-1.82c0-.587.115-.685.516-.685.285 0 .8.157 1.963 1.312C24.335 25.374 24.564 26 25.308 26h1.963c.572 0 .84-.294.687-.861-.172-.568-.82-1.39-1.659-2.368-.457-.548-1.144-1.155-1.353-1.449-.286-.391-.21-.548 0-.9-.02 0 2.383-3.484 2.63-4.66" fill="#fff"/><rect x=".5" y=".5" width="37" height="38" rx="5.5" stroke="#fff"/></svg>