<svg width="32" height="32" fill="none" xmlns="http://www.w3.org/2000/svg"><path d="M0 16C0 7.163 7.163 0 16 0s16 7.163 16 16-7.163 16-16 16S0 24.837 0 16Z" fill="#1157FF"/><path d="M12.654 11c.462 0 .888.036 1.279.142.39.071.71.213.994.39.284.178.498.427.64.747.142.32.213.71.213 1.137 0 .497-.107.923-.355 1.243-.214.32-.569.604-.995.817.604.178 1.066.497 1.35.924.284.426.462.959.462 1.563 0 .497-.107.924-.285 1.279a2.363 2.363 0 0 1-.781.888c-.32.213-.71.39-1.137.497a5.287 5.287 0 0 1-1.279.178H8V11h4.654Zm-.284 3.979c.39 0 .71-.107.959-.284.248-.178.355-.498.355-.889 0-.213-.036-.426-.107-.568a1.01 1.01 0 0 0-.32-.355 1.791 1.791 0 0 0-.461-.178c-.178-.035-.355-.035-.569-.035h-2.06v2.309h2.203Zm.106 4.192c.213 0 .426-.036.604-.071a1.247 1.247 0 0 0 .853-.604 1.72 1.72 0 0 0 .142-.64c0-.497-.142-.852-.427-1.101-.284-.213-.675-.32-1.136-.32h-2.345v2.736h2.31Zm6.856-.036c.284.284.71.426 1.28.426.39 0 .745-.106 1.03-.284.284-.213.461-.426.532-.64h1.741c-.284.853-.71 1.457-1.279 1.848-.568.355-1.243.569-2.06.569a4.178 4.178 0 0 1-1.528-.285 2.839 2.839 0 0 1-1.137-.781 2.81 2.81 0 0 1-.71-1.173c-.178-.461-.249-.959-.249-1.527 0-.533.071-1.03.249-1.492a3.83 3.83 0 0 1 .746-1.208c.32-.32.71-.604 1.137-.782a3.987 3.987 0 0 1 1.492-.284c.604 0 1.136.107 1.598.355.462.25.817.533 1.102.96.284.39.497.852.639 1.35.071.497.107.994.071 1.563h-5.151c0 .568.213 1.1.497 1.385Zm2.238-3.73c-.248-.249-.64-.39-1.1-.39-.32 0-.57.07-.782.177-.214.107-.356.249-.498.39a.947.947 0 0 0-.248.498c-.036.178-.072.32-.072.462h3.198c-.071-.533-.249-.888-.498-1.137Zm-3.126-3.73h3.979v.96h-3.979v-.96Z" fill="#fff"/></svg>