<svg version="1.0" xmlns="http://www.w3.org/2000/svg" viewBox="0 0 298 230" style="enable-background:new 0 0 298 230" xml:space="preserve"><path d="M149 35.3c44 0 79.7 35.7 79.7 79.7S193 194.7 149 194.7 69.3 159 69.3 115 105 35.3 149 35.3z" style="fill:#ef4977"/><path d="m164 92.7-1.5 7.2c-.2.8-1 1.4-1.8 1.5h-13c-1.5 0-2.7 1.2-2.7 2.6v1.7c0 1.5 1.2 2.7 2.6 2.7h11.1c1 0 1.7.8 1.7 1.7v.4c-.2 1.1-1.4 6.8-1.5 7.4-.2.8-1 1.4-1.8 1.4h-9c-1.9.1-2.3.1-3.4 1.4s-11 13.8-11 13.8-.2.1-.2-.1v-42c0-1 .8-1.8 1.8-1.8h27c1 0 1.7.8 1.7 1.7v.4m2-9h-33.5c-4.6 0-6 3.5-6 5.6v53.1c0 2.7 1.4 3.4 2.1 3.7 1.4.4 2.9.1 4-.9 0 0 15.8-18.5 16.1-18.8.1-.2.3-.3.6-.3h10c4.3 0 5.1-2.9 5.5-4.8.4-1.5 4.8-22.9 6.2-29.8 1.2-5.1-.1-7.8-5-7.8z" style="fill:#fff"/></svg>