<svg width="32" height="32" fill="none" xmlns="http://www.w3.org/2000/svg"><path d="M0 16c0 8.837 7.163 16 16 16s16-7.163 16-16S24.837 0 16 0 0 7.163 0 16Z" fill="#FC6D26"/><path fill-rule="evenodd" clip-rule="evenodd" d="m23.953 16.863-.84-2.579a.373.373 0 0 0-.02-.069l-1.684-5.183a.67.67 0 0 0-.639-.456.658.658 0 0 0-.631.46l-1.605 4.939h-5.065l-1.607-4.939a.658.658 0 0 0-.63-.46h-.003a.671.671 0 0 0-.637.46l-1.685 5.19-.003.007-.002.006-.855 2.625a.957.957 0 0 0 .348 1.072l7.381 5.363a.378.378 0 0 0 .446-.002l7.383-5.361a.957.957 0 0 0 .348-1.073Zm-11.279-2.888-1.448-4.453-1.444 4.453h2.892Zm9.549 0-1.446-4.453-1.448 4.453h2.894Zm-9.304.758 2.058 6.332-4.94-6.332h2.882Zm4.107 6.334 1.973-6.071.085-.263h2.884l-4.469 5.724-.473.61Zm-3.311-6.337h4.574L16 21.77l-2.285-7.039Zm-4.876 2.595a.203.203 0 0 1-.073-.228l.634-1.95 4.653 5.965-5.214-3.787Zm9.109 3.786 5.213-3.786a.205.205 0 0 0 .074-.23l-.635-1.948-4.635 5.941-.017.023Z" fill="#fff"/></svg>