<svg width="24" height="24" fill="none" xmlns="http://www.w3.org/2000/svg"><circle cx="12" cy="12" r="12" fill="#9179EE"/><path d="m9.14 11.078-.04.022-.036.029a1.082 1.082 0 0 0-.274 1.318c.217.45.705 1.384 1.568 2.09.836.684 1.73 1.054 2.327 1.176l.05.01h.038s0 0 0 0l.02.004.032.005.017.003c.179.031.665.116 1.073-.28l-.348-.36.348.36c.224-.218.429-.444.525-.555a.421.421 0 0 1 .384-.053c.471.155 1.04.51 1.322.695.216.141.708.484.931.641h-.001l.013.013a.149.149 0 0 1 .02.032.054.054 0 0 1 .004.022.133.133 0 0 1-.016.054c-.071.148-.31.465-.644.747-.342.29-.675.449-.918.449h.006s-.04-.005-.138-.026a6.493 6.493 0 0 1-.423-.111 13.298 13.298 0 0 1-1.371-.493c-1.096-.46-2.474-1.186-3.762-2.254-.805-.667-1.568-1.593-2.165-2.466-.605-.883-1-1.652-1.103-1.99l-.011-.038-.017-.035a.63.63 0 0 1-.051-.244c0-.103.025-.189.085-.258.289-.338.587-.66 1.254-.975a.553.553 0 0 1 .207-.045c.058-.001.082.009.087.01.26.223.66.613.928.944a17.953 17.953 0 0 1 .636.84c.032.046.05.074.058.088l.002.012a.36.36 0 0 1 .004.095c-.006.071-.028.109-.051.13a3.478 3.478 0 0 1-.57.394Z" fill="#fff" stroke="#fff" stroke-linecap="round"/></svg>