<svg width="38" height="39" viewBox="0 0 38 39" fill="none" xmlns="http://www.w3.org/2000/svg">
<path fill-rule="evenodd" clip-rule="evenodd" d="M27.5763 15.7639C27.7098 15.3331 27.5763 15.0199 26.9856 15.0199H25.0218C24.5264 15.0199 24.2976 15.2941 24.1641 15.5874C24.1641 15.5874 23.1539 18.093 21.7431 19.7174C21.2856 20.1872 21.076 20.3438 20.8281 20.3438C20.6946 20.3438 20.5229 20.1872 20.5229 19.7567V15.7436C20.5229 15.2349 20.3706 15 19.951 15H16.8625C16.5573 15 16.3668 15.2349 16.3668 15.4698C16.3668 15.9591 17.0721 16.0767 17.1483 17.4467V20.4236C17.1483 21.0695 17.0358 21.1875 16.786 21.1875C16.1189 21.1875 14.4985 18.6625 13.5265 15.7853C13.3375 15.2154 13.1455 15 12.6498 15H10.6671C10.0953 15 10 15.2739 10 15.5676C10 16.0962 10.6671 18.758 13.1073 22.281C14.7276 24.6873 17.0343 25.9805 19.1121 25.9805C20.3706 25.9805 20.5229 25.6868 20.5229 25.1975V23.3772C20.5229 22.7901 20.6373 22.6924 21.0378 22.6924C21.3235 22.6924 21.8384 22.8486 23.0013 24.0036C24.3355 25.3736 24.5643 26 25.3079 26H27.2714C27.8433 26 28.1103 25.7063 27.9576 25.1387C27.7863 24.5711 27.1379 23.7492 26.299 22.7707C25.8415 22.223 25.1553 21.616 24.9456 21.3223C24.6599 20.9308 24.736 20.7742 24.9456 20.4221C24.9265 20.4221 27.3288 16.938 27.5763 15.7624" fill="white"/>
<rect x="0.5" y="0.5" width="37" height="38" rx="5.5" stroke="white"/>
</svg>
