<svg width="115" height="43" fill="none" xmlns="http://www.w3.org/2000/svg"><g clip-path="url(#a)" fill="#fff"><path d="M16.86 21.476 5.982 42.952H0L21.755 0h5.918l.032.063L16.86 21.476Zm14.65-13.89-9.756 19.26h19.494l-9.739-19.26ZM18.49 33.289l-4.894 9.664h35.796l-4.888-9.664H18.491Zm46.887-20.94C65.378 5.53 59.778 0 52.869 0H35.316l-.032.063 3.056 6.033H52.1v.013c.131-.008.262-.013.394-.013 3.414 0 6.18 2.732 6.18 6.102s-2.766 6.102-6.18 6.102a5.93 5.93 0 0 1-.394-.014v.014h-7.579l12.486 24.654h7.611L55.256 24.47c5.767-1.1 10.122-6.106 10.122-12.12v-.002ZM85.32 26.724h-1.35v6.02h1.35c2 0 3.315-1.08 3.315-2.985v-.035c0-1.905-1.316-3.002-3.314-3.002v.002Zm15.537-16.466c-1.828 0-3.042 1.45-3.042 3.155v.034c0 1.687 1.248 3.187 3.075 3.187 1.827 0 3.024-1.45 3.024-3.154v-.035c0-1.72-1.23-3.187-3.057-3.187Z"/><path d="M71.491 0v42.952H115V0H71.491Zm7.685 13.445c0-3.44 2.666-6.139 6.287-6.139 2.427 0 4.032 1.012 5.073 2.446l-2.494 1.905c-.683-.826-1.452-1.383-2.614-1.383-1.673 0-2.852 1.416-2.852 3.137v.034c0 1.772 1.179 3.155 2.852 3.155 1.248 0 1.966-.573 2.7-1.434l2.494 1.754c-1.144 1.535-2.648 2.665-5.28 2.665-3.416 0-6.166-2.58-6.166-6.105v-.035ZM92.017 29.71c0 3.423-2.512 5.936-6.799 5.936h-4.561V23.838h4.63c4.253 0 6.73 2.412 6.73 5.836v.035Zm13.599 5.936h-9.703V23.838h9.618v2.767h-6.338v1.804h5.74v2.58h-5.74v1.872h6.423v2.784Zm1.697-22.2c0 3.39-2.767 6.138-6.458 6.138-3.69 0-6.423-2.731-6.423-6.105v-.034c0-3.39 2.767-6.14 6.458-6.14 3.691 0 6.423 2.732 6.423 6.106v.034Z"/></g><defs><clipPath id="a"><path fill="#fff" d="M0 0h115v42.952H0z"/></clipPath></defs></svg>