<svg width="23" height="9" fill="none" xmlns="http://www.w3.org/2000/svg"><mask id="a" fill="#fff"><path fill-rule="evenodd" clip-rule="evenodd" d="M22.202 4.5A15.89 15.89 0 0 1 11.101 9 15.89 15.89 0 0 1 0 4.5 15.89 15.89 0 0 1 11.1 0a15.89 15.89 0 0 1 11.102 4.5Z"/></mask><path d="m22.202 4.5.696.718.74-.718-.74-.718-.696.718ZM0 4.5l-.697-.718-.74.718.74.718L0 4.5Zm21.506-.718A14.89 14.89 0 0 1 11.1 8v2a16.89 16.89 0 0 0 11.797-4.782l-1.392-1.436ZM11.1 8A14.89 14.89 0 0 1 .696 3.782L-.697 5.218A16.89 16.89 0 0 0 11.101 10V8ZM.696 5.218A14.89 14.89 0 0 1 11.101 1v-2A16.89 16.89 0 0 0-.697 3.782L.696 5.218ZM11.101 1a14.89 14.89 0 0 1 10.405 4.218l1.392-1.436A16.89 16.89 0 0 0 11.101-1v2Z" fill="#000" mask="url(#a)"/></svg>