<svg width="22" height="24" fill="none" xmlns="http://www.w3.org/2000/svg"><circle cx="10.981" cy="6" r="5.5" stroke="#1E1E1E"/><path fill-rule="evenodd" clip-rule="evenodd" d="M20.827 21.088A11 11 0 0 0 10.982 15a11 11 0 0 0-9.846 6.088 1.12 1.12 0 0 0 .118 1.246c.29.378.813.666 1.439.666H19.27c.626 0 1.148-.288 1.438-.666a1.12 1.12 0 0 0 .118-1.246ZM2.693 24C.838 24-.587 22.3.242 20.641A12 12 0 0 1 10.982 14a12 12 0 0 1 10.74 6.641c.83 1.66-.596 3.359-2.452 3.359H2.693Z" fill="#1E1E1E"/></svg>