<svg width="123" height="26" viewBox="0 0 123 26" fill="none" xmlns="http://www.w3.org/2000/svg">
<path d="M14.6759 7.23803V23.5745H11.5903V9.67278H4.67877V23.5745H1.59325V7.23803H14.6759ZM24.594 17.6166H20.3864V15.1931H24.594C25.2821 15.1931 25.8394 15.0809 26.2658 14.8565C26.6996 14.6246 27.0175 14.3104 27.2195 13.914C27.4214 13.5101 27.5224 13.05 27.5224 12.5339C27.5224 12.0327 27.4214 11.5652 27.2195 11.1314C27.0175 10.6976 26.6996 10.346 26.2658 10.0767C25.8394 9.80742 25.2821 9.67278 24.594 9.67278H21.3962V23.5745H18.3107V7.23803H24.594C25.8656 7.23803 26.9502 7.46617 27.8478 7.92245C28.7529 8.37125 29.441 8.99584 29.9123 9.7962C30.391 10.5891 30.6304 11.4942 30.6304 12.5115C30.6304 13.5662 30.391 14.475 29.9123 15.2379C29.441 16.0009 28.7529 16.5881 27.8478 16.9995C26.9502 17.4109 25.8656 17.6166 24.594 17.6166ZM46.742 14.9911V15.8326C46.742 17.0668 46.5774 18.1776 46.2483 19.165C45.9191 20.1449 45.4516 20.9789 44.8458 21.667C44.2399 22.3552 43.5181 22.8826 42.6803 23.2491C41.8425 23.6156 40.9113 23.7989 39.8865 23.7989C38.8767 23.7989 37.9492 23.6156 37.1039 23.2491C36.2661 22.8826 35.5406 22.3552 34.9272 21.667C34.3138 20.9789 33.8389 20.1449 33.5023 19.165C33.1657 18.1776 32.9974 17.0668 32.9974 15.8326V14.9911C32.9974 13.7494 33.1657 12.6386 33.5023 11.6587C33.8389 10.6789 34.3101 9.84483 34.916 9.15666C35.5219 8.46102 36.2437 7.92993 37.0815 7.56341C37.9267 7.19689 38.8542 7.01363 39.864 7.01363C40.8888 7.01363 41.8201 7.19689 42.6578 7.56341C43.4956 7.92993 44.2174 8.46102 44.8233 9.15666C45.4367 9.84483 45.9079 10.6789 46.2371 11.6587C46.5737 12.6386 46.742 13.7494 46.742 14.9911ZM43.6228 15.8326V14.9687C43.6228 14.0785 43.5405 13.2969 43.3759 12.6237C43.2114 11.943 42.9683 11.3708 42.6466 10.907C42.325 10.4432 41.9285 10.0954 41.4573 9.86353C40.9861 9.62416 40.455 9.50448 39.864 9.50448C39.2656 9.50448 38.7346 9.62416 38.2708 9.86353C37.8145 10.0954 37.4255 10.4432 37.1039 10.907C36.7823 11.3708 36.5354 11.943 36.3634 12.6237C36.1988 13.2969 36.1165 14.0785 36.1165 14.9687V15.8326C36.1165 16.7153 36.1988 17.4969 36.3634 18.1776C36.5354 18.8583 36.7823 19.4343 37.1039 19.9055C37.433 20.3693 37.8295 20.7208 38.2932 20.9602C38.757 21.1995 39.2881 21.3192 39.8865 21.3192C40.4849 21.3192 41.016 21.1995 41.4797 20.9602C41.9435 20.7208 42.3325 20.3693 42.6466 19.9055C42.9683 19.4343 43.2114 18.8583 43.3759 18.1776C43.5405 17.4969 43.6228 16.7153 43.6228 15.8326ZM59.3753 18.2H62.4608C62.3786 19.2921 62.0756 20.2608 61.552 21.106C61.0284 21.9438 60.2991 22.6021 59.3641 23.0808C58.4291 23.5595 57.2959 23.7989 55.9644 23.7989C54.9396 23.7989 54.0159 23.6193 53.1931 23.2603C52.3777 22.8938 51.6783 22.3739 51.0949 21.7007C50.5189 21.02 50.0776 20.2047 49.7709 19.2547C49.4642 18.2973 49.3109 17.2239 49.3109 16.0346V14.7891C49.3109 13.5998 49.468 12.5264 49.7821 11.569C50.0963 10.6115 50.5451 9.7962 51.1286 9.123C51.7195 8.44232 52.4263 7.91871 53.2492 7.55219C54.0794 7.18567 55.007 7.0024 56.0317 7.0024C57.3632 7.0024 58.4889 7.24925 59.409 7.74293C60.329 8.22913 61.0434 8.8986 61.552 9.75132C62.0607 10.6041 62.3673 11.5839 62.4721 12.691H59.3865C59.3267 12.0028 59.1771 11.4194 58.9377 10.9407C58.7059 10.4619 58.3543 10.0991 57.883 9.85231C57.4193 9.59798 56.8022 9.47082 56.0317 9.47082C55.4333 9.47082 54.906 9.58302 54.4497 9.80742C54.0009 10.0318 53.6269 10.3684 53.3277 10.8172C53.0285 11.2586 52.8041 11.8121 52.6545 12.4778C52.5049 13.136 52.4301 13.899 52.4301 14.7667V16.0346C52.4301 16.8649 52.4974 17.6091 52.632 18.2674C52.7667 18.9256 52.9761 19.4829 53.2604 19.9392C53.5446 20.3954 53.9111 20.7433 54.3599 20.9826C54.8087 21.222 55.3436 21.3417 55.9644 21.3417C56.7199 21.3417 57.3333 21.222 57.8045 20.9826C58.2832 20.7433 58.646 20.3917 58.8929 19.9279C59.1472 19.4642 59.308 18.8882 59.3753 18.2ZM71.9862 7.23803V23.5745H68.9119V7.23803H71.9862ZM77.0577 7.23803V9.67278H63.8966V7.23803H77.0577ZM92.4849 14.9911V15.8326C92.4849 17.0668 92.3203 18.1776 91.9912 19.165C91.6621 20.1449 91.1946 20.9789 90.5887 21.667C89.9828 22.3552 89.261 22.8826 88.4232 23.2491C87.5854 23.6156 86.6542 23.7989 85.6294 23.7989C84.6196 23.7989 83.6921 23.6156 82.8468 23.2491C82.0091 22.8826 81.2835 22.3552 80.6701 21.667C80.0568 20.9789 79.5818 20.1449 79.2452 19.165C78.9086 18.1776 78.7403 17.0668 78.7403 15.8326V14.9911C78.7403 13.7494 78.9086 12.6386 79.2452 11.6587C79.5818 10.6789 80.053 9.84483 80.6589 9.15666C81.2648 8.46102 81.9866 7.92993 82.8244 7.56341C83.6696 7.19689 84.5972 7.01363 85.607 7.01363C86.6317 7.01363 87.563 7.19689 88.4008 7.56341C89.2385 7.92993 89.9604 8.46102 90.5662 9.15666C91.1796 9.84483 91.6508 10.6789 91.98 11.6587C92.3166 12.6386 92.4849 13.7494 92.4849 14.9911ZM89.3657 15.8326V14.9687C89.3657 14.0785 89.2834 13.2969 89.1188 12.6237C88.9543 11.943 88.7112 11.3708 88.3895 10.907C88.0679 10.4432 87.6715 10.0954 87.2002 9.86353C86.729 9.62416 86.1979 9.50448 85.607 9.50448C85.0086 9.50448 84.4775 9.62416 84.0137 9.86353C83.5574 10.0954 83.1685 10.4432 82.8468 10.907C82.5252 11.3708 82.2783 11.943 82.1063 12.6237C81.9417 13.2969 81.8595 14.0785 81.8595 14.9687V15.8326C81.8595 16.7153 81.9417 17.4969 82.1063 18.1776C82.2783 18.8583 82.5252 19.4343 82.8468 19.9055C83.1759 20.3693 83.5724 20.7208 84.0362 20.9602C84.4999 21.1995 85.031 21.3192 85.6294 21.3192C86.2278 21.3192 86.7589 21.1995 87.2227 20.9602C87.6864 20.7208 88.0754 20.3693 88.3895 19.9055C88.7112 19.4343 88.9543 18.8583 89.1188 18.1776C89.2834 17.4969 89.3657 16.7153 89.3657 15.8326ZM101.842 17.6166H97.6344V15.1931H101.842C102.53 15.1931 103.087 15.0809 103.514 14.8565C103.948 14.6246 104.266 14.3104 104.467 13.914C104.669 13.5101 104.77 13.05 104.77 12.5339C104.77 12.0327 104.669 11.5652 104.467 11.1314C104.266 10.6976 103.948 10.346 103.514 10.0767C103.087 9.80742 102.53 9.67278 101.842 9.67278H98.6443V23.5745H95.5587V7.23803H101.842C103.114 7.23803 104.198 7.46617 105.096 7.92245C106.001 8.37125 106.689 8.99584 107.16 9.7962C107.639 10.5891 107.878 11.4942 107.878 12.5115C107.878 13.5662 107.639 14.475 107.16 15.2379C106.689 16.0009 106.001 16.5881 105.096 16.9995C104.198 17.4109 103.114 17.6166 101.842 17.6166Z" fill="white"/>
<circle cx="116.809" cy="6.21276" r="4.46809" stroke="white" stroke-width="2.55319"/>
</svg>
