<svg xmlns="http://www.w3.org/2000/svg" xmlns:xlink="http://www.w3.org/1999/xlink" style="display:none"><symbol fill="none" viewBox="0 0 20 20" id="icon-acc" xmlns="http://www.w3.org/2000/svg"><path d="M10 0A10.025 10.025 0 00.844 5.99a10.002 10.002 0 001.792 10.787A10.018 10.018 0 0010 20a10.026 10.026 0 007.364-3.223 10.006 10.006 0 00-1.895-15.142A10.026 10.026 0 0010 0zm0 18.019a8.018 8.018 0 01-5.56-2.253A6.007 6.007 0 0110 12.042a6.015 6.015 0 015.56 3.724A8.019 8.019 0 0110 18.02zM7.996 8.009a2 2 0 012.395-1.964 2.004 2.004 0 011.46 2.73 2.003 2.003 0 01-3.855-.767zm8.927 6.005a8.014 8.014 0 00-3.917-3.383A4.004 4.004 0 0010 3.978a4.01 4.01 0 00-3.653 2.357 4.001 4.001 0 00.647 4.296 8.013 8.013 0 00-3.917 3.383 7.923 7.923 0 01-1.092-4.004c0-2.124.844-4.16 2.347-5.662a8.019 8.019 0 0111.336 0 8.004 8.004 0 012.347 5.662 7.923 7.923 0 01-1.092 4.005z" fill="currentColor"/></symbol><symbol fill="none" viewBox="0 0 20 20" id="icon-acc-authorized" xmlns="http://www.w3.org/2000/svg"><path fill-rule="evenodd" clip-rule="evenodd" d="M4.53 1.635A10.025 10.025 0 0110 0a10.026 10.026 0 019.157 5.99 10.002 10.002 0 01-1.793 10.787A10.018 10.018 0 0110 20a10.026 10.026 0 01-7.364-3.223A10.007 10.007 0 014.531 1.635zm7.449 6.69l-.131.458a1.998 1.998 0 00.13-.458zm1.027 2.306a8.013 8.013 0 013.917 3.383 7.923 7.923 0 001.092-4.004c0-2.124-.844-4.16-2.347-5.662a8.019 8.019 0 00-11.336 0 8.005 8.005 0 00-2.347 5.662 7.923 7.923 0 001.092 4.005 8.013 8.013 0 013.917-3.384A4.003 4.003 0 0110 3.978a4.01 4.01 0 013.653 2.357 4 4 0 01-.647 4.296z" fill="currentColor"/></symbol><symbol fill="none" viewBox="0 0 9 15" id="icon-arrow-back" xmlns="http://www.w3.org/2000/svg"><path d="M7.221 14.713c.194.186.44.287.731.287C8.533 15 9 14.56 9 14.002c0-.279-.123-.532-.326-.727L2.51 7.492l6.164-5.767A1.02 1.02 0 009 .998C9 .44 8.533 0 7.952 0c-.29 0-.537.101-.73.287L.37 6.714c-.247.22-.361.49-.37.786 0 .296.123.55.37.778l6.851 6.434z" fill="#343434"/></symbol><symbol fill="none" viewBox="0 0 20 9" id="icon-arrow-btn" xmlns="http://www.w3.org/2000/svg"><path d="M.781 3.774h16.545l-2.74-2.534a.69.69 0 01-.003-1.026.824.824 0 011.105-.003l4.082 3.775a.69.69 0 010 1.028L15.688 8.79a.824.824 0 01-1.105-.003.69.69 0 01.003-1.026l2.74-2.534H.781C.35 5.226 0 4.9 0 4.5c0-.4.35-.726.781-.726z" fill="currentColor"/></symbol><symbol fill="none" viewBox="0 0 9 5" id="icon-arrow-categories" xmlns="http://www.w3.org/2000/svg"><path d="M4.851 4.864l4.005-3.787a.45.45 0 000-.659L8.561.14a.513.513 0 00-.696 0L4.502 3.32 1.135.137A.504.504 0 00.787 0a.504.504 0 00-.348.136L.144.415a.45.45 0 000 .658l4.008 3.791a.504.504 0 00.35.136.504.504 0 00.35-.136z" fill="currentColor"/></symbol><symbol fill="none" viewBox="0 0 12 7" id="icon-arrow-down" xmlns="http://www.w3.org/2000/svg"><path d="M6.43 6.337l4.894-4.545a.535.535 0 000-.79l-.36-.335a.636.636 0 00-.851 0l-4.11 3.817L1.886.664A.622.622 0 001.462.5a.622.622 0 00-.426.163l-.36.335a.535.535 0 000 .79l4.9 4.55a.623.623 0 00.426.162.622.622 0 00.427-.163z" fill="currentColor"/></symbol><symbol fill="none" viewBox="0 0 10 16" id="icon-arrow-left" xmlns="http://www.w3.org/2000/svg"><path d="M7.261.413L.474 6.94c-.15.141-.27.31-.35.495a1.456 1.456 0 000 1.17c.08.185.2.353.35.495l6.787 6.45c.15.143.326.256.521.333a1.674 1.674 0 001.232 0c.195-.077.372-.19.52-.333.299-.285.466-.67.466-1.073 0-.401-.167-.787-.466-1.072L3.867 8.02l5.667-5.386c.296-.283.463-.665.465-1.065 0-.2-.04-.398-.12-.584A1.518 1.518 0 009.535.49a1.6 1.6 0 00-.508-.35 1.67 1.67 0 00-1.765.274z" fill="#343434"/></symbol><symbol fill="none" viewBox="0 0 20 9" id="icon-arrow-link" xmlns="http://www.w3.org/2000/svg"><path d="M.781 3.774h16.545l-2.74-2.534a.69.69 0 01-.003-1.026.824.824 0 011.105-.003l4.082 3.775a.69.69 0 010 1.028L15.688 8.79a.824.824 0 01-1.105-.003.69.69 0 01.003-1.026l2.74-2.534H.781C.35 5.226 0 4.9 0 4.5c0-.4.35-.726.781-.726z" fill="currentColor"/></symbol><symbol fill="none" viewBox="0 0 7 12" id="icon-arrow-right" xmlns="http://www.w3.org/2000/svg"><path d="M1.917 11.69L6.67 6.795A1.142 1.142 0 007 5.985a1.159 1.159 0 00-.331-.81L1.917.337A1.12 1.12 0 001.121 0a1.103 1.103 0 00-.795.337 1.152 1.152 0 000 1.61l3.967 4.038-3.967 4.04a1.152 1.152 0 00-.242 1.236c.056.139.138.265.242.372a1.123 1.123 0 00.784.366 1.102 1.102 0 00.807-.309z" fill="currentColor"/></symbol><symbol fill="none" viewBox="0 0 20 9" id="icon-arrow-search" xmlns="http://www.w3.org/2000/svg"><path d="M.781 3.774h16.545l-2.74-2.534a.69.69 0 01-.003-1.026.824.824 0 011.105-.003l4.082 3.775a.69.69 0 010 1.028L15.688 8.79a.824.824 0 01-1.105-.003.69.69 0 01.003-1.026l2.74-2.534H.781C.35 5.226 0 4.9 0 4.5c0-.4.35-.726.781-.726z" fill="currentColor"/></symbol><symbol fill="none" viewBox="0 0 11 7" id="icon-arrow-select" xmlns="http://www.w3.org/2000/svg"><path d="M.284 1.917L4.771 6.67c.097.105.213.188.34.245a.986.986 0 00.805 0c.127-.057.243-.14.34-.245l4.435-4.752c.098-.104.175-.228.229-.365a1.19 1.19 0 000-.861 1.127 1.127 0 00-.23-.365A1.011 1.011 0 009.954 0c-.276 0-.541.117-.737.326L5.514 4.293 1.81.326A1.012 1.012 0 001.08 0a.985.985 0 00-.402.083 1.043 1.043 0 00-.34.242 1.12 1.12 0 00-.242.356 1.187 1.187 0 00.19 1.235z" fill="#343434"/></symbol><symbol fill="none" viewBox="0 0 13 8" id="icon-arrow-toggle" xmlns="http://www.w3.org/2000/svg"><path d="M7.007 7.783l5.785-6.06A.758.758 0 0013 1.196c0-.2-.074-.386-.208-.527l-.426-.446a.69.69 0 00-1.005 0L6.503 5.312 1.639.218a.69.69 0 00-1.005 0L.208.664A.758.758 0 000 1.19c0 .199.074.386.208.526l5.79 6.066a.691.691 0 001.01 0z" fill="currentColor"/></symbol><symbol fill="none" viewBox="0 0 20 20" id="icon-call" xmlns="http://www.w3.org/2000/svg"><path d="M17.521 11.032c-.22 0-.452-.07-.672-.12a9.454 9.454 0 01-1.315-.394 2.002 2.002 0 00-2.489 1.007l-.22.453a12.23 12.23 0 01-2.67-2.013 12.257 12.257 0 01-2.008-2.677l.422-.282A2.01 2.01 0 009.573 4.51c-.16-.43-.29-.871-.392-1.319a7.485 7.485 0 01-.12-.684A3.022 3.022 0 008.017.697 3.005 3.005 0 006.05 0H3.04A3.003 3.003 0 00.75 1.025a3.022 3.022 0 00-.722 2.408 19.145 19.145 0 005.458 11.134c3.002 3 6.915 4.912 11.122 5.433h.381A3.006 3.006 0 0020 16.97v-3.02a3.025 3.025 0 00-.718-1.904 3.01 3.01 0 00-1.76-1.014zm.502 6.039a1.008 1.008 0 01-.726.969 1.051 1.051 0 01-.438.038 17.042 17.042 0 01-9.923-4.902 17.13 17.13 0 01-4.84-9.975 1.1 1.1 0 01.25-.825 1.004 1.004 0 01.753-.342H6.11a1.002 1.002 0 011.004.795c.04.275.09.547.15.815.116.53.27 1.052.462 1.56l-1.405.654a1.004 1.004 0 00-.584.956c.005.133.036.263.092.383a14.563 14.563 0 007.025 7.046c.245.1.519.1.763 0a1.003 1.003 0 00.572-.524l.622-1.409c.52.186 1.049.34 1.586.463.268.06.539.11.813.151a1.004 1.004 0 01.793 1.007l.02 3.14z" fill="currentColor"/></symbol><symbol fill="none" viewBox="0 0 9 9" id="icon-cancel" xmlns="http://www.w3.org/2000/svg"><path d="M3.675 4.5L.171.995A.582.582 0 11.996.171L4.5 3.675 8.004.171a.582.582 0 11.825.824L5.325 4.5l3.504 3.505a.582.582 0 11-.825.824L4.5 5.324.996 8.83a.581.581 0 01-.825 0 .582.582 0 010-.824L3.675 4.5z" fill="currentColor"/></symbol><symbol fill="none" viewBox="0 0 20 20" id="icon-cart" xmlns="http://www.w3.org/2000/svg"><path d="M11.998 16.013c.266 0 .521-.105.71-.292a.993.993 0 00.293-.705v-1.993a.993.993 0 00-.294-.705 1.007 1.007 0 00-1.42 0 .993.993 0 00-.293.705v1.993c0 .265.106.518.294.705.188.187.443.292.71.292zm-4.015 0c.266 0 .522-.105.71-.292a.993.993 0 00.294-.705v-1.993a.993.993 0 00-.294-.705 1.007 1.007 0 00-1.42 0 .993.993 0 00-.294.705v1.993c0 .265.106.518.294.705.189.187.444.292.71.292zm9.033-11.96H15.63L13.894.612a.996.996 0 00-.578-.551 1.01 1.01 0 00-1.121.3.995.995 0 00-.087 1.149l1.274 2.541H6.599l1.275-2.541A.99.99 0 007.399.238a1.01 1.01 0 00-1.313.376L4.35 4.052H2.965c-.71.011-1.392.27-1.928.732a2.973 2.973 0 00-.603 3.804 3.007 3.007 0 001.608 1.285l.742 7.436c.075.74.425 1.426.982 1.923.557.498 1.28.772 2.03.768h8.41a3.023 3.023 0 002.029-.768 2.983 2.983 0 00.981-1.923l.743-7.436a3.007 3.007 0 001.61-1.29 2.973 2.973 0 00-.617-3.808 3.023 3.023 0 00-1.936-.723zm-1.817 13.056a.994.994 0 01-.327.642 1.007 1.007 0 01-.677.255h-8.41c-.25.002-.49-.09-.676-.255a.994.994 0 01-.327-.642l-.713-7.076h11.843l-.713 7.076zm1.817-9.07H2.965c-.266 0-.521-.105-.71-.292a.993.993 0 010-1.41c.189-.186.444-.291.71-.291h14.05c.267 0 .522.105.71.292a.993.993 0 010 1.41 1.007 1.007 0 01-.71.291z" fill="currentColor"/></symbol><symbol fill="none" viewBox="0 0 16 16" id="icon-cart-small" xmlns="http://www.w3.org/2000/svg"><path d="M9.598 12.81a.806.806 0 00.568-.233.795.795 0 00.235-.564v-1.595a.795.795 0 00-.235-.564.805.805 0 00-1.37.564v1.595c0 .212.084.414.234.564.15.15.355.233.568.233zm-3.212 0a.806.806 0 00.568-.233.795.795 0 00.235-.564v-1.595a.795.795 0 00-.235-.564.806.806 0 00-1.37.564v1.595c0 .212.084.414.235.564.15.15.355.233.567.233zm7.227-9.568h-1.108L11.114.49a.799.799 0 00-.787-.49.807.807 0 00-.725.576.792.792 0 00.083.631l1.02 2.034H5.278l1.02-2.034A.792.792 0 005.92.19a.808.808 0 00-1.05.3L3.48 3.243H2.372a2.418 2.418 0 00-1.542.585A2.378 2.378 0 00.347 6.87c.293.483.749.847 1.286 1.029l.595 5.948c.06.592.34 1.14.785 1.539A2.418 2.418 0 004.636 16h6.728c.6.003 1.178-.216 1.624-.614.445-.398.725-.947.785-1.539l.594-5.948a2.405 2.405 0 001.288-1.032 2.378 2.378 0 00-.494-3.047 2.418 2.418 0 00-1.548-.578zm-1.454 10.446a.795.795 0 01-.261.512.806.806 0 01-.542.205H4.628a.806.806 0 01-.541-.204.796.796 0 01-.262-.513l-.57-5.662h9.474l-.57 5.662zm1.454-7.257H2.372a.806.806 0 01-.568-.233.795.795 0 01.568-1.361h11.24c.213 0 .418.084.568.233a.794.794 0 010 1.128.806.806 0 01-.567.233z" fill="#fff"/></symbol><symbol fill="none" viewBox="0 0 11 11" id="icon-catalog" xmlns="http://www.w3.org/2000/svg"><rect width="5" height="5" rx="2" fill="currentColor"/><rect y="6" width="5" height="5" rx="2" fill="currentColor"/><rect x="6" y="6" width="5" height="5" rx="2" fill="currentColor"/><rect x="6" width="5" height="5" rx="2" fill="currentColor"/></symbol><symbol fill="none" viewBox="0 0 13 15" id="icon-catalog-accessories" xmlns="http://www.w3.org/2000/svg"><path d="M4.017 15h4.966C11.684 15 13 13.746 13 11.172V3.828C13 1.254 11.684 0 8.983 0H4.017C1.316 0 0 1.254 0 3.828v7.344C0 13.746 1.316 15 4.017 15zM8.71 3.783H4.289c-.381 0-.708.2-.856.505H1.51v-.46c0-1.662.763-2.389 2.507-2.389h4.966c1.744 0 2.507.727 2.507 2.389v.46H9.575c-.148-.304-.467-.505-.864-.505zm-4.694 9.778c-1.744 0-2.507-.727-2.507-2.389V5.074h1.923c.148.312.475.505.856.505h4.422c.397 0 .716-.193.864-.505h1.915v6.098c0 1.662-.763 2.389-2.507 2.389H4.017zM6.5 8.153c.428-.008.778-.349.778-.727 0-.408-.35-.742-.778-.742-.428 0-.778.334-.778.742 0 .4.35.734.778.727z" fill="currentColor"/></symbol><symbol fill="none" viewBox="0 0 13 17" id="icon-catalog-audio" xmlns="http://www.w3.org/2000/svg"><path d="M6.785 6.735c.884 0 1.61-.724 1.596-1.64-.007-.916-.712-1.626-1.596-1.64-.885-.007-1.597.724-1.597 1.64 0 .916.712 1.64 1.597 1.64zm0-.888a.743.743 0 01-.733-.752c0-.44.325-.76.733-.76.4 0 .732.341.732.76a.743.743 0 01-.732.752zm0 7.653c1.54 0 2.784-1.27 2.784-2.86 0-1.598-1.244-2.862-2.784-2.869C5.244 7.764 4 9.042 4 10.64 4 12.23 5.244 13.5 6.785 13.5zm0-1.725c-.608 0-1.113-.511-1.113-1.136 0-.66.49-1.15 1.113-1.15.621 0 1.112.49 1.112 1.15 0 .625-.49 1.136-1.112 1.136z" fill="currentColor"/><path d="M3.835 17h5.303c2.372 0 3.835-1.485 3.835-3.9V9.188L13 8.933c-.17-.788 0 .063 0-.533V6.8v-.533l-.027-2.408C12.973 1.485 11.51 0 9.138 0H3.835C1.472 0 0 1.485 0 3.892V13.1C0 15.515 1.472 17 3.835 17zm-.041-1.558c-1.407 0-2.224-.849-2.224-2.293V3.876c0-1.436.817-2.277 2.224-2.277h5.394c1.398 0 2.223.84 2.223 2.277v9.273c0 1.444-.825 2.293-2.223 2.293H3.794z" fill="currentColor"/></symbol><symbol fill="none" viewBox="0 0 13 16" id="icon-catalog-bags" xmlns="http://www.w3.org/2000/svg"><path d="M3.776 16h5.222c2.335 0 3.776-1.398 3.776-3.67V8.647l.026-.24c-.167-.742 0 .058 0-.502V6.4v-.502l-.027-2.266C12.774 1.398 11.334 0 8.998 0H3.776C1.449 0 0 1.398 0 3.663v8.666C0 14.602 1.45 16 3.776 16zm-.04-1.467c-1.385 0-2.19-.798-2.19-2.158V3.648c0-1.352.805-2.143 2.19-2.143h5.31c1.377 0 2.19.791 2.19 2.143v8.727c0 1.36-.813 2.158-2.19 2.158h-5.31z" fill="currentColor"/><path d="M3.7 9.533a.5.5 0 01.5-.5h4.4a.5.5 0 01.5.5V11.8a.5.5 0 01-.5.5H4.2a.5.5 0 01-.5-.5V9.533z" stroke="currentColor"/><circle cx="6.4" cy="4.267" r="1.067" fill="currentColor"/><path fill="currentColor" d="M9.6 9.6h2.133v1.067H9.6zM6.4 4.267v-3.2h1.067v3.2zM5.333 4.267v-3.2H6.4v3.2zM1.066 9.6h2.133v1.067H1.066z"/></symbol><symbol fill="none" viewBox="0 0 17 11" id="icon-catalog-games" xmlns="http://www.w3.org/2000/svg"><path d="M2.828 11c-.454 0-.882-.101-1.271-.306C.634 10.21.087 9.22.014 7.904-.1 5.849.484 3.846 1.795 1.78 2.83.154 4.07-.317 5.939.203c.829.232 1.705.452 2.548.429.755-.013 1.573-.15 2.573-.43 1.872-.521 3.111-.05 4.145 1.579 1.311 2.065 1.894 4.068 1.781 6.123-.072 1.315-.62 2.306-1.543 2.79-.965.507-2.179.38-3.414-.36a51.361 51.361 0 01-2.382-1.532 2.098 2.098 0 00-2.293 0 50.752 50.752 0 01-2.382 1.532c-.739.442-1.47.666-2.144.666zm1.788-9.538c-.655 0-1.08.33-1.57 1.101-1.143 1.8-1.652 3.52-1.556 5.26.043.782.312 1.341.759 1.575.48.253 1.196.137 1.96-.32A49.622 49.622 0 006.52 7.59c1.166-.788 2.79-.788 3.957 0 .71.479 1.482.991 2.313 1.489.763.456 1.478.573 1.96.32.446-.235.716-.794.758-1.575.096-1.741-.413-3.462-1.555-5.26-.688-1.084-1.246-1.298-2.494-.949-1.125.315-2.062.468-2.947.484-1.034.012-2.037-.222-2.975-.484-.357-.1-.658-.153-.922-.153zM8.5 1.366h.007H8.5z" fill="currentColor"/><path d="M6.098 5.68H3.511a.552.552 0 01-.554-.55c0-.304.248-.55.554-.55h2.587c.306 0 .554.246.554.55 0 .304-.248.55-.554.55z" fill="currentColor"/><path d="M4.805 6.963a.552.552 0 01-.555-.55V3.847c0-.304.249-.55.555-.55.306 0 .554.246.554.55v2.566c0 .304-.248.55-.554.55zM12.565 6.597a1.474 1.474 0 01-1.478-1.467c0-.809.663-1.466 1.478-1.466s1.478.657 1.478 1.466c0 .81-.663 1.467-1.478 1.467z" fill="currentColor"/></symbol><symbol fill="none" viewBox="0 0 12 15" id="icon-catalog-health" xmlns="http://www.w3.org/2000/svg"><path d="M3.54 15h4.896c2.188 0 3.54-1.31 3.54-3.441V8.107L12 7.882c-.156-.695 0 .055 0-.47V6v-.47l-.025-2.125C11.975 1.31 10.625 0 8.435 0H3.54C1.359 0 0 1.31 0 3.434v8.125C0 13.689 1.359 15 3.54 15zm-.038-1.375c-1.298 0-2.053-.749-2.053-2.023V3.42c0-1.267.755-2.009 2.053-2.009H8.48c1.29 0 2.053.742 2.053 2.009v8.182c0 1.274-.763 2.023-2.053 2.023H3.5z" fill="currentColor"/><path d="M3 4a1 1 0 011-1h4a1 1 0 011 1v2a1 1 0 01-1 1H4a1 1 0 01-1-1V4z" fill="currentColor"/></symbol><symbol fill="none" viewBox="0 0 14 16" id="icon-catalog-home" xmlns="http://www.w3.org/2000/svg"><path d="M13.175 5.251L8.102.438a1.604 1.604 0 00-2.204 0L.825 5.251C.348 5.704 0 6.517 0 7.182v7.22C0 15.285.7 16 1.556 16h4.679v-4.768h1.547V16h4.66c.86 0 1.558-.714 1.558-1.598v-7.22c0-.665-.347-1.478-.825-1.93zm-.733 9.149H9.338V9.632H4.679V14.4c-2.082 0-3.123.001-3.123.002v-7.22c0-.217.165-.605.323-.754l5.074-4.814c.02-.019.074-.019.094 0l5.074 4.814c.159.15.323.536.323.754 0 4.812 0 7.218-.002 7.218z" fill="currentColor"/></symbol><symbol fill="none" viewBox="0 0 17 13" id="icon-catalog-laptops" xmlns="http://www.w3.org/2000/svg"><path d="M2.348 13h12.31C16.204 13 17 12.161 17 10.558V2.442C17 .839 16.203 0 14.659 0H2.34C.804 0 0 .831 0 2.442v8.116C0 12.161.804 13 2.348 13zm.086-1.49c-.655 0-1.01-.36-1.01-1.087V2.577c0-.727.355-1.086 1.01-1.086h12.132c.655 0 1.018.36 1.018 1.086v7.846c0 .727-.363 1.086-1.018 1.086H2.434zm3.309-1.6h5.521c.2 0 .35-.15.35-.374 0-.218-.15-.367-.35-.367H5.744c-.207 0-.356.15-.356.367 0 .224.15.374.356.374z" fill="currentColor"/></symbol><symbol fill="none" viewBox="0 0 12 16" id="icon-catalog-phones" xmlns="http://www.w3.org/2000/svg"><path d="M3.54 16h4.896c2.188 0 3.54-1.398 3.54-3.67V8.647l.024-.24c-.156-.742 0 .058 0-.502V6.4v-.502l-.025-2.266c0-2.234-1.35-3.632-3.54-3.632H3.54C1.359 0 0 1.398 0 3.663v8.666C0 14.602 1.359 16 3.54 16zm-.038-1.467c-1.298 0-2.053-.798-2.053-2.158V3.648c0-1.352.755-2.143 2.053-2.143H8.48c1.29 0 2.053.791 2.053 2.143v8.727c0 1.36-.763 2.158-2.053 2.158H3.5z" fill="currentColor"/><rect x="3" y="12" width="6" height="1" rx=".5" fill="currentColor"/></symbol><symbol fill="none" viewBox="0 0 12 15" id="icon-catalog-services" xmlns="http://www.w3.org/2000/svg"><path d="M11.939 4.95a.75.75 0 00-.655-.45h-3.45L8.792.945A.747.747 0 008.068 0h-5.27a.755.755 0 00-.754.555L.027 8.054a.747.747 0 00.73.945H3.67l-1.363 5.054a.747.747 0 00.367.856.756.756 0 00.92-.159l8.208-8.998a.749.749 0 00.136-.803zm-7.372 6.508l.806-3a.747.747 0 00-.723-.944H1.758L3.37 1.5h3.712l-.956 3.554a.747.747 0 00.41.877c.108.049.225.072.343.068h2.688l-5 5.46z" fill="currentColor"/></symbol><symbol fill="none" viewBox="0 0 13 16" id="icon-catalog-smarthouse" xmlns="http://www.w3.org/2000/svg"><path d="M6.492 1.973c2.13 0 3.765-.426 3.765-.983C10.257.42 8.622 0 6.492 0 4.37 0 2.743.419 2.743.99c0 .557 1.635.983 3.75.983zM6.5 16c4.464 0 6.5-1.539 6.5-5.021V5.067c0-1.28-.244-2.294-.802-3.048-.188-.267-.542-.32-.856-.13-.96.633-2.853 1.128-4.842 1.128-1.989 0-3.883-.495-4.842-1.127-.314-.19-.668-.138-.856.13C.244 2.772 0 3.786 0 5.066v5.912C0 14.461 2.036 16 6.5 16zm0-1.509c-3.553 0-4.944-1.12-4.944-3.626V5.128c0-.557.095-1.067.267-1.486 1.077.61 2.767.907 4.677.907 1.91 0 3.6-.298 4.669-.907.18.419.275.93.275 1.486v5.737c0 2.506-1.4 3.626-4.944 3.626z" fill="currentColor"/></symbol><symbol fill="none" viewBox="0 0 13 17" id="icon-catalog-tech" xmlns="http://www.w3.org/2000/svg"><path d="M3.54 17h5.896c2.188 0 3.54-1.31 3.54-3.441V8.107L13 7.882c-.156-.695 0 .055 0-.47V6v-.47l-.025-2.125C12.975 1.31 11.625 0 9.435 0H3.54C1.359 0 0 1.31 0 3.434v10.125C0 15.689 1.359 17 3.54 17zm-.038-1.375c-1.298 0-2.053-.749-2.053-2.023V3.42c0-1.267.755-2.009 2.053-2.009H9.48c1.29 0 2.053.742 2.053 2.009v10.182c0 1.274-.763 2.023-2.053 2.023H3.5z" fill="currentColor"/><circle cx="6.5" cy="10.5" r="2.5" stroke="currentColor" stroke-width="2"/><circle cx="9.5" cy="3.5" r="1" stroke="currentColor"/><rect x="3" y="3" width="4" height="2" rx="1" fill="currentColor"/></symbol><symbol fill="none" viewBox="0 0 12 19" id="icon-catalog-transport" xmlns="http://www.w3.org/2000/svg"><path d="M10.846 1.472H8.115A2.667 2.667 0 005.733 0C4.693 0 3.79.6 3.35 1.472H.62a.62.62 0 000 1.24h2.45c.002.139.015.275.038.408A2.607 2.607 0 001.023 5.67v7.282a2.606 2.606 0 002.556 2.602v1.024c0 1.128.918 2.045 2.046 2.045h.216a2.048 2.048 0 002.046-2.045v-1.024a2.606 2.606 0 002.556-2.602V5.671c0-1.258-.897-2.31-2.085-2.551a2.67 2.67 0 00.039-.409h2.45a.62.62 0 100-1.239zM5.733 1.24c.786 0 1.425.639 1.425 1.425S6.52 4.09 5.733 4.09s-1.426-.639-1.426-1.425.64-1.425 1.426-1.425zm.914 15.339a.807.807 0 01-.806.806h-.217a.807.807 0 01-.805-.806v-3.285c0-.444.361-.806.805-.806h.217c.445 0 .806.362.806.806v3.285zM7.84 4.307c.752 0 1.364.612 1.364 1.364v7.282c0 .737-.587 1.338-1.317 1.363v-1.022A2.048 2.048 0 005.84 11.25h-.217a2.048 2.048 0 00-2.045 2.045v1.022a1.365 1.365 0 01-1.317-1.363V5.671c0-.752.612-1.364 1.364-1.364h.01a2.661 2.661 0 004.193 0h.011z" fill="currentColor"/></symbol><symbol fill="none" viewBox="0 0 16 15" id="icon-catalog-tv" xmlns="http://www.w3.org/2000/svg"><path d="M1.96 12.449h12.08c1.288 0 1.96-.67 1.96-2.019V2.019C16 .671 15.328 0 14.04 0H1.96C.671 0 0 .67 0 2.019v8.411c0 1.348.672 2.019 1.96 2.019zm.091-1.414c-.467 0-.679-.197-.679-.692V2.106c0-.495.212-.692.68-.692h11.897c.467 0 .679.197.679.692v8.237c0 .495-.212.692-.68.692H2.052zM4.382 15h7.236a.656.656 0 00.643-.663c0-.365-.29-.67-.643-.67H4.382c-.353 0-.643.305-.643.67 0 .364.29.663.643.663z" fill="currentColor"/></symbol><symbol fill="none" viewBox="0 0 11 16" id="icon-catalog-watch" xmlns="http://www.w3.org/2000/svg"><path d="M0 11.001c0 1.248.531 2.021 1.293 2.457.4.23.64.506.785.965l.293.85c.17.528.577.727 1.054.727h3.403c.477 0 .877-.184 1.054-.727l.293-.85c.146-.46.377-.735.785-.965.762-.436 1.293-1.21 1.293-2.457V7.548h.023c.44 0 .724-.306.724-.765v-.995c0-.46-.293-.766-.724-.766h-.023v-.023c0-1.248-.53-2.021-1.293-2.457-.408-.23-.639-.506-.785-.965l-.293-.85C7.713.2 7.305 0 6.828 0H3.425c-.477 0-.885.199-1.054.727l-.293.85c-.154.467-.392.75-.785.965C.523 2.962 0 3.752 0 4.999v6.002zm1.362-.237V5.236c0-1.04.593-1.653 1.602-1.653H7.29c1.008 0 1.6.612 1.6 1.653v5.528c0 1.033-.592 1.646-1.6 1.646H2.964c-1.009 0-1.602-.613-1.602-1.646z" fill="currentColor"/></symbol><symbol fill="none" viewBox="0 0 30 30" id="icon-chat" xmlns="http://www.w3.org/2000/svg"><path d="M15 0C6.71 0 0 6.709 0 15c0 2.631.686 5.2 1.99 7.467L.056 28.469a1.172 1.172 0 001.474 1.474l6.002-1.932A14.966 14.966 0 0015 30c8.29 0 15-6.709 15-15 0-8.29-6.709-15-15-15zm0 27.656a12.62 12.62 0 01-6.7-1.917 1.173 1.173 0 00-.98-.122l-4.332 1.395 1.395-4.332a1.173 1.173 0 00-.122-.98A12.621 12.621 0 012.344 15C2.344 8.021 8.02 2.344 15 2.344c6.979 0 12.656 5.677 12.656 12.656 0 6.979-5.677 12.656-12.656 12.656zM16.465 15a1.465 1.465 0 11-2.93 0 1.465 1.465 0 012.93 0zm5.86 0a1.465 1.465 0 11-2.93 0 1.465 1.465 0 012.93 0zm-11.72 0a1.465 1.465 0 11-2.93 0 1.465 1.465 0 012.93 0z" fill="#fff"/></symbol><symbol fill="none" viewBox="0 0 15 15" id="icon-chat-close" xmlns="http://www.w3.org/2000/svg"><path d="M8.82 7.5l5.903-5.894a.94.94 0 00-1.33-1.33L7.5 6.178 1.607.276a.94.94 0 10-1.33 1.33L6.18 7.499.277 13.392a.938.938 0 00.305 1.536.936.936 0 001.025-.205L7.5 8.82l5.893 5.903a.936.936 0 001.33 0 .939.939 0 000-1.33L8.82 7.498z" fill="#fff"/></symbol><symbol fill="none" viewBox="0 0 60 60" id="icon-chat-messenger" xmlns="http://www.w3.org/2000/svg"><path fill-rule="evenodd" clip-rule="evenodd" d="M30 58.106c16.569 0 30-13.008 30-29.053C60 13.007 46.569 0 30 0 13.431 0 0 13.007 0 29.053c0 8.727 3.973 16.555 10.263 21.88v5.88c0 2.297 2.34 3.839 4.428 2.915l6.524-2.888A30.9 30.9 0 0030 58.106z" fill="#00B1FF"/><path d="M22.816 22.877l-8.7 11.898c-.932 1.275.745 2.808 2.022 1.847l7.428-5.59a2.182 2.182 0 012.581-.02l6.607 4.82c1.267.924 3.078.658 4-.587l9.124-12.32c.946-1.278-.745-2.823-2.023-1.85L36 27.056a2.181 2.181 0 01-2.59.025l-6.585-4.804c-1.273-.928-3.092-.655-4.01.6z" fill="#fff"/></symbol><symbol fill="none" viewBox="0 0 60 60" id="icon-chat-skype" xmlns="http://www.w3.org/2000/svg"><circle cx="30" cy="30" r="30" fill="#37C4F2"/><path d="M31.137 15c4.227 0 9.863 2 8.454 4.667-1.926 3.644-5.636 0-8.454 0-2.817 0-4.226 1.333-4.226 2.666 0 1.334.704 2.667 4.226 4C34.66 27.667 41 29.667 41 35s-4.931 8-11.271 8c-5.68 0-9.863-2.667-8.454-5.333 1.62-3.067 5.636.666 8.454.666 2.818 0 5.635-.666 5.635-3.333 0-2.667-4.226-3.333-7.044-4.667-3.523-1.666-7.045-3.333-7.045-8 0-4.666 5.636-7.333 9.863-7.333z" fill="#fff"/></symbol><symbol fill="none" viewBox="0 0 60 60" id="icon-chat-telegram" xmlns="http://www.w3.org/2000/svg"><circle cx="30" cy="30" r="30" fill="#37BBFE"/><path d="M46.971 17.59c.265-1.726-1.362-3.088-2.884-2.414l-30.312 13.42c-1.091.483-1.011 2.15.12 2.514l6.252 2.007a4.002 4.002 0 003.526-.54l14.094-9.82c.425-.295.888.314.525.691L28.147 33.996c-.984 1.023-.788 2.756.395 3.505L39.9 44.684c1.274.805 2.913-.004 3.151-1.556l3.92-25.538z" fill="#fff"/></symbol><symbol fill="none" viewBox="0 0 60 60" id="icon-chat-viber" xmlns="http://www.w3.org/2000/svg"><path d="M60 30c0 16.569-13.431 30-30 30a29.861 29.861 0 01-17.018-5.29L2.727 57.272l2.687-10.077A29.862 29.862 0 010 30C0 13.431 13.431 0 30 0c16.569 0 30 13.431 30 30z" fill="#9179EE"/><path d="M22.623 18.75c-.683-1.368-1.73-1.247-2.787-1.247-1.89 0-4.836 2.26-4.836 6.464 0 3.447 1.521 7.22 6.648 12.863 4.947 5.446 11.448 8.264 16.845 8.168C43.89 44.902 45 40.266 45 38.7c0-.694-.431-1.04-.729-1.134-1.839-.88-5.23-2.522-6.002-2.83-.772-.31-1.175.108-1.426.335-.7.666-2.087 2.628-2.562 3.069-.475.441-1.183.218-1.478.051-1.084-.434-4.025-1.74-6.369-4.008-2.898-2.805-3.069-3.77-3.615-4.629-.437-.687-.116-1.109.044-1.293.625-.72 1.487-1.83 1.874-2.382.386-.552.08-1.39-.105-1.912-.792-2.244-1.463-4.123-2.01-5.217z" fill="#fff"/></symbol><symbol fill="none" viewBox="0 0 60 60" id="icon-chat-vk" xmlns="http://www.w3.org/2000/svg"><circle cx="30" cy="30" r="30" fill="#4681C2"/><path d="M40.385 34.39c-.323-.414-.396-.833-.219-1.258.44-1.133 6.858-8.33 4.185-8.33-1.837.023-4.047 0-5.808 0-.327.075-.538.237-.67.567-1.03 2.243-2.29 4.98-4.138 6.739-.243.185-.394.177-.671.109-1.296-1.289.086-5.702-.702-7.446-.156-.342-.495-.496-.843-.583-1.76-.396-5.776-.16-6.432.637-.187.228-.213.352-.078.373.624.093 1.067.315 1.327.667.49 1.021.852 6.46-.593 6.46-1.446 0-3.778-5.338-4.418-6.817-.17-.446-.604-.701-1.062-.776l-4.277.03c-.752 0-1.172.35-.906 1.056 2.228 5.223 7.103 15.347 14.58 15.093.75 0 2.039.272 2.624-.341.803-1.008-.177-2.802 1.202-3.486.347-.175.708-.028 1.006.187 1.534 1.102 2.348 3.038 4.239 3.626.332.103.624.129.874.077l3.996-.062c.742 0 1.473-.312 1.32-1.15-.583-1.796-2.905-3.642-4.536-5.372z" fill="#fff"/></symbol><symbol fill="none" viewBox="0 0 60 60" id="icon-chat-whatsapp" xmlns="http://www.w3.org/2000/svg"><path d="M60 30c0 16.569-13.431 30-30 30a29.861 29.861 0 01-17.018-5.29L2.727 57.272l2.687-10.077A29.862 29.862 0 010 30C0 13.431 13.431 0 30 0c16.569 0 30 13.431 30 30z" fill="#5BD066"/><path d="M22.623 18.75c-.683-1.368-1.73-1.247-2.787-1.247-1.89 0-4.836 2.26-4.836 6.464 0 3.447 1.521 7.22 6.648 12.863 4.947 5.446 11.448 8.264 16.845 8.168C43.89 44.902 45 40.266 45 38.7c0-.694-.431-1.04-.729-1.134-1.839-.88-5.23-2.522-6.002-2.83-.772-.31-1.175.108-1.426.335-.7.666-2.087 2.628-2.562 3.069-.475.441-1.183.218-1.478.051-1.084-.434-4.025-1.74-6.369-4.008-2.898-2.805-3.069-3.77-3.615-4.629-.437-.687-.116-1.109.044-1.293.625-.72 1.487-1.83 1.874-2.382.386-.552.08-1.39-.105-1.912-.792-2.244-1.463-4.123-2.01-5.217z" fill="#fff"/></symbol><symbol fill="none" viewBox="0 0 12 12" id="icon-clear" xmlns="http://www.w3.org/2000/svg"><path d="M4.9 6L.229 1.327a.776.776 0 111.1-1.099L6 4.901 10.673.228a.777.777 0 111.099 1.1L7.099 6l4.673 4.673a.776.776 0 11-1.1 1.1L6 7.098l-4.673 4.673a.775.775 0 01-1.099 0 .776.776 0 010-1.1L4.901 6z" fill="currentColor"/></symbol><symbol fill="none" viewBox="0 0 16 16" id="icon-close" xmlns="http://www.w3.org/2000/svg"><path d="M10.64 8l4.95-4.95a1.4 1.4 0 000-1.979l-.66-.66a1.4 1.4 0 00-1.98 0L8 5.361 3.05.41a1.4 1.4 0 00-1.979 0l-.66.659a1.4 1.4 0 000 1.98L5.36 8 .41 12.95a1.4 1.4 0 000 1.98l.66.66a1.4 1.4 0 001.98 0L8 10.64l4.95 4.95a1.4 1.4 0 001.979 0l.66-.66a1.4 1.4 0 000-1.98L10.64 8z" fill="currentColor"/></symbol><symbol fill="none" viewBox="0 0 17 17" id="icon-close-alerts" xmlns="http://www.w3.org/2000/svg"><path d="M9.997 8.5l6.689-6.68A1.066 1.066 0 1015.178.312L8.5 7.002 1.822.312A1.066 1.066 0 10.314 1.82L7.003 8.5.314 15.177a1.061 1.061 0 000 1.508 1.062 1.062 0 001.508 0L8.5 9.996l6.678 6.69a1.062 1.062 0 001.508 0 1.06 1.06 0 000-1.508L9.997 8.5z" fill="currentColor"/></symbol><symbol fill="none" viewBox="0 0 40 40" id="icon-close-cart" xmlns="http://www.w3.org/2000/svg"><path d="M20.916 19.995L39.81 1.1a.645.645 0 00-.912-.912L20.004 19.083 1.109.188a.645.645 0 00-.912.912l18.895 18.896L.197 38.89a.645.645 0 10.912.912l18.895-18.895 18.895 18.895a.645.645 0 00.912-.912L20.916 19.996z" fill="currentColor"/></symbol><symbol fill="none" viewBox="0 0 15 14" id="icon-comments" xmlns="http://www.w3.org/2000/svg"><path d="M15 6.383c0 1.09-.203 2.068-.603 2.91a5.359 5.359 0 01-1.665 2.017c-1.283.952-3.092 1.456-5.232 1.456-.599 0-1.177-.04-1.724-.118A4.471 4.471 0 012.678 14h-.012l-1.053-.002.556-.918c.003-.005.325-.552.574-1.453C.946 10.543 0 8.74 0 6.383c0-1.09.203-2.069.603-2.91a5.358 5.358 0 011.665-2.017C3.55.503 5.36 0 7.5 0s3.95.503 5.232 1.456a5.358 5.358 0 011.665 2.017c.4.841.603 1.82.603 2.91zm-1.172 0c0-1.744-.6-3.073-1.782-3.95-1.082-.804-2.654-1.229-4.546-1.229-1.892 0-3.464.425-4.546 1.228-1.182.878-1.782 2.207-1.782 3.95 0 2.074.844 3.554 2.51 4.398l.412.209-.1.461c-.096.448-.216.84-.334 1.168.455-.158.99-.453 1.454-1.007l.216-.258.326.057c.574.1 1.194.151 1.844.151 1.892 0 3.464-.424 4.546-1.228 1.183-.878 1.782-2.207 1.782-3.95z" fill="currentColor"/></symbol><symbol fill="none" viewBox="0 0 21 19" id="icon-compare" xmlns="http://www.w3.org/2000/svg"><path d="M12.923 9.78c0 2.31 1.812 4.191 4.039 4.191a3.94 3.94 0 002.855-1.228A4.245 4.245 0 0021 9.78a.861.861 0 00-.115-.431L18.35 4.964a.84.84 0 00.496-.773c0-.463-.361-.838-.808-.838h-6.73V.838c0-.463-.362-.838-.808-.838-.446 0-.808.375-.808.838v2.515h-6.73c-.446 0-.808.375-.808.838a.84.84 0 00.496.773L.115 9.35a.861.861 0 00-.115.43c0 2.312 1.812 4.192 4.038 4.192 2.227 0 4.039-1.88 4.039-4.191a.862.862 0 00-.115-.431l-2.497-4.32h4.227v12.294H3.5c-.446 0-.808.376-.808.839 0 .463.362.838.808.838h14c.446 0 .808-.375.808-.838 0-.463-.362-.838-.808-.838h-6.192V5.028h4.227l-2.497 4.32a.862.862 0 00-.115.43zm-8.885 2.515c-1.052 0-1.95-.701-2.283-1.677h4.567c-.333.976-1.23 1.677-2.284 1.677zm1.805-3.353H2.234L4.038 5.82l1.805 3.122zM16.962 5.82l1.804 3.122h-3.609l1.805-3.122zm2.284 4.798c-.334.976-1.231 1.677-2.284 1.677-1.053 0-1.951-.701-2.284-1.677h4.567z" fill="currentColor"/></symbol><symbol fill="none" viewBox="0 0 26 22" id="icon-compare-active" xmlns="http://www.w3.org/2000/svg"><path d="M12.923 9.78c0 2.31 1.812 4.191 4.039 4.191a3.94 3.94 0 002.855-1.228A4.245 4.245 0 0021 9.78a.861.861 0 00-.115-.431L18.35 4.964a.84.84 0 00.496-.773c0-.463-.361-.838-.808-.838h-6.73V.838c0-.463-.362-.838-.808-.838-.446 0-.808.375-.808.838v2.515h-6.73c-.446 0-.808.375-.808.838a.84.84 0 00.496.773L.115 9.35a.861.861 0 00-.115.43c0 2.312 1.812 4.192 4.038 4.192 2.227 0 4.039-1.88 4.039-4.191a.862.862 0 00-.115-.431l-2.497-4.32h4.227v12.294H3.5c-.446 0-.808.376-.808.839 0 .463.362.838.808.838h14c.446 0 .808-.375.808-.838 0-.463-.362-.838-.808-.838h-6.192V5.028h4.227l-2.497 4.32a.862.862 0 00-.115.43zm-8.885 2.515c-1.052 0-1.95-.701-2.283-1.677h4.567c-.333.976-1.23 1.677-2.284 1.677zm1.805-3.353H2.234L4.038 5.82l1.805 3.122zM16.962 5.82l1.804 3.122h-3.609l1.805-3.122zm2.284 4.798c-.334.976-1.231 1.677-2.284 1.677-1.053 0-1.951-.701-2.284-1.677h4.567z" fill="#13D154"/><path d="M9.6 13.894l.69.703-.69-.703c-.8.784-.8 2.016 0 2.8l3.8 3.726c.362.355.806.58 1.4.58.594 0 1.038-.225 1.4-.58l8.2-8.04c.8-.784.8-2.016 0-2.8a1.98 1.98 0 00-2.8 0l-6.8 6.667-2.4-2.353a1.98 1.98 0 00-2.8 0z" fill="#13D154" stroke="#fff" stroke-width="2"/></symbol><symbol fill="none" viewBox="0 0 6 11" id="icon-decrease" xmlns="http://www.w3.org/2000/svg"><path d="M.163 5.93l4.545 4.894a.535.535 0 00.79 0l.335-.36a.636.636 0 000-.851l-3.817-4.11 3.82-4.116A.622.622 0 006 .962a.622.622 0 00-.163-.426l-.335-.36a.535.535 0 00-.79 0l-4.55 4.9A.623.623 0 000 5.501c0 .162.058.314.163.427z" fill="#343434"/></symbol><symbol fill="none" viewBox="0 0 18 18" id="icon-discount" xmlns="http://www.w3.org/2000/svg"><path d="M4.231 7.6a3.374 3.374 0 100-6.748 3.374 3.374 0 000 6.748zm0-4.498a1.125 1.125 0 110 2.249 1.125 1.125 0 010-2.25zm9.543 7.293a3.374 3.374 0 100 6.747 3.374 3.374 0 000-6.747zm0 4.498a1.125 1.125 0 110-2.249 1.125 1.125 0 010 2.25zM17.67.33a1.124 1.124 0 00-1.59 0L.333 16.075a1.124 1.124 0 101.59 1.59L17.672 1.92a1.125 1.125 0 000-1.59z" fill="currentColor"/></symbol><symbol fill="none" viewBox="0 0 16 16" id="icon-dislike" xmlns="http://www.w3.org/2000/svg"><path d="M13.6 0H3.415a2.4 2.4 0 00-2.36 1.968L.04 7.568A2.4 2.4 0 002.4 10.4h3.649l-.449 1.144A3.304 3.304 0 008.712 16a.8.8 0 00.728-.472l2.28-5.128h1.88A2.4 2.4 0 0016 8V2.4A2.4 2.4 0 0013.6 0zm-3.2 9.432l-2.176 4.896a1.705 1.705 0 01-1.104-2.224l.424-1.144A1.6 1.6 0 006.048 8.8H2.399a.8.8 0 01-.616-.288.8.8 0 01-.184-.656l1.016-5.6a.8.8 0 01.8-.656H10.4v7.832zM14.4 8a.8.8 0 01-.8.8H12V1.6h1.6a.8.8 0 01.8.8V8z" fill="#343434"/></symbol><symbol fill="none" viewBox="0 0 11 11" id="icon-display-compact" xmlns="http://www.w3.org/2000/svg"><rect y="6" width="11" height="5" rx="2" fill="currentColor"/><rect width="11" height="5" rx="2" fill="currentColor"/></symbol><symbol fill="none" viewBox="0 0 11 11" id="icon-display-grid" xmlns="http://www.w3.org/2000/svg"><rect width="5" height="5" rx="2" fill="currentColor"/><rect y="6" width="5" height="5" rx="2" fill="currentColor"/><rect x="6" y="6" width="5" height="5" rx="2" fill="currentColor"/><rect x="6" width="5" height="5" rx="2" fill="currentColor"/></symbol><symbol fill="none" viewBox="0 0 17 11" id="icon-display-line" xmlns="http://www.w3.org/2000/svg"><rect x="6" y="6" width="11" height="5" rx="2" fill="currentColor"/><rect y="6" width="5" height="5" rx="2" fill="currentColor"/><rect width="5" height="5" rx="2" fill="currentColor"/><rect x="6" width="11" height="5" rx="2" fill="currentColor"/></symbol><symbol fill="none" viewBox="0 0 5 5" id="icon-dot" xmlns="http://www.w3.org/2000/svg"><circle cx="2.5" cy="2.5" r="2.5" fill="#fff"/></symbol><symbol fill="none" viewBox="0 0 4 18" id="icon-dots" xmlns="http://www.w3.org/2000/svg"><path d="M2 4a2 2 0 100-4 2 2 0 000 4zM2 11a2 2 0 100-4 2 2 0 000 4zM2 18a2 2 0 100-4 2 2 0 000 4z" fill="#343434"/></symbol><symbol fill="none" viewBox="0 0 16 9" id="icon-down" xmlns="http://www.w3.org/2000/svg"><path d="M8.624 8.756l7.12-6.818a.814.814 0 000-1.185L15.22.251a.904.904 0 00-1.238 0L8.003 5.976 2.018.245A.89.89 0 001.398 0 .89.89 0 00.78.245L.256.747a.814.814 0 000 1.185l7.126 6.824a.89.89 0 00.62.244.89.89 0 00.622-.244z" fill="#343434"/></symbol><symbol fill="none" viewBox="0 0 20 20" id="icon-error" xmlns="http://www.w3.org/2000/svg"><circle cx="10" cy="10" r="9" stroke="#F45656" stroke-width="2"/><path d="M11.32 10l2.475-2.475a.7.7 0 000-.99l-.33-.33a.7.7 0 00-.99 0L10 8.68 7.525 6.205a.7.7 0 00-.99 0l-.33.33a.7.7 0 000 .99L8.68 10l-2.474 2.475a.7.7 0 000 .99l.33.33a.7.7 0 00.99 0L10 11.32l2.475 2.475a.7.7 0 00.99 0l.33-.33a.7.7 0 000-.99L11.32 10z" fill="#F45656"/></symbol><symbol viewBox="0 0 21 19" id="icon-favorites" xmlns="http://www.w3.org/2000/svg"><path stroke="currentColor" stroke-width="2" d="M18.5 2.7c-1-1.1-2.3-1.7-3.8-1.7-1.1 0-2.1.3-3 1-.4.3-.9.8-1.2 1.3-.4-.5-.8-.9-1.2-1.3-.9-.7-1.9-1-3-1-1.5 0-2.8.6-3.8 1.7-1 1-1.5 2.5-1.5 4 0 1.6.6 3.1 1.9 4.7 1.2 1.4 2.8 2.8 4.7 4.5.7.5 1.4 1.1 2.2 1.8.2.2.5.3.7.3.3 0 .5-.1.7-.3.8-.7 1.5-1.3 2.2-1.9 1.9-1.6 3.6-3.1 4.7-4.5 1.3-1.6 1.9-3 1.9-4.7 0-1.4-.5-2.9-1.5-3.9z"/></symbol><symbol fill="none" viewBox="0 0 24 17" id="icon-favorites-active" xmlns="http://www.w3.org/2000/svg"><path d="M15.45 1.695a5.22 5.22 0 00-3.368-1.65 5.128 5.128 0 00-3.57 1.073A5.108 5.108 0 004.744.034C3.404.192 2.17.882 1.291 1.966a5.873 5.873 0 00-1.287 3.91 5.822 5.822 0 001.57 3.793l5.28 5.61c.443.462 1.038.721 1.658.721.62 0 1.216-.259 1.658-.72l5.28-5.611C16.443 8.609 17 7.176 17 5.682c0-1.494-.557-2.927-1.55-3.987zm-1.199 6.73l-5.28 5.6a.614.614 0 01-.918 0l-5.28-5.628a3.996 3.996 0 01-1.04-2.706c0-1.012.374-1.983 1.04-2.706a3.526 3.526 0 012.551-1.11c.955 0 1.871.398 2.55 1.11a.85.85 0 00.277.197.808.808 0 00.931-.197 3.526 3.526 0 012.55-1.11c.956 0 1.872.398 2.551 1.11a3.99 3.99 0 011.075 2.691 4.001 4.001 0 01-1.007 2.721v.027z" fill="#13D154"/><path d="M7.6 8.894l.69.703-.69-.703c-.8.784-.8 2.016 0 2.8l3.8 3.726c.362.355.806.58 1.4.58.594 0 1.038-.225 1.4-.58l8.2-8.04c.8-.783.8-2.016 0-2.8a1.98 1.98 0 00-2.8 0l-6.8 6.667-2.4-2.353a1.98 1.98 0 00-2.8 0z" fill="#13D154" stroke="#fff" stroke-width="2"/></symbol><symbol fill="none" viewBox="0 0 13 13" id="icon-fullscreen" xmlns="http://www.w3.org/2000/svg"><path d="M1.857 8.357H0V13h4.643v-1.857H1.857V8.357zM0 4.643h1.857V1.857h2.786V0H0v4.643zM8.357 0v1.857h2.786v2.786H13V0H8.357zM11.143 11.143H8.357V13H13V8.357h-1.857v2.786z" fill="currentColor"/></symbol><symbol fill="none" viewBox="0 0 13 14" id="icon-gift" xmlns="http://www.w3.org/2000/svg"><path d="M10.833 3.503h-.252c.164-.327.25-.686.252-1.05a2.388 2.388 0 00-.426-1.37A2.506 2.506 0 009.262.18a2.596 2.596 0 00-1.47-.127c-.493.1-.942.342-1.292.692-.35-.35-.8-.591-1.292-.692a2.596 2.596 0 00-1.47.127 2.506 2.506 0 00-1.145.903c-.28.405-.429.882-.426 1.37.001.364.088.723.252 1.05h-.252c-.575 0-1.126.22-1.532.615A2.067 2.067 0 000 5.602v1.4c0 .185.076.363.212.495.135.13.319.205.51.205h.722V11.9c0 .557.229 1.091.635 1.485.406.394.957.615 1.532.615H9.39c.575 0 1.126-.221 1.532-.615.406-.394.635-.928.635-1.485V7.702h.722a.734.734 0 00.51-.205.69.69 0 00.212-.495v-1.4c0-.557-.228-1.09-.635-1.484a2.202 2.202 0 00-1.532-.615zM5.778 12.6H3.61a.734.734 0 01-.51-.205.69.69 0 01-.212-.495V7.702h2.889V12.6zm0-6.298H1.444v-.7c0-.185.077-.363.212-.495a.734.734 0 01.51-.205h3.612v1.4zm0-2.8H4.694c-.214 0-.423-.06-.601-.176a1.058 1.058 0 01-.4-.471 1.02 1.02 0 01.235-1.144 1.116 1.116 0 011.18-.228c.199.08.368.214.487.387.12.172.183.375.183.583v1.05zm1.444-1.049c0-.208.064-.41.183-.583s.288-.307.486-.387a1.116 1.116 0 011.18.228 1.02 1.02 0 01.235 1.144c-.082.192-.22.355-.399.47a1.108 1.108 0 01-.601.178H7.222v-1.05zm2.89 9.447a.69.69 0 01-.212.495.734.734 0 01-.511.205H7.222V7.702h2.89V11.9zm1.444-5.598H7.222v-1.4h3.611c.192 0 .376.074.511.205.136.132.212.31.212.495v.7z" fill="currentColor"/></symbol><symbol fill="none" viewBox="0 0 15 15" id="icon-help" xmlns="http://www.w3.org/2000/svg"><path d="M7.5 11.821a.732.732 0 100-1.465.732.732 0 000 1.465z" fill="#BDC2D3"/><path d="M7.5 0A7.496 7.496 0 000 7.5C0 11.645 3.354 15 7.5 15c4.145 0 7.5-3.354 7.5-7.5C15 3.355 11.646 0 7.5 0zm0 13.828A6.325 6.325 0 011.172 7.5 6.325 6.325 0 017.5 1.172 6.325 6.325 0 0113.828 7.5 6.325 6.325 0 017.5 13.828z" fill="#BDC2D3"/><path d="M7.5 3.765a2.346 2.346 0 00-2.344 2.343.586.586 0 101.172 0c0-.646.526-1.171 1.172-1.171.646 0 1.172.525 1.172 1.171 0 .647-.526 1.172-1.172 1.172a.586.586 0 00-.586.586v1.465a.586.586 0 101.172 0v-.953a2.348 2.348 0 001.758-2.27A2.346 2.346 0 007.5 3.765z" fill="#BDC2D3"/></symbol><symbol fill="none" viewBox="0 0 6 11" id="icon-increase" xmlns="http://www.w3.org/2000/svg"><path d="M5.837 5.07L1.292.177a.535.535 0 00-.79 0l-.335.36a.636.636 0 000 .851l3.817 4.11-3.82 4.116a.622.622 0 00-.164.425c0 .162.058.313.163.426l.335.36a.535.535 0 00.79 0l4.55-4.9A.623.623 0 006 5.499a.622.622 0 00-.163-.427z" fill="#343434"/></symbol><symbol fill="none" viewBox="0 0 10 13" id="icon-lightning" xmlns="http://www.w3.org/2000/svg"><path d="M9.949 4.29a.645.645 0 00-.22-.276.613.613 0 00-.326-.114H6.529L7.326.82a.672.672 0 00-.107-.566A.61.61 0 006.723 0H2.332a.613.613 0 00-.395.126.651.651 0 00-.232.354l-1.682 6.5a.672.672 0 00.107.564.61.61 0 00.502.253h2.428L1.923 12.18a.671.671 0 00.029.426.642.642 0 00.277.316.609.609 0 00.767-.138l6.84-7.798a.672.672 0 00.113-.695zM3.806 9.93l.671-2.599a.672.672 0 00-.106-.565.61.61 0 00-.496-.253h-2.41L2.808 1.3h3.094l-.797 3.08a.673.673 0 00.114.574.609.609 0 00.513.245h2.24L3.806 9.93z" fill="currentColor"/></symbol><symbol fill="none" viewBox="0 0 16 16" id="icon-like" xmlns="http://www.w3.org/2000/svg"><path d="M15.441 6.464a2.4 2.4 0 00-1.84-.864H9.953l.448-1.144A3.304 3.304 0 007.289 0a.8.8 0 00-.728.472L4.28 5.6H2.4A2.4 2.4 0 000 8v5.6A2.4 2.4 0 002.4 16h10.185a2.4 2.4 0 002.36-1.968l1.016-5.6a2.402 2.402 0 00-.52-1.968zM4.001 14.4H2.4a.8.8 0 01-.8-.8V8a.8.8 0 01.8-.8H4v7.2zm10.4-6.256l-1.016 5.6a.8.8 0 01-.8.656H5.6V6.568l2.177-4.896A1.688 1.688 0 018.88 3.896L8.457 5.04A1.6 1.6 0 009.953 7.2H13.6a.8.8 0 01.616.288.8.8 0 01.184.656z" fill="#343434"/></symbol><symbol fill="none" viewBox="0 0 11 14" id="icon-location" xmlns="http://www.w3.org/2000/svg"><path d="M5.032 0A5.038 5.038 0 000 5.032c0 3.444 4.503 8.499 4.695 8.713.18.2.495.2.674 0 .192-.214 4.695-5.27 4.695-8.713A5.038 5.038 0 005.032 0zm0 7.564A2.535 2.535 0 012.5 5.032 2.535 2.535 0 015.032 2.5a2.535 2.535 0 012.532 2.532 2.535 2.535 0 01-2.532 2.532z" fill="#F45656"/></symbol><symbol fill="none" viewBox="0 0 20 20" id="icon-nav-acc" xmlns="http://www.w3.org/2000/svg"><path d="M10 0A10.025 10.025 0 00.844 5.99a10.002 10.002 0 001.792 10.787A10.018 10.018 0 0010 20a10.026 10.026 0 007.364-3.223 10.006 10.006 0 00-1.895-15.142A10.026 10.026 0 0010 0zm0 18.019a8.018 8.018 0 01-5.56-2.253A6.007 6.007 0 0110 12.042a6.015 6.015 0 015.56 3.724A8.019 8.019 0 0110 18.02zM7.996 8.009a2 2 0 012.395-1.964 2.004 2.004 0 011.46 2.73 2.003 2.003 0 01-3.855-.767zm8.927 6.005a8.014 8.014 0 00-3.917-3.383A4.004 4.004 0 0010 3.978a4.01 4.01 0 00-3.653 2.357 4.001 4.001 0 00.647 4.296 8.013 8.013 0 00-3.917 3.383 7.923 7.923 0 01-1.092-4.004c0-2.124.844-4.16 2.347-5.662a8.019 8.019 0 0111.336 0 8.004 8.004 0 012.347 5.662 7.923 7.923 0 01-1.092 4.005z" fill="currentColor"/></symbol><symbol fill="none" viewBox="0 0 20 20" id="icon-nav-cart" xmlns="http://www.w3.org/2000/svg"><path d="M11.998 16.013c.266 0 .521-.105.71-.292a.993.993 0 00.293-.705v-1.993a.993.993 0 00-.294-.705 1.007 1.007 0 00-1.42 0 .993.993 0 00-.293.705v1.993c0 .265.106.518.294.705.188.187.443.292.71.292zm-4.015 0c.266 0 .522-.105.71-.292a.993.993 0 00.294-.705v-1.993a.993.993 0 00-.294-.705 1.007 1.007 0 00-1.42 0 .993.993 0 00-.294.705v1.993c0 .265.106.518.294.705.189.187.444.292.71.292zm9.033-11.96H15.63L13.894.612a.996.996 0 00-.578-.551 1.01 1.01 0 00-1.121.3.995.995 0 00-.087 1.149l1.274 2.541H6.599l1.275-2.541A.99.99 0 007.399.238a1.01 1.01 0 00-1.313.376L4.35 4.052H2.965c-.71.011-1.392.27-1.928.732a2.973 2.973 0 00-.603 3.804 3.007 3.007 0 001.608 1.285l.742 7.436c.075.74.425 1.426.982 1.923.557.498 1.28.772 2.03.768h8.41a3.023 3.023 0 002.029-.768 2.983 2.983 0 00.981-1.923l.743-7.436a3.007 3.007 0 001.61-1.29 2.973 2.973 0 00-.617-3.808 3.023 3.023 0 00-1.936-.723zm-1.817 13.056a.994.994 0 01-.327.642 1.007 1.007 0 01-.677.255h-8.41c-.25.002-.49-.09-.676-.255a.994.994 0 01-.327-.642l-.713-7.076h11.843l-.713 7.076zm1.817-9.07H2.965c-.266 0-.521-.105-.71-.292a.993.993 0 010-1.41c.189-.186.444-.291.71-.291h14.05c.267 0 .522.105.71.292a.993.993 0 010 1.41 1.007 1.007 0 01-.71.291z" fill="currentColor"/></symbol><symbol fill="none" viewBox="0 0 18 18" id="icon-nav-catalog" xmlns="http://www.w3.org/2000/svg"><rect x="1" y="1" width="5.727" height="5.727" rx="1" stroke="currentColor" stroke-width="2"/><rect x="1" y="10.727" width="5.727" height="5.727" rx="1" stroke="currentColor" stroke-width="2"/><rect x="10.727" y="10.727" width="5.727" height="5.727" rx="1" stroke="currentColor" stroke-width="2"/><rect x="10.727" y="1" width="5.727" height="5.727" rx="1" stroke="currentColor" stroke-width="2"/></symbol><symbol fill="none" viewBox="0 0 21 19" id="icon-nav-compare" xmlns="http://www.w3.org/2000/svg"><path d="M12.923 9.78c0 2.31 1.812 4.191 4.039 4.191a3.94 3.94 0 002.855-1.228A4.245 4.245 0 0021 9.78a.861.861 0 00-.115-.431L18.35 4.964a.84.84 0 00.496-.773c0-.463-.361-.838-.808-.838h-6.73V.838c0-.463-.362-.838-.808-.838-.446 0-.808.375-.808.838v2.515h-6.73c-.446 0-.808.375-.808.838a.84.84 0 00.496.773L.115 9.35a.861.861 0 00-.115.43c0 2.312 1.812 4.192 4.038 4.192 2.227 0 4.039-1.88 4.039-4.191a.862.862 0 00-.115-.431l-2.497-4.32h4.227v12.294H3.5c-.446 0-.808.376-.808.839 0 .463.362.838.808.838h14c.446 0 .808-.375.808-.838 0-.463-.362-.838-.808-.838h-6.192V5.028h4.227l-2.497 4.32a.862.862 0 00-.115.43zm-8.885 2.515c-1.052 0-1.95-.701-2.283-1.677h4.567c-.333.976-1.23 1.677-2.284 1.677zm1.805-3.353H2.234L4.038 5.82l1.805 3.122zM16.962 5.82l1.804 3.122h-3.609l1.805-3.122zm2.284 4.798c-.334.976-1.231 1.677-2.284 1.677-1.053 0-1.951-.701-2.284-1.677h4.567z" fill="currentColor"/></symbol><symbol fill="none" viewBox="0 0 20 20" id="icon-nav-search" xmlns="http://www.w3.org/2000/svg"><path d="M19.72 18.314l-3.709-3.68a9.006 9.006 0 00-1.013-12.336 8.99 8.99 0 00-12.364.338 9.005 9.005 0 005.623 15.337 8.99 8.99 0 006.365-1.95l3.678 3.681a1 1 0 001.42 0 1 1 0 000-1.39zm-10.704-2.29a6.992 6.992 0 01-6.464-4.322 7.006 7.006 0 011.517-7.63 6.994 6.994 0 0111.942 4.95 7.004 7.004 0 01-2.049 4.951 6.993 6.993 0 01-4.946 2.05z" fill="currentColor"/></symbol><symbol fill="none" viewBox="0 0 9 16" id="icon-next" xmlns="http://www.w3.org/2000/svg"><path d="M8.756 7.376L1.938.256a.814.814 0 00-1.185 0L.251.78a.904.904 0 000 1.238l5.725 5.979-5.731 5.985a.89.89 0 00-.245.62.89.89 0 00.245.618l.502.524a.815.815 0 001.185 0l6.824-7.126A.89.89 0 009 7.998a.89.89 0 00-.244-.622z" fill="currentColor"/></symbol><symbol fill="none" viewBox="0 0 25 11" id="icon-payments-apple" xmlns="http://www.w3.org/2000/svg"><path fill-rule="evenodd" clip-rule="evenodd" d="M4.45 1.343c-.286.352-.743.63-1.2.59-.056-.476.167-.981.429-1.294C3.964.278 4.463.02 4.868 0c.047.496-.138.981-.419 1.343zm.413.684c-.402-.024-.77.126-1.066.248-.19.078-.352.144-.475.144-.138 0-.306-.07-.495-.148-.248-.103-.53-.22-.827-.214-.68.01-1.313.411-1.66 1.05C-.374 4.388.154 6.28.844 7.32c.338.516.742 1.08 1.275 1.061.234-.01.402-.084.577-.16.2-.09.41-.182.735-.182.315 0 .514.09.706.176.182.082.357.161.617.156.551-.01.899-.515 1.236-1.03.365-.554.525-1.094.55-1.176l.002-.01-.013-.006c-.122-.058-1.053-.502-1.062-1.693-.009-1 .739-1.507.856-1.586a.356.356 0 00.014-.01c-.475-.734-1.217-.813-1.474-.833zm3.82 6.29V.59h2.782c1.436 0 2.44 1.03 2.44 2.537s-1.023 2.548-2.478 2.548H9.833v2.642h-1.15zM9.832 1.6h1.327c1 0 1.57.555 1.57 1.531 0 .977-.57 1.537-1.574 1.537H9.833V1.6zm7.872 5.789c-.304.605-.975.986-1.698.986-1.07 0-1.817-.664-1.817-1.665 0-.991.723-1.561 2.06-1.646l1.436-.089V4.55c0-.63-.395-.972-1.099-.972-.58 0-1.003.313-1.089.789h-1.037c.034-1.002.937-1.73 2.16-1.73 1.317 0 2.174.718 2.174 1.834v3.846h-1.066V7.39h-.024zm-1.389.07c-.613 0-1.003-.308-1.003-.779 0-.486.375-.768 1.094-.813l1.28-.084v.436c0 .724-.59 1.24-1.37 1.24zm6.012 1.159c-.461 1.353-.989 1.8-2.111 1.8-.086 0-.371-.01-.438-.03v-.927c.071.01.247.02.338.02.509 0 .794-.224.97-.804l.105-.342-1.95-5.625h1.203L21.8 7.276h.024L23.18 2.71h1.17L22.328 8.62z" fill="currentColor"/></symbol><symbol fill="none" viewBox="0 0 26 11" id="icon-payments-google" xmlns="http://www.w3.org/2000/svg"><path fill-rule="evenodd" clip-rule="evenodd" d="M12.058 8.528V5.594h1.514c.621 0 1.145-.208 1.572-.618l.103-.104c.78-.85.728-2.173-.103-2.958a2.162 2.162 0 00-1.572-.63h-2.43v7.244h.916zm0-3.824v-2.53h1.538c.33 0 .643.127.877.358.495.485.506 1.294.028 1.796a1.19 1.19 0 01-.905.376h-1.538zm7.465-.745c-.393-.364-.928-.549-1.606-.549-.871 0-1.526.323-1.959.965l.809.514c.296-.44.7-.659 1.213-.659.324 0 .637.122.882.341.24.208.376.509.376.826v.214c-.353-.196-.797-.3-1.344-.3-.637 0-1.15.15-1.531.456-.382.306-.575.71-.575 1.225-.012.468.187.912.54 1.213.36.323.815.485 1.35.485.632 0 1.133-.283 1.515-.85h.04v.688h.876V5.472c0-.64-.193-1.15-.586-1.513zm-2.488 3.657a.753.753 0 01-.302-.607c0-.272.125-.497.37-.676.25-.179.564-.271.934-.271.512-.006.911.11 1.196.34 0 .393-.154.734-.456 1.023a1.446 1.446 0 01-1.03.433 1.11 1.11 0 01-.712-.242zm5.044 3.09l3.064-7.134h-.997L22.73 7.13h-.017l-1.453-3.558h-.996l2.01 4.639-1.139 2.495h.945z" fill="currentColor"/><path d="M8.893 4.958c0-.283-.023-.566-.068-.843H4.958v1.6h2.215a1.928 1.928 0 01-.82 1.265v1.04h1.321c.775-.722 1.219-1.79 1.219-3.062z" fill="#4285F4"/><path d="M4.959 9.025c1.104 0 2.038-.37 2.716-1.005L6.354 6.98c-.37.254-.843.399-1.395.399-1.07 0-1.976-.734-2.3-1.716H1.296v1.075A4.09 4.09 0 004.96 9.025z" fill="#34A853"/><path d="M2.658 5.663a2.544 2.544 0 010-1.595V3h-1.36a4.177 4.177 0 000 3.731l1.36-1.068z" fill="#FBBC04"/><path d="M4.959 2.353a2.19 2.19 0 011.571.624l1.173-1.19A3.926 3.926 0 004.96.707c-1.55 0-2.967.889-3.662 2.293l1.361 1.074c.325-.988 1.23-1.721 2.3-1.721z" fill="#EA4335"/></symbol><symbol fill="none" viewBox="0 0 23 14" id="icon-payments-mastercard" xmlns="http://www.w3.org/2000/svg"><path fill-rule="evenodd" clip-rule="evenodd" d="M11.179 11.83a6.802 6.802 0 01-4.398 1.6c-3.745 0-6.781-3-6.781-6.7S3.036.03 6.78.03c1.679 0 3.215.602 4.399 1.6a6.802 6.802 0 014.398-1.6c3.745 0 6.781 3 6.781 6.7s-3.036 6.7-6.78 6.7a6.802 6.802 0 01-4.399-1.6z" fill="#ED0006"/><path fill-rule="evenodd" clip-rule="evenodd" d="M11.179 11.83a6.653 6.653 0 002.382-5.1c0-2.042-.924-3.87-2.382-5.1a6.802 6.802 0 014.398-1.6c3.745 0 6.78 3 6.78 6.7s-3.035 6.7-6.78 6.7a6.802 6.802 0 01-4.398-1.6z" fill="#F9A000"/><path fill-rule="evenodd" clip-rule="evenodd" d="M11.179 11.83a6.653 6.653 0 002.382-5.1c0-2.042-.924-3.87-2.382-5.1a6.653 6.653 0 00-2.382 5.1c0 2.042.924 3.87 2.382 5.1z" fill="#FF5E00"/></symbol><symbol fill="none" viewBox="0 0 25 8" id="icon-payments-visa" xmlns="http://www.w3.org/2000/svg"><path fill-rule="evenodd" clip-rule="evenodd" d="M6.75 7.758H4.69L3.147 1.692c-.073-.279-.229-.525-.458-.642A6.573 6.573 0 00.8.408V.175h3.318c.458 0 .802.35.859.758l.801 4.376L7.837.175h2.002L6.75 7.758zm4.234 0H9.04L10.641.175h1.945l-1.602 7.583zm4.119-5.482c.057-.409.4-.642.801-.642a3.535 3.535 0 011.888.35L18.136.35A4.8 4.8 0 0016.362 0C14.474 0 13.1 1.05 13.1 2.508c0 1.11.973 1.692 1.66 2.042.744.35 1.03.584.972.934 0 .524-.572.758-1.143.758a4.789 4.789 0 01-2.003-.467l-.343 1.633c.687.292 1.43.409 2.117.409 2.117.058 3.432-.992 3.432-2.567 0-1.984-2.69-2.1-2.69-2.974zM24.6 7.758L23.055.175h-1.659a.862.862 0 00-.8.583l-2.861 7h2.002l.4-1.108h2.46l.23 1.108H24.6zm-2.917-5.54l.571 2.857h-1.602l1.03-2.858z" fill="currentColor"/></symbol><symbol fill="none" viewBox="0 0 9 16" id="icon-prev" xmlns="http://www.w3.org/2000/svg"><path d="M.244 7.376L7.062.256a.814.814 0 011.185 0l.502.524a.904.904 0 010 1.238L3.024 7.997l5.731 5.985a.89.89 0 01.245.62.89.89 0 01-.245.618l-.502.524a.815.815 0 01-1.185 0L.244 8.618A.89.89 0 010 7.998a.89.89 0 01.244-.622z" fill="currentColor"/></symbol><symbol fill="none" viewBox="0 0 16 10" id="icon-repeat" xmlns="http://www.w3.org/2000/svg"><path d="M8 0C3.44 0 0 1.79 0 4.165c0 2.04 2.552 3.648 6.168 4.064l-.336.342a.836.836 0 00-.237.591.863.863 0 00.237.592A.799.799 0 006.4 10a.773.773 0 00.568-.246l1.6-1.666a.838.838 0 00.168-.275.865.865 0 000-.633.838.838 0 00-.168-.275l-1.6-1.666a.787.787 0 00-.568-.245.787.787 0 00-.568.245.854.854 0 00-.235.592c0 .221.084.434.235.59l.096.093C3.2 6.114 1.6 4.998 1.6 4.164c0-1.016 2.496-2.498 6.4-2.498 3.904 0 6.4 1.482 6.4 2.499 0 .691-1.16 1.666-3.368 2.165a.783.783 0 00-.293.125.818.818 0 00-.223.233.853.853 0 00-.116.633.849.849 0 00.348.527.783.783 0 00.604.115C14.272 7.296 16 5.88 16 4.165 16 1.79 12.56 0 8 0z" fill="#343434"/></symbol><symbol fill="none" viewBox="0 0 16 13" id="icon-replace" xmlns="http://www.w3.org/2000/svg"><path d="M15.485 6.5c0 3.584-2.915 6.5-6.5 6.5a1.147 1.147 0 010-2.294A4.211 4.211 0 0013.191 6.5a4.211 4.211 0 00-4.206-4.206c-2.2 0-4.01 1.7-4.188 3.857l.7-.7A1.146 1.146 0 117.12 7.071l-2.581 2.58a1.149 1.149 0 01-1.622 0l-2.58-2.58A1.146 1.146 0 111.957 5.45l.553.552C2.766 2.65 5.569 0 8.985 0c3.585 0 6.5 2.916 6.5 6.5z" fill="currentColor"/></symbol><symbol fill="none" viewBox="0 0 9 9" id="icon-reset" xmlns="http://www.w3.org/2000/svg"><path d="M3.675 4.5L.171.995A.582.582 0 11.996.171L4.5 3.675 8.004.171a.582.582 0 11.825.824L5.325 4.5l3.504 3.505a.582.582 0 11-.825.824L4.5 5.324.996 8.83a.581.581 0 01-.825 0 .582.582 0 010-.824L3.675 4.5z" fill="currentColor"/></symbol><symbol fill="none" viewBox="0 0 20 20" id="icon-search" xmlns="http://www.w3.org/2000/svg"><path d="M19.361 18.217l-4.76-4.95a8.049 8.049 0 001.894-5.192C16.495 3.623 12.873 0 8.42 0 3.968 0 .345 3.623.345 8.075c0 4.453 3.623 8.075 8.075 8.075a7.989 7.989 0 004.627-1.461l4.796 4.988c.2.208.47.323.759.323a1.054 1.054 0 00.759-1.783zM8.421 2.107a5.975 5.975 0 015.968 5.968 5.975 5.975 0 01-5.969 5.969 5.975 5.975 0 01-5.968-5.969A5.975 5.975 0 018.42 2.107z" fill="currentColor"/></symbol><symbol fill="none" viewBox="0 0 62 62" id="icon-set" xmlns="http://www.w3.org/2000/svg"><circle cx="31" cy="31" r="28.5" fill="#7266F3" stroke="#F7F7FB" stroke-width="5"/><path d="M38 30h-6v-6a1 1 0 00-2 0v6h-6a1 1 0 000 2h6v6a1 1 0 002 0v-6h6a1 1 0 000-2z" fill="#fff"/></symbol><symbol fill="none" viewBox="0 0 14 14" id="icon-share" xmlns="http://www.w3.org/2000/svg"><path d="M12.598 6.957h-.99a.37.37 0 00-.37.37v4.509c0 .239-.195.434-.434.434h-8.64a.434.434 0 01-.434-.434v-8.64c0-.24.195-.434.434-.434h4.74a.37.37 0 00.37-.37v-.99a.37.37 0 00-.37-.37h-4.74A2.167 2.167 0 000 3.195v8.64C0 13.029.97 14 2.164 14h8.64a2.167 2.167 0 002.164-2.164V7.327a.37.37 0 00-.37-.37z" fill="#fff"/><path d="M13.629 0H9.696a.37.37 0 00-.371.37v.99c0 .204.166.37.37.37h1.35L5.967 6.81a.37.37 0 000 .524l.7.7a.37.37 0 00.524 0l5.08-5.08v1.35c0 .204.165.37.37.37h.989a.37.37 0 00.37-.37V.37A.37.37 0 0013.63 0z" fill="#fff"/></symbol><symbol fill="none" viewBox="0 0 24 24" id="icon-social-telegram" xmlns="http://www.w3.org/2000/svg"><circle cx="12" cy="12" r="12" fill="#1D9DDE"/><path d="M16.99 7.95c.093-.633-.48-1.133-1.018-.886L5.274 11.985c-.386.177-.357.789.042.922l2.206.736c.421.14.877.068 1.245-.198l4.974-3.6c.15-.11.314.114.186.253l-3.58 3.867c-.348.375-.28 1.01.139 1.285l4.008 2.634c.45.295 1.028-.001 1.112-.57L16.99 7.95z" fill="#fff"/></symbol><symbol fill="none" viewBox="0 0 24 24" id="icon-social-viber" xmlns="http://www.w3.org/2000/svg"><circle cx="12" cy="12" r="12" fill="#9179EE"/><path d="M9.14 11.078l-.04.022-.036.029a1.082 1.082 0 00-.274 1.318c.217.45.705 1.384 1.568 2.09.836.684 1.73 1.054 2.327 1.176l.05.01h.038s0 0 0 0l.02.004.032.005.017.003c.179.031.665.116 1.073-.28l-.348-.36.348.36c.224-.218.429-.444.525-.555a.421.421 0 01.384-.053c.471.155 1.04.51 1.322.695.216.141.708.484.931.641h-.001l.013.013c.009.011.016.023.02.032a.054.054 0 01.004.022.133.133 0 01-.016.054c-.071.148-.31.465-.644.747-.342.29-.675.449-.918.449h.006s-.04-.005-.138-.026a6.493 6.493 0 01-.423-.111 13.298 13.298 0 01-1.371-.493c-1.096-.46-2.474-1.186-3.762-2.254-.805-.667-1.568-1.593-2.165-2.466-.605-.883-1-1.652-1.103-1.99l-.011-.038-.017-.035a.63.63 0 01-.051-.244c0-.103.025-.189.085-.258.289-.338.587-.66 1.254-.975a.553.553 0 01.207-.045c.058-.001.082.009.087.01.26.223.66.613.928.944a17.953 17.953 0 01.636.84c.032.046.05.074.058.088l.002.012c.005.026.007.06.004.095-.006.071-.028.109-.051.13a3.478 3.478 0 01-.57.394z" fill="#fff" stroke="#fff" stroke-linecap="round"/></symbol><symbol fill="none" viewBox="0 0 24 24" id="icon-social-whatsapp" xmlns="http://www.w3.org/2000/svg"><circle cx="12" cy="12" r="12" fill="#4FCA5D"/><path d="M9.05 7.5C8.775 6.953 8.357 7 7.934 7 7.179 7.001 6 7.905 6 9.587c0 1.379.609 2.888 2.66 5.145 1.978 2.178 4.578 3.305 6.737 3.267C17.556 17.961 18 16.106 18 15.48c0-.277-.173-.416-.291-.454-.736-.352-2.093-1.009-2.402-1.132-.308-.123-.47.044-.57.134-.28.267-.835 1.051-1.024 1.228-.19.176-.474.087-.592.02-.434-.173-1.61-.695-2.547-1.603-1.16-1.122-1.228-1.508-1.446-1.851-.175-.275-.047-.444.017-.518.25-.287.595-.732.75-.952.154-.221.032-.556-.042-.765-.317-.898-.586-1.65-.804-2.087z" fill="#fff"/></symbol><symbol fill="none" viewBox="0 0 15 14" id="icon-star" xmlns="http://www.w3.org/2000/svg"><path d="M14.975 5.293a.733.733 0 00-.248-.338.76.76 0 00-.396-.152l-4.262-.607L8.159.413a.738.738 0 00-.276-.301.762.762 0 00-1.072.3L4.9 4.189.64 4.803a.758.758 0 00-.376.164.731.731 0 00-.23.333.715.715 0 00.187.732L3.313 8.96l-.749 4.156a.716.716 0 00.032.413c.052.132.14.246.257.33a.76.76 0 00.812.047l3.82-1.953 3.82 1.953a.709.709 0 00.344.088.76.76 0 00.702-.462.716.716 0 00.04-.409l-.75-4.156 3.094-2.926a.715.715 0 00.24-.746zM10.369 8.22a.729.729 0 00-.218.644l.54 3.073-2.817-1.463a.81.81 0 00-.704 0l-2.816 1.463.54-3.073a.716.716 0 00-.218-.644L2.43 6.025l3.154-.446a.759.759 0 00.569-.403l1.333-2.788 1.408 2.795c.054.108.134.2.233.27.1.071.215.116.336.133l3.154.446-2.247 2.188z" fill="currentColor"/></symbol><symbol fill="none" viewBox="0 0 14 14" id="icon-star-fill" xmlns="http://www.w3.org/2000/svg"><g clip-path="url(#dhclip0_360:1062)"><path d="M13.963 5.37a.743.743 0 00-.64-.511l-4.04-.367L7.684.752a.744.744 0 00-1.37 0L4.72 4.493l-4.042.367A.745.745 0 00.254 6.16L3.309 8.84l-.901 3.967a.744.744 0 001.107.804L7 11.528l3.484 2.083a.744.744 0 001.108-.804l-.9-3.967 3.054-2.68a.745.745 0 00.217-.79z" fill="#343434"/></g><defs><clipPath id="dhclip0_360:1062"><path fill="#fff" d="M0 0h14v14H0z"/></clipPath></defs></symbol><symbol fill="none" viewBox="0 0 14 14" id="icon-stock" xmlns="http://www.w3.org/2000/svg"><path d="M3.291 5.911a2.624 2.624 0 100-5.248 2.624 2.624 0 000 5.248zm0-3.499a.875.875 0 110 1.75.875.875 0 010-1.75zm7.422 5.673a2.624 2.624 0 100 5.248 2.624 2.624 0 000-5.248zm0 3.499a.874.874 0 110-1.748.874.874 0 010 1.748zM13.743.256a.874.874 0 00-1.236 0L.26 12.503a.875.875 0 101.237 1.237L13.744 1.493a.874.874 0 000-1.237z" fill="currentColor"/></symbol><symbol fill="none" viewBox="0 0 22 22" id="icon-subsc" xmlns="http://www.w3.org/2000/svg"><path d="M13.842 5.254L2.892 8.902a2.211 2.211 0 00-.092 4.16l4.051 1.55a.782.782 0 01.428.427l1.55 4.052a2.214 2.214 0 003.628.772c.242-.246.425-.544.537-.87l3.648-10.95a2.212 2.212 0 00-2.795-2.794l-.005.005zm1.397 2.326l-3.648 10.948a.737.737 0 01-1.381.026l-1.555-4.046a1.479 1.479 0 00-.073-.157l3.592-3.592a.737.737 0 10-1.043-1.042L7.54 13.308a1.477 1.477 0 00-.156-.073l-4.047-1.554a.738.738 0 01.026-1.382l10.95-3.648a.738.738 0 01.927.929z" fill="#fff"/></symbol><symbol fill="none" viewBox="0 0 20 12" id="icon-toggle" xmlns="http://www.w3.org/2000/svg"><path d="M1 2h18a1 1 0 100-2H1a1 1 0 000 2zm18 8H1a1 1 0 000 2h18a1 1 0 000-2zm0-5H1a1 1 0 000 2h18a1 1 0 100-2z" fill="currentColor"/></symbol><symbol fill="none" viewBox="0 0 16 9" id="icon-up" xmlns="http://www.w3.org/2000/svg"><path d="M7.376.244L.256 7.062a.814.814 0 000 1.185l.524.502a.904.904 0 001.238 0l5.979-5.725 5.985 5.731a.89.89 0 00.62.245.89.89 0 00.618-.245l.524-.502a.815.815 0 000-1.185L8.618.244A.89.89 0 007.998 0a.89.89 0 00-.622.244z" fill="#343434"/></symbol><symbol fill="none" viewBox="0 0 20 20" id="icon-valid" xmlns="http://www.w3.org/2000/svg"><path d="M12.72 6.79l-4.29 4.3-1.65-1.65a1 1 0 10-1.41 1.41l2.35 2.36a1 1 0 001.41 0l5-5a1 1 0 10-1.41-1.42zM10 0a10 10 0 100 20 10 10 0 000-20zm0 18a8 8 0 110-16 8 8 0 010 16z" fill="#13D154"/></symbol><symbol fill="none" viewBox="0 0 44 31" id="icon-video" xmlns="http://www.w3.org/2000/svg"><path fill="#fff" d="M17 9h12v13H17z"/><path d="M42.285 2.658C40.697.77 37.765 0 32.165 0h-20.33C6.107 0 3.125.82 1.543 2.83 0 4.79 0 7.677 0 11.674v7.618c0 7.742 1.83 11.673 11.835 11.673h20.33c4.856 0 7.547-.68 9.288-2.345C43.238 26.91 44 24.12 44 19.292v-7.618c0-4.215-.12-7.12-1.715-9.016zM28.248 16.535l-9.231 4.824a1.417 1.417 0 01-1.393-.044 1.42 1.42 0 01-.684-1.214v-9.618a1.42 1.42 0 012.074-1.26l9.23 4.794a1.42 1.42 0 01.004 2.518z" fill="red"/></symbol><symbol fill="none" viewBox="0 0 22 14" id="icon-view" xmlns="http://www.w3.org/2000/svg"><path d="M21.86 6.573C21.664 6.304 16.98 0 11 0 5.019 0 .336 6.304.14 6.573a.724.724 0 000 .854C.336 7.696 5.019 14 11 14c5.98 0 10.664-6.304 10.86-6.573a.723.723 0 000-.854zM11 12.552c-4.406 0-8.221-4.185-9.35-5.552C2.776 5.63 6.584 1.448 11 1.448c4.405 0 8.22 4.184 9.35 5.552-1.127 1.37-4.935 5.552-9.35 5.552z" fill="currentColor"/><path d="M11 2.655c-2.4 0-4.352 1.95-4.352 4.345A4.353 4.353 0 0011 11.345c2.4 0 4.351-1.95 4.351-4.345A4.353 4.353 0 0011 2.655zm0 7.242c-1.6 0-2.901-1.3-2.901-2.897A2.902 2.902 0 0113.9 7 2.902 2.902 0 0111 9.897z" fill="currentColor"/></symbol><symbol fill="none" viewBox="0 0 19 12" id="icon-views" xmlns="http://www.w3.org/2000/svg"><path d="M18.88 5.634C18.71 5.404 14.664 0 9.5 0 4.335 0 .29 5.404.12 5.634a.617.617 0 000 .732C.29 6.596 4.336 12 9.5 12c5.165 0 9.21-5.404 9.38-5.634a.616.616 0 000-.732zM9.5 10.759c-3.805 0-7.1-3.587-8.076-4.76.974-1.173 4.263-4.758 8.076-4.758 3.805 0 7.1 3.586 8.076 4.76-.975 1.173-4.263 4.758-8.076 4.758z" fill="currentColor"/><path d="M9.5 2.276C7.426 2.276 5.74 3.946 5.74 6c0 2.053 1.686 3.724 3.758 3.724 2.073 0 3.759-1.67 3.759-3.724 0-2.053-1.686-3.724-3.759-3.724zm0 6.207C8.117 8.483 6.993 7.369 6.993 6s1.124-2.483 2.505-2.483c1.382 0 2.506 1.114 2.506 2.483s-1.124 2.483-2.506 2.483z" fill="currentColor"/></symbol><symbol id="icon-chat-email" viewBox="0 0 20 20"><path fill="#54aaff" style="fill: var(--color1, #54aaff)" d="M9.993-0.003c0.001 0 0.002 0 0.003 0 5.523 0 10 4.477 10 10s-4.477 10-10 10c-5.523 0-10-4.477-10-10v0c0-5.522 4.475-9.998 9.996-10h0z"></path><path fill="#fff" style="fill: var(--color2, #fff)" d="M14.397 6h-8.793c-0.519 0.008-0.937 0.43-0.937 0.951 0 0.004 0 0.008 0 0.012v-0.001 6.41c-0 0.003-0 0.007-0 0.010 0 0.52 0.418 0.943 0.936 0.952l0.001 0h8.793c0.519-0.008 0.937-0.431 0.937-0.952 0-0.004-0-0.007-0-0.011v0.001-6.41c0-0.003 0-0.007 0-0.010 0-0.52-0.418-0.943-0.936-0.952l-0.001-0zM14.267 6.641l-4.247 4.355-4.283-4.355h8.53zM5.29 13.239v-6.148l3.010 3.061zM5.733 13.692l3.013-3.089 1.053 1.073c0.056 0.058 0.135 0.093 0.222 0.093s0.165-0.036 0.222-0.093l1.027-1.055 2.997 3.072h-8.533zM14.707 13.239l-2.993-3.072 2.993-3.072v6.145z"></path></symbol><symbol id="icon-social-email" viewBox="0 0 20 20"><path fill="#54aaff" style="fill: var(--color1, #54aaff)" d="M9.993-0.003c0.001 0 0.002 0 0.003 0 5.523 0 10 4.477 10 10s-4.477 10-10 10c-5.523 0-10-4.477-10-10v0c0-5.522 4.475-9.998 9.996-10h0z"></path><path fill="#fff" style="fill: var(--color2, #fff)" d="M14.397 6h-8.793c-0.519 0.008-0.937 0.43-0.937 0.951 0 0.004 0 0.008 0 0.012v-0.001 6.41c-0 0.003-0 0.007-0 0.010 0 0.52 0.418 0.943 0.936 0.952l0.001 0h8.793c0.519-0.008 0.937-0.431 0.937-0.952 0-0.004-0-0.007-0-0.011v0.001-6.41c0-0.003 0-0.007 0-0.010 0-0.52-0.418-0.943-0.936-0.952l-0.001-0zM14.267 6.641l-4.247 4.355-4.283-4.355h8.53zM5.29 13.239v-6.148l3.010 3.061zM5.733 13.692l3.013-3.089 1.053 1.073c0.056 0.058 0.135 0.093 0.222 0.093s0.165-0.036 0.222-0.093l1.027-1.055 2.997 3.072h-8.533zM14.707 13.239l-2.993-3.072 2.993-3.072v6.145z"></path></symbol><symbol id="icon-social-messenger" viewBox="0 0 24 24"><path fill="#1877f2" style="fill: var(--color1, #1877f2)" d="M0 12c0 6.627 5.373 12 12 12s12-5.373 12-12c0-6.627-5.373-12-12-12s-12 5.373-12 12z"></path><path fill="#fff" style="fill: var(--color2, #fff)" d="M18 12c0-3.3-2.7-6-6-6s-6 2.7-6 6c0 3 2.175 5.475 5.025 5.925v-4.2h-1.5v-1.725h1.5v-1.35c0-1.5 0.9-2.325 2.25-2.325 0.675 0 1.35 0.15 1.35 0.15v1.5h-0.75c-0.75 0-0.975 0.45-0.975 0.9v1.125h1.65l-0.3 1.725h-1.425v4.275c3-0.45 5.175-3 5.175-6z"></path></symbol><symbol id="icon-social-skype" viewBox="0 0 24 24"><path fill="#0078d7" style="fill: var(--color3, #0078d7)" d="M0 12c0 6.627 5.373 12 12 12s12-5.373 12-12c0-6.627-5.373-12-12-12s-12 5.373-12 12z"></path><path fill="#fff" style="fill: var(--color2, #fff)" d="M12 15.6c-2.025 0-2.925-1.050-2.925-1.8 0-0.15 0.075-0.375 0.225-0.45 0.15-0.15 0.3-0.15 0.45-0.15 0.825 0 0.6 1.275 2.25 1.275 0.825 0 1.275-0.525 1.275-0.975 0-0.3-0.15-0.6-0.675-0.75l-1.8-0.45c-1.425-0.375-1.65-1.2-1.65-1.875 0-1.575 1.425-2.1 2.775-2.1 1.2 0 2.7 0.675 2.7 1.575 0 0.375-0.3 0.6-0.75 0.6-0.75 0-0.6-1.050-2.1-1.050-0.75 0-1.125 0.375-1.125 0.825s0.6 0.675 1.050 0.75l1.35 0.3c1.425 0.3 1.8 1.2 1.8 1.95 0 1.425-0.975 2.325-2.85 2.325zM17.55 12.975c0.075-0.3 0.075-0.675 0.075-0.975 0-1.65-0.75-3.225-2.025-4.35s-3-1.5-4.65-1.275c-0.45-0.225-1.050-0.375-1.65-0.375-1.2 0-2.325 0.675-2.925 1.725s-0.6 2.325 0 3.375c-0.3 1.8 0.225 3.675 1.575 5.025 1.275 1.275 3.15 1.875 4.95 1.575 0.525 0.3 1.050 0.45 1.65 0.45 1.2 0 2.325-0.675 2.925-1.725 0.6-1.125 0.675-2.4 0.075-3.45z"></path></symbol><symbol id="icon-social-vk" viewBox="0 0 24 24"><path fill="#fff" style="fill: var(--color2, #fff)" d="M24 12c0-6.627-5.373-12-12-12s-12 5.373-12 12c0 6.627 5.373 12 12 12s12-5.373 12-12z"></path><path fill="#07f" style="fill: var(--color4, #07f)" d="M6 11.76c0-2.716 0-4.072 0.84-4.92 0.852-0.84 2.208-0.84 4.92-0.84h0.48c2.716 0 4.072 0 4.92 0.84 0.84 0.852 0.84 2.208 0.84 4.92v0.48c0 2.716 0 4.072-0.84 4.92-0.852 0.84-2.208 0.84-4.92 0.84h-0.48c-2.716 0-4.072 0-4.92-0.84-0.84-0.852-0.84-2.208-0.84-4.92v-0.48z"></path><path fill="#fff" style="fill: var(--color2, #fff)" d="M12.384 14.644c-2.736 0-4.296-1.872-4.36-4.992h1.376c0.044 2.288 1.052 3.256 1.852 3.456v-3.456h1.292v1.972c0.788-0.084 1.62-0.984 1.9-1.976h1.288c-0.105 0.514-0.315 1-0.616 1.429s-0.688 0.791-1.136 1.063c0.5 0.249 0.941 0.6 1.294 1.032s0.612 0.933 0.758 1.472h-1.42c-0.304-0.948-1.064-1.684-2.068-1.784v1.784h-0.16z"></path></symbol></svg>