<?xml version="1.0" ?><!DOCTYPE svg  PUBLIC '-//W3C//DTD SVG 1.1//EN'  'http://www.w3.org/Graphics/SVG/1.1/DTD/svg11.dtd'><svg enable-background="new 0 0 512 512" height="512px" version="1.1" viewBox="0 0 512 512" width="512px" xml:space="preserve" xmlns="http://www.w3.org/2000/svg" xmlns:xlink="http://www.w3.org/1999/xlink"><g id="Layer_2"><circle cx="255.927" cy="256.414" fill="#00AEEF" r="251.623"/><circle cx="255.928" cy="256.414" fill="#66CEF6" r="206.335"/><g><g><path clip-rule="evenodd" d="M251.99,214.228l-22.882-15.087l-13.632,21.657l23.126,15.33     L251.99,214.228z M255.738,200.219c-0.679-4.011-6.425-8.135-6.425-8.135s-5.037-3.33-9.467-3.018     c-5.917,0.417-9.278,7.398-9.278,7.398l22.396,14.6C252.964,211.063,256.514,204.808,255.738,200.219z M188.227,254.864     l-43.345-0.244l0.122,42.947h17.74L188.227,254.864z M303.243,280.896l16.892-9.844c0,0-33.397-65.692-54.921-99.146     c-16.68-25.923-21.988-21.918-21.988-21.918s-6.303,0.616,7.695,31.919C281.608,250.537,303.243,280.896,303.243,280.896z      M366.887,297.203l-0.121-42.583l-48.602,0.122l20.713,42.584L366.887,297.203z M321.854,274.573l-16.674,9.734l15.092,25.306     l14.604-9.004L321.854,274.573z M234.959,254.62l-26.102,42.827l97.823-0.121l-25.723-42.827L234.959,254.62z M213.528,223.961     l-52.093,88.087l22.395,15.329l53.311-88.086L213.528,223.961z M149.75,358.523l31.159-25.793l-22.152-15.33L149.75,358.523z      M337.067,305.72l-13.754,8.03c0,0,8.937,30.952,19.077,44.106c5.572,7.23,15.49,1.396,15.49,1.396s9.523-6.347,5.248-14.251     C348.452,317.863,337.067,305.72,337.067,305.72z" fill="#FFFFFF" fill-rule="evenodd"/></g></g></g></svg>