<?xml version="1.0" encoding="utf-8"?>
<!-- Generator: Adobe Illustrator 25.0.1, SVG Export Plug-In . SVG Version: 6.00 Build 0)  -->
<svg version="1.0" id="Layer_1" xmlns="http://www.w3.org/2000/svg" xmlns:xlink="http://www.w3.org/1999/xlink" x="0px" y="0px"
	 viewBox="0 0 298 230" style="enable-background:new 0 0 298 230;" xml:space="preserve">
<style type="text/css">
	.st0{fill:#EF4977;}
	.st1{fill:#FFFFFF;}
</style>
<path class="st0" d="M149,35.3L149,35.3c44,0,79.7,35.7,79.7,79.7v0c0,44-35.7,79.7-79.7,79.7h0c-44,0-79.7-35.7-79.7-79.7v0
	C69.3,71,105,35.3,149,35.3z"/>
<path class="st1" d="M164,92.7l-1.5,7.2c-0.2,0.8-1,1.4-1.8,1.5h-13c-1.5,0-2.7,1.2-2.7,2.6c0,0,0,0,0,0.1v1.6
	c0,1.5,1.2,2.7,2.6,2.7c0,0,0,0,0.1,0h11c1,0,1.7,0.8,1.7,1.7c0,0.1,0,0.2,0,0.4c-0.2,1.1-1.4,6.8-1.5,7.4c-0.2,0.8-1,1.4-1.8,1.4
	h-9c-1.9,0.1-2.3,0.1-3.4,1.4s-11,13.8-11,13.8s-0.2,0.1-0.2-0.1v-42c0-1,0.8-1.8,1.8-1.8h27c1,0,1.7,0.8,1.7,1.7
	C164,92.5,164,92.6,164,92.7 M166,83.7h-33.5c-4.6,0-6,3.5-6,5.6v53.1c0,2.7,1.4,3.4,2.1,3.7c1.4,0.4,2.9,0.1,4-0.9
	c0,0,15.8-18.5,16.1-18.8c0.1-0.2,0.3-0.3,0.6-0.3h10c4.3,0,5.1-2.9,5.5-4.8c0.4-1.5,4.8-22.9,6.2-29.8
	C172.2,86.4,170.9,83.7,166,83.7L166,83.7z"/>
</svg>
