<svg width="24" height="24" viewBox="0 0 24 24" fill="none" xmlns="http://www.w3.org/2000/svg">
<circle cx="12" cy="12" r="12" fill="#9179EE"/>
<path d="M9.1406 11.0781L9.1001 11.1L9.06427 11.1288C8.83631 11.3125 8.48973 11.8208 8.79046 12.4468C9.00682 12.8972 9.49491 13.8309 10.3578 14.5368C11.1938 15.2208 12.0884 15.591 12.6846 15.7134L12.7344 15.7237H12.7732C12.7732 15.7237 12.7732 15.7237 12.7732 15.7237L12.7932 15.7267L12.8247 15.732C12.83 15.7329 12.8357 15.7339 12.8417 15.735C13.0206 15.766 13.5071 15.8506 13.9152 15.4545L13.567 15.0957L13.9152 15.4545C14.1392 15.2371 14.3439 15.0112 14.4402 14.9004C14.4457 14.8962 14.4547 14.8898 14.4674 14.8822C14.4916 14.8678 14.523 14.8529 14.5596 14.8418C14.6297 14.8204 14.7182 14.8124 14.8244 14.8473C15.2951 15.0023 15.8641 15.3566 16.1464 15.5417C16.3624 15.6832 16.8543 16.0265 17.0775 16.1835C17.0762 16.1825 17.0757 16.1821 17.0758 16.1823C17.0762 16.1826 17.0815 16.1871 17.0887 16.1958C17.0978 16.207 17.1046 16.2186 17.1085 16.2285C17.112 16.2373 17.113 16.2439 17.1129 16.2502C17.1128 16.2556 17.1117 16.2727 17.0968 16.3038C17.0257 16.4519 16.7877 16.7685 16.4529 17.0512C16.1106 17.3404 15.7777 17.5 15.5345 17.5C15.5387 17.5 15.5409 17.5 15.5409 17.4998C15.541 17.4991 15.5013 17.495 15.403 17.4735C15.2988 17.4507 15.1561 17.4145 14.9802 17.363C14.629 17.2601 14.1559 17.099 13.6088 16.8698C12.513 16.4107 11.1352 15.6842 9.84692 14.6162C9.04233 13.9492 8.27868 13.0225 7.68161 12.1505C7.07689 11.2673 6.68238 10.498 6.57931 10.1596L6.56786 10.122L6.55069 10.0867C6.53276 10.0498 6.50064 9.95288 6.50001 9.84258C6.49943 9.73996 6.52522 9.65429 6.58493 9.58459C6.87387 9.24735 7.17167 8.92419 7.83858 8.60996C7.88508 8.58805 7.96667 8.56582 8.04622 8.56457C8.1037 8.56367 8.12835 8.57352 8.13305 8.57544C8.39315 8.79816 8.79349 9.18824 9.06122 9.5185C9.20255 9.69285 9.37392 9.91503 9.51669 10.1081C9.58809 10.2046 9.65047 10.2914 9.69745 10.3596C9.72869 10.405 9.74653 10.4328 9.75522 10.4465C9.75593 10.45 9.7567 10.4542 9.75746 10.459C9.76163 10.4854 9.76371 10.5191 9.76082 10.5538C9.75486 10.6254 9.73282 10.6626 9.70966 10.6832C9.51468 10.8572 9.24509 11.0217 9.1406 11.0781Z" fill="white" stroke="white" stroke-linecap="round"/>
</svg>
