<svg width="115" height="43" viewBox="0 0 115 43" fill="none" xmlns="http://www.w3.org/2000/svg">
<g clip-path="url(#clip0_254_3244)">
<path d="M16.8597 21.4761L5.98248 42.9523H0L21.7545 0H27.6731L27.7051 0.0629967L16.8597 21.4761ZM31.5092 7.5868L21.7545 26.8452H41.2479L31.5092 7.5868ZM18.4913 33.288L13.5966 42.9523H49.3928L44.5053 33.288H18.4913ZM65.378 12.3488C65.378 5.52939 59.7784 0 52.8692 0H35.3162L35.2843 0.0629967L38.3401 6.09636H52.1005V6.10925C52.2311 6.10065 52.3616 6.09636 52.4936 6.09636C55.9076 6.09636 58.6747 8.82812 58.6747 12.1984C58.6747 15.5688 55.9076 18.3005 52.4936 18.3005C52.3616 18.3005 52.2296 18.2948 52.1005 18.2862V18.3005H44.5213L57.0069 42.9537H64.6181L55.2564 24.4713C61.0228 23.3703 65.378 18.365 65.378 12.3502V12.3488Z" fill="white"/>
<path d="M85.3209 26.7235H83.9707V32.744H85.3209C87.3194 32.744 88.6349 31.6644 88.6349 29.7588V29.7244C88.6349 27.8188 87.3194 26.722 85.3209 26.722V26.7235Z" fill="white"/>
<path d="M100.857 10.2584C99.0293 10.2584 97.8154 11.7088 97.8154 13.4126V13.4469C97.8154 15.1335 99.0627 16.634 100.89 16.634C102.717 16.634 103.914 15.1836 103.914 13.4798V13.4455C103.914 11.7245 102.684 10.2584 100.857 10.2584Z" fill="white"/>
<path d="M71.491 0V42.9523H115V0H71.491ZM79.1761 13.4455C79.1761 10.005 81.8418 7.30618 85.4632 7.30618C87.8895 7.30618 89.495 8.31842 90.5363 9.7516L88.0418 11.6572C87.3587 10.8311 86.59 10.2742 85.4283 10.2742C83.7547 10.2742 82.5756 11.6902 82.5756 13.4111V13.4455C82.5756 15.2166 83.7547 16.5996 85.4283 16.5996C86.6756 16.5996 87.3935 16.0269 88.1273 15.1664L90.6219 16.9203C89.4776 18.4552 87.9736 19.5848 85.3428 19.5848C81.9259 19.5848 79.1761 17.0048 79.1761 13.4799V13.4455ZM92.017 29.7087C92.017 33.132 89.5051 35.6447 85.218 35.6447H80.6569V23.8385H85.2862C89.5399 23.8385 92.017 26.2496 92.017 29.6743V29.7087ZM105.616 35.6447H95.9126V23.8385H105.531V26.6046H99.1931V28.4086H104.933V30.9886H99.1931V32.8614H105.616V35.6447ZM107.313 13.4441C107.313 16.8344 104.546 19.5834 100.855 19.5834C97.1642 19.5834 94.4318 16.8516 94.4318 13.4784V13.4441C94.4318 10.0537 97.199 7.30475 100.89 7.30475C104.581 7.30475 107.313 10.0365 107.313 13.4097V13.4441Z" fill="white"/>
</g>
<defs>
<clipPath id="clip0_254_3244">
<rect width="115" height="42.9523" fill="white"/>
</clipPath>
</defs>
</svg>
