<svg width="115" height="44" viewBox="0 0 115 44" fill="none" xmlns="http://www.w3.org/2000/svg">
<g clip-path="url(#clip0_254_2312)">
<path d="M16.8597 22.4018L5.98248 43.8779H0L21.7545 0.925659H27.6731L27.7051 0.988656L16.8597 22.4018ZM31.5092 8.51246L21.7545 27.7708H41.2479L31.5092 8.51246ZM18.4913 34.2137L13.5966 43.8779H49.3928L44.5053 34.2137H18.4913ZM65.378 13.2744C65.378 6.45505 59.7784 0.925659 52.8692 0.925659H35.3162L35.2843 0.988656L38.3401 7.02202H52.1005V7.0349C52.2311 7.02631 52.3616 7.02202 52.4936 7.02202C55.9076 7.02202 58.6747 9.75378 58.6747 13.1241C58.6747 16.4944 55.9076 19.2262 52.4936 19.2262C52.3616 19.2262 52.2296 19.2205 52.1005 19.2119V19.2262H44.5213L57.0069 43.8794H64.6181L55.2564 25.397C61.0228 24.296 65.378 19.2906 65.378 13.2759V13.2744Z" fill="#1E1E1E"/>
<path d="M85.3209 27.6491H83.9707V33.6696H85.3209C87.3194 33.6696 88.6349 32.5901 88.6349 30.6844V30.6501C88.6349 28.7444 87.3194 27.6477 85.3209 27.6477V27.6491Z" fill="#1E1E1E"/>
<path d="M100.857 11.1841C99.0293 11.1841 97.8154 12.6344 97.8154 14.3382V14.3726C97.8154 16.0592 99.0627 17.5596 100.89 17.5596C102.717 17.5596 103.914 16.1093 103.914 14.4055V14.3711C103.914 12.6502 102.684 11.1841 100.857 11.1841Z" fill="#1E1E1E"/>
<path d="M71.491 0.925659V43.8779H115V0.925659H71.491ZM79.1761 14.3712C79.1761 10.9307 81.8418 8.23184 85.4632 8.23184C87.8895 8.23184 89.495 9.24408 90.5363 10.6773L88.0418 12.5829C87.3587 11.7568 86.59 11.1998 85.4283 11.1998C83.7547 11.1998 82.5756 12.6158 82.5756 14.3368V14.3712C82.5756 16.1422 83.7547 17.5253 85.4283 17.5253C86.6756 17.5253 87.3935 16.9526 88.1273 16.0921L90.6219 17.846C89.4776 19.3808 87.9736 20.5105 85.3428 20.5105C81.9259 20.5105 79.1761 17.9305 79.1761 14.4055V14.3712V14.3712ZM92.017 30.6343C92.017 34.0576 89.5051 36.5703 85.218 36.5703H80.6569V24.7642H85.2862C89.5399 24.7642 92.017 27.1752 92.017 30.6V30.6343V30.6343ZM105.616 36.5703H95.9126V24.7642H105.531V27.5303H99.1931V29.3343H104.933V31.9143H99.1931V33.787H105.616V36.5703V36.5703ZM107.313 14.3697C107.313 17.7601 104.546 20.509 100.855 20.509C97.1642 20.509 94.4318 17.7773 94.4318 14.4041V14.3697C94.4318 10.9794 97.199 8.23041 100.89 8.23041C104.581 8.23041 107.313 10.9622 107.313 14.3354V14.3697V14.3697Z" fill="#1E1E1E"/>
</g>
<defs>
<clipPath id="clip0_254_2312">
<rect width="115" height="42.9523" fill="white" transform="translate(0 0.925659)"/>
</clipPath>
</defs>
</svg>
