<svg width="115" height="44" fill="none" xmlns="http://www.w3.org/2000/svg"><g clip-path="url(#a)" fill="#1E1E1E"><path d="M16.86 22.402 5.982 43.878H0L21.755.926h5.918l.032.063L16.86 22.402Zm14.65-13.89-9.756 19.259h19.494L31.509 8.512ZM18.49 34.214l-4.894 9.664h35.796l-4.888-9.664H18.491Zm46.887-20.94c0-6.819-5.6-12.348-12.509-12.348H35.316l-.032.063 3.056 6.033H52.1v.013a5.74 5.74 0 0 1 .394-.013c3.414 0 6.18 2.732 6.18 6.102s-2.766 6.102-6.18 6.102a5.93 5.93 0 0 1-.394-.014v.014h-7.579L57.007 43.88h7.611l-9.362-18.482c5.767-1.101 10.122-6.106 10.122-12.121v-.002ZM85.32 27.65h-1.35v6.02h1.35c2 0 3.315-1.08 3.315-2.986v-.034c0-1.906-1.316-3.002-3.314-3.002v.001Zm15.537-16.466c-1.828 0-3.042 1.45-3.042 3.154v.035c0 1.686 1.248 3.187 3.075 3.187 1.827 0 3.024-1.45 3.024-3.154v-.035c0-1.72-1.23-3.187-3.057-3.187Z"/><path d="M71.491.926v42.952H115V.926H71.491Zm7.685 13.445c0-3.44 2.666-6.14 6.287-6.14 2.427 0 4.032 1.013 5.073 2.446l-2.494 1.906c-.683-.826-1.452-1.383-2.614-1.383-1.673 0-2.852 1.416-2.852 3.137v.034c0 1.771 1.179 3.154 2.852 3.154 1.248 0 1.966-.572 2.7-1.433l2.494 1.754c-1.144 1.535-2.648 2.665-5.28 2.665-3.416 0-6.166-2.58-6.166-6.105v-.035Zm12.841 16.263c0 3.424-2.512 5.936-6.799 5.936h-4.561V24.764h4.63c4.253 0 6.73 2.411 6.73 5.836v.034Zm13.599 5.936h-9.703V24.764h9.618v2.766h-6.338v1.804h5.74v2.58h-5.74v1.873h6.423v2.783Zm1.697-22.2c0 3.39-2.767 6.139-6.458 6.139-3.69 0-6.423-2.732-6.423-6.105v-.034c0-3.39 2.767-6.14 6.458-6.14 3.691 0 6.423 2.732 6.423 6.105v.035Z"/></g><defs><clipPath id="a"><path fill="#fff" transform="translate(0 .926)" d="M0 0h115v42.952H0z"/></clipPath></defs></svg>