<svg width="35" height="30" viewBox="0 0 35 30" fill="none" xmlns="http://www.w3.org/2000/svg">
<path d="M1.48373 10.7565C1.78972 10.4538 2.20307 10.2842 2.63369 10.2847H32.679C33.1096 10.2842 33.523 10.4538 33.829 10.7565C34.135 11.0591 34.3088 11.4703 34.3126 11.9005L34.2645 12.3404L30.1245 26.9224C29.9269 27.6034 29.5132 28.2017 28.9455 28.6273C28.3779 29.0529 27.6872 29.2827 26.9774 29.2821H8.33525C7.62688 29.2848 6.93714 29.0555 6.37165 28.6293C5.80616 28.2031 5.39608 27.6036 5.2042 26.9224L1.06416 12.3404C1.01997 12.198 0.998352 12.0495 1.0001 11.9005C1.0039 11.4703 1.17774 11.0591 1.48373 10.7565Z" stroke="#1E1E1E" stroke-linejoin="round"/>
<path d="M9.96875 10.2846L14.4575 4.30625C16.0576 2.17519 19.2549 2.17519 20.855 4.30625L25.3438 10.2846" stroke="#1E1E1E" stroke-linejoin="round"/>
</svg>
