<svg width="12" height="11" viewBox="0 0 12 11" fill="none" xmlns="http://www.w3.org/2000/svg">
<path d="M2.20215 1C2.20215 1.55228 1.75443 2 1.20215 2C0.649864 2 0.202148 1.55228 0.202148 1C0.202148 0.447715 0.649864 0 1.20215 0C1.75443 0 2.20215 0.447715 2.20215 1Z" fill="black"/>
<path d="M2.20215 7C2.20215 7.55228 1.75443 8 1.20215 8C0.649864 8 0.202148 7.55228 0.202148 7C0.202148 6.44772 0.649864 6 1.20215 6C1.75443 6 2.20215 6.44772 2.20215 7Z" fill="black"/>
<path d="M2.20215 10C2.20215 10.5523 1.75443 11 1.20215 11C0.649864 11 0.202148 10.5523 0.202148 10C0.202148 9.44771 0.649864 9 1.20215 9C1.75443 9 2.20215 9.44771 2.20215 10Z" fill="black"/>
<path d="M2.20215 4C2.20215 4.55228 1.75443 5 1.20215 5C0.649864 5 0.202148 4.55228 0.202148 4C0.202148 3.44772 0.649864 3 1.20215 3C1.75443 3 2.20215 3.44772 2.20215 4Z" fill="black"/>
<path d="M5.20215 1C5.20215 1.55228 4.75443 2 4.20215 2C3.64986 2 3.20215 1.55228 3.20215 1C3.20215 0.447715 3.64986 0 4.20215 0C4.75443 0 5.20215 0.447715 5.20215 1Z" fill="black"/>
<path d="M5.20215 7C5.20215 7.55228 4.75443 8 4.20215 8C3.64986 8 3.20215 7.55228 3.20215 7C3.20215 6.44772 3.64986 6 4.20215 6C4.75443 6 5.20215 6.44772 5.20215 7Z" fill="black"/>
<path d="M5.20215 10C5.20215 10.5523 4.75443 11 4.20215 11C3.64986 11 3.20215 10.5523 3.20215 10C3.20215 9.44771 3.64986 9 4.20215 9C4.75443 9 5.20215 9.44771 5.20215 10Z" fill="black"/>
<path d="M5.20215 4C5.20215 4.55228 4.75443 5 4.20215 5C3.64986 5 3.20215 4.55228 3.20215 4C3.20215 3.44772 3.64986 3 4.20215 3C4.75443 3 5.20215 3.44772 5.20215 4Z" fill="black"/>
<path d="M8.20215 1C8.20215 1.55228 7.75443 2 7.20215 2C6.64986 2 6.20215 1.55228 6.20215 1C6.20215 0.447715 6.64986 0 7.20215 0C7.75443 0 8.20215 0.447715 8.20215 1Z" fill="black"/>
<path d="M8.20215 7C8.20215 7.55228 7.75443 8 7.20215 8C6.64986 8 6.20215 7.55228 6.20215 7C6.20215 6.44772 6.64986 6 7.20215 6C7.75443 6 8.20215 6.44772 8.20215 7Z" fill="black"/>
<path d="M8.20215 10C8.20215 10.5523 7.75443 11 7.20215 11C6.64986 11 6.20215 10.5523 6.20215 10C6.20215 9.44771 6.64986 9 7.20215 9C7.75443 9 8.20215 9.44771 8.20215 10Z" fill="black"/>
<path d="M8.20215 4C8.20215 4.55228 7.75443 5 7.20215 5C6.64986 5 6.20215 4.55228 6.20215 4C6.20215 3.44772 6.64986 3 7.20215 3C7.75443 3 8.20215 3.44772 8.20215 4Z" fill="black"/>
<path d="M11.2021 1C11.2021 1.55228 10.7544 2 10.2021 2C9.64986 2 9.20215 1.55228 9.20215 1C9.20215 0.447715 9.64986 0 10.2021 0C10.7544 0 11.2021 0.447715 11.2021 1Z" fill="black"/>
<path d="M11.2021 7C11.2021 7.55228 10.7544 8 10.2021 8C9.64986 8 9.20215 7.55228 9.20215 7C9.20215 6.44772 9.64986 6 10.2021 6C10.7544 6 11.2021 6.44772 11.2021 7Z" fill="black"/>
<path d="M11.2021 4C11.2021 4.55228 10.7544 5 10.2021 5C9.64986 5 9.20215 4.55228 9.20215 4C9.20215 3.44772 9.64986 3 10.2021 3C10.7544 3 11.2021 3.44772 11.2021 4Z" fill="black"/>
</svg>
