<svg width="23" height="9" viewBox="0 0 23 9" fill="none" xmlns="http://www.w3.org/2000/svg">
<mask id="path-1-inside-1_254_3180" fill="white">
<path fill-rule="evenodd" clip-rule="evenodd" d="M22.202 4.49993C19.3316 7.28517 15.4165 8.99986 11.1009 8.99986C6.78539 8.99986 2.87032 7.28517 -0.000146877 4.49993C2.87032 1.71469 6.78539 0 11.1009 0C15.4165 0 19.3316 1.71469 22.202 4.49993Z"/>
</mask>
<path d="M22.202 4.49993L22.8984 5.21761L23.638 4.49993L22.8984 3.78225L22.202 4.49993ZM-0.000146877 4.49993L-0.69652 3.78225L-1.43616 4.49993L-0.69652 5.21761L-0.000146877 4.49993ZM21.5057 3.78225C18.8143 6.39375 15.1462 7.99986 11.1009 7.99986V9.99986C15.6868 9.99986 19.8489 8.1766 22.8984 5.21761L21.5057 3.78225ZM11.1009 7.99986C7.0557 7.99986 3.38763 6.39375 0.696227 3.78225L-0.69652 5.21761C2.353 8.1766 6.51507 9.99986 11.1009 9.99986V7.99986ZM0.696227 5.21761C3.38763 2.60611 7.0557 1 11.1009 1V-1C6.51507 -1 2.353 0.82326 -0.69652 3.78225L0.696227 5.21761ZM11.1009 1C15.1462 1 18.8143 2.60611 21.5057 5.21761L22.8984 3.78225C19.8489 0.82326 15.6868 -1 11.1009 -1V1Z" fill="black" mask="url(#path-1-inside-1_254_3180)"/>
</svg>
