<svg width="22" height="24" viewBox="0 0 22 24" fill="none" xmlns="http://www.w3.org/2000/svg">
<circle cx="10.9814" cy="6" r="5.5" stroke="#1E1E1E"/>
<path fill-rule="evenodd" clip-rule="evenodd" d="M20.8271 21.0883C19.0215 17.4766 15.2899 15 10.9817 15C6.6734 15 2.94181 17.4766 1.13618 21.0883C0.90723 21.5462 0.981514 21.9787 1.25423 22.3345C1.54378 22.7123 2.06669 23 2.69278 23H19.2705C19.8966 23 20.4195 22.7123 20.7091 22.3345C20.9818 21.9787 21.0561 21.5462 20.8271 21.0883ZM2.69278 24C0.837661 24 -0.587822 22.3004 0.24173 20.6411C2.21018 16.7037 6.28016 14 10.9817 14C15.6832 14 19.7531 16.7037 21.7216 20.6411C22.5511 22.3004 21.1257 24 19.2705 24H2.69278Z" fill="#1E1E1E"/>
</svg>
