<svg width="25" height="8" viewBox="0 0 25 8" fill="none" xmlns="http://www.w3.org/2000/svg">
<path fill-rule="evenodd" clip-rule="evenodd" d="M6.7503 7.75825H4.69056L3.146 1.69237C3.07269 1.41334 2.91703 1.16667 2.68806 1.0504C2.11664 0.75823 1.48696 0.525705 0.800049 0.408431V0.174895H4.11813C4.57607 0.174895 4.91953 0.525705 4.97677 0.933129L5.77817 5.30865L7.83691 0.174895H9.83941L6.7503 7.75825ZM10.9843 7.75825H9.03902L10.6408 0.174895H12.5861L10.9843 7.75825ZM15.1028 2.27571C15.16 1.86728 15.5035 1.63374 15.9042 1.63374C16.5338 1.57511 17.2197 1.69238 17.7922 1.98354L18.1356 0.35081C17.5632 0.117274 16.9335 0 16.3621 0C14.4741 0 13.1003 1.05041 13.1003 2.50824C13.1003 3.61728 14.0734 4.19961 14.7603 4.55042C15.5035 4.90021 15.7897 5.13375 15.7324 5.48355C15.7324 6.00825 15.16 6.24178 14.5886 6.24178C13.9017 6.24178 13.2147 6.06688 12.5861 5.77471L12.2426 7.40845C12.9295 7.69962 13.6727 7.81689 14.3596 7.81689C16.4766 7.87451 17.7922 6.82512 17.7922 5.25001C17.7922 3.26647 15.1028 3.15021 15.1028 2.27571ZM24.6 7.75825L23.0555 0.174895H21.3965C21.053 0.174895 20.7095 0.408431 20.5951 0.75823L17.7349 7.75825H19.7374L20.1371 6.65021H22.5976L22.8265 7.75825H24.6ZM21.6827 2.21708L22.2541 5.07512H20.6523L21.6827 2.21708Z" fill="currentColor"/>
</svg>
