<svg width="11" height="16" viewBox="0 0 11 16" fill="none" xmlns="http://www.w3.org/2000/svg">
<path d="M0 11.001C0 12.2488 0.531141 13.022 1.29321 13.4584C1.69349 13.688 1.93212 13.9636 2.07838 14.423L2.37089 15.2727C2.54024 15.801 2.94822 16 3.42547 16H6.82785C7.30511 16 7.70539 15.8163 7.88243 15.2727L8.17495 14.423C8.3212 13.9636 8.55213 13.688 8.96011 13.4584C9.72218 13.022 10.2533 12.2488 10.2533 11.001V7.54833H10.2764C10.7152 7.54833 11 7.24211 11 6.78277V5.78756C11 5.32823 10.7075 5.02201 10.2764 5.02201H10.2533V4.99904C10.2533 3.7512 9.72218 2.97799 8.96011 2.54163C8.55213 2.31196 8.3212 2.03636 8.17495 1.57703L7.88243 0.727273C7.71309 0.199043 7.30511 0 6.82785 0H3.42547C2.94822 0 2.54024 0.199043 2.37089 0.727273L2.07838 1.57703C1.92442 2.04402 1.68579 2.32727 1.29321 2.54163C0.523443 2.96268 0 3.7512 0 4.99904V11.001ZM1.36249 10.7636V5.23636C1.36249 4.19522 1.95521 3.58278 2.96361 3.58278H7.28971C8.29811 3.58278 8.89083 4.19522 8.89083 5.23636V10.7636C8.89083 11.7971 8.29811 12.4096 7.28971 12.4096H2.96361C1.95521 12.4096 1.36249 11.7971 1.36249 10.7636Z" fill="currentColor"/>
</svg>
