<svg width="12" height="15" viewBox="0 0 12 15" fill="none" xmlns="http://www.w3.org/2000/svg">
<path d="M3.53967 15H8.43553C10.6242 15 11.9752 13.6897 11.9752 11.5588V8.10721L12 7.88235C11.8437 7.18691 12 7.93731 12 7.41177C12 7.41177 12 6.53274 12 6C12 5.46726 12 6 12 5.52941L11.9752 3.40523C11.9752 1.31026 10.6242 0 8.43553 0H3.53967C1.35851 0 0 1.31026 0 3.43402V11.5588C0 13.6897 1.35851 15 3.53967 15ZM3.50193 13.625C2.2038 13.625 1.44908 12.8762 1.44908 11.602V3.41962C1.44908 2.15256 2.2038 1.41104 3.50193 1.41104H8.48082C9.7714 1.41104 10.5337 2.15256 10.5337 3.41962V11.602C10.5337 12.8762 9.7714 13.625 8.48082 13.625H3.50193Z" fill="currentColor"/>
<path d="M3 4C3 3.44772 3.44772 3 4 3H8C8.55228 3 9 3.44772 9 4V6C9 6.55228 8.55228 7 8 7H4C3.44772 7 3 6.55228 3 6V4Z" fill="currentColor"/>
</svg>
