<svg width="15" height="14" viewBox="0 0 15 14" fill="none" xmlns="http://www.w3.org/2000/svg">
<path d="M14.9748 5.29317C14.9275 5.15933 14.8415 5.04178 14.7272 4.95476C14.6128 4.86775 14.4751 4.815 14.3307 4.80293L10.069 4.19563L8.15912 0.412757C8.09779 0.289049 8.00203 0.184718 7.88281 0.111718C7.76359 0.0387177 7.62574 0 7.48503 0C7.34433 0 7.20648 0.0387177 7.08726 0.111718C6.96804 0.184718 6.87228 0.289049 6.81095 0.412757L4.90105 4.18831L0.639352 4.80293C0.500733 4.82218 0.370411 4.879 0.263177 4.96695C0.155942 5.0549 0.0760887 5.17045 0.0326779 5.30049C-0.00705933 5.42756 -0.0106253 5.56281 0.0223627 5.69172C0.0553507 5.82063 0.123647 5.93833 0.219923 6.03218L3.31321 8.95897L2.56423 13.115C2.53399 13.2529 2.54517 13.3963 2.59643 13.5281C2.64768 13.66 2.73682 13.7745 2.85314 13.858C2.96945 13.9414 3.10797 13.9903 3.25204 13.9987C3.39611 14.0071 3.5396 13.9746 3.66523 13.9052L7.48503 11.9516L11.3048 13.9052C11.41 13.9632 11.5287 13.9934 11.6494 13.993C11.808 13.9936 11.9628 13.9449 12.0913 13.854C12.2075 13.7727 12.2974 13.6606 12.3505 13.5309C12.4036 13.4013 12.4176 13.2595 12.3909 13.1223L11.6419 8.96628L14.7352 6.0395C14.8433 5.95 14.9232 5.83236 14.9657 5.70025C15.0081 5.56814 15.0113 5.42698 14.9748 5.29317ZM10.3686 8.21996C10.2819 8.3022 10.2169 8.40372 10.1791 8.51584C10.1412 8.62797 10.1318 8.74736 10.1514 8.86385L10.6907 11.937L7.8745 10.4736C7.76506 10.4207 7.64459 10.3932 7.52248 10.3932C7.40037 10.3932 7.27991 10.4207 7.17046 10.4736L4.3543 11.937L4.89356 8.86385C4.91321 8.74736 4.90372 8.62797 4.8659 8.51584C4.82808 8.40372 4.76305 8.3022 4.67636 8.21996L2.42942 6.02487L5.58262 5.57853C5.70396 5.56204 5.8193 5.51673 5.91854 5.44657C6.01778 5.37641 6.09789 5.28354 6.15185 5.1761L7.48503 2.38834L8.89312 5.18342C8.94708 5.29086 9.02719 5.38373 9.12643 5.45389C9.22567 5.52405 9.34101 5.56936 9.46234 5.58585L12.6156 6.03218L10.3686 8.21996Z" fill="currentColor"/>
</svg>
