<svg width="14" height="14" viewBox="0 0 14 14" fill="none" xmlns="http://www.w3.org/2000/svg">
<path d="M3.29102 5.91147C3.81006 5.91147 4.31744 5.75756 4.749 5.46919C5.18056 5.18083 5.51692 4.77097 5.71555 4.29145C5.91418 3.81192 5.96615 3.28426 5.86489 2.7752C5.76363 2.26614 5.51369 1.79853 5.14667 1.43152C4.77966 1.06451 4.31206 0.814566 3.80299 0.713307C3.29393 0.612048 2.76627 0.664018 2.28675 0.862644C1.80722 1.06127 1.39736 1.39763 1.109 1.8292C0.820639 2.26076 0.666727 2.76814 0.666727 3.28717C0.667487 3.98295 0.944218 4.65 1.4362 5.14199C1.92819 5.63398 2.59525 5.91071 3.29102 5.91147ZM3.29102 2.41241C3.46403 2.41241 3.63316 2.46371 3.77701 2.55983C3.92087 2.65596 4.03299 2.79257 4.0992 2.95242C4.1654 3.11226 4.18273 3.28815 4.14897 3.45783C4.11522 3.62752 4.03191 3.78339 3.90957 3.90573C3.78723 4.02806 3.63137 4.11138 3.46168 4.14513C3.29199 4.17888 3.1161 4.16156 2.95626 4.09535C2.79642 4.02914 2.6598 3.91702 2.56368 3.77317C2.46756 3.62931 2.41626 3.46019 2.41626 3.28717C2.41641 3.05522 2.50862 2.83281 2.67264 2.66879C2.83666 2.50478 3.05907 2.41257 3.29102 2.41241ZM10.7128 8.08471C10.1938 8.08471 9.68643 8.23863 9.25487 8.52699C8.82331 8.81535 8.48695 9.22521 8.28832 9.70473C8.08969 10.1843 8.03772 10.7119 8.13898 11.221C8.24024 11.73 8.49018 12.1976 8.8572 12.5647C9.22421 12.9317 9.69181 13.1816 10.2009 13.2829C10.7099 13.3841 11.2376 13.3322 11.7171 13.1335C12.1966 12.9349 12.6065 12.5985 12.8949 12.167C13.1832 11.7354 13.3371 11.228 13.3371 10.709C13.3364 10.0132 13.0597 9.34618 12.5677 8.85419C12.0757 8.36221 11.4086 8.08547 10.7128 8.08471ZM10.7128 11.5838C10.5398 11.5838 10.3707 11.5325 10.2269 11.4363C10.083 11.3402 9.97088 11.2036 9.90467 11.0438C9.83847 10.8839 9.82114 10.708 9.85489 10.5383C9.88865 10.3687 9.97196 10.2128 10.0943 10.0905C10.2166 9.96812 10.3725 9.8848 10.5422 9.85105C10.7119 9.8173 10.8878 9.83462 11.0476 9.90083C11.2075 9.96704 11.3441 10.0792 11.4402 10.223C11.5363 10.3669 11.5876 10.536 11.5876 10.709C11.5875 10.941 11.4952 11.1634 11.3312 11.3274C11.1672 11.4914 10.9448 11.5836 10.7128 11.5838ZM13.7437 0.256283C13.6625 0.175034 13.5661 0.110581 13.46 0.0666074C13.3539 0.0226334 13.2401 0 13.1253 0C13.0104 0 12.8966 0.0226334 12.7905 0.0666074C12.6844 0.110581 12.588 0.175034 12.5068 0.256283L0.260076 12.503C0.178018 12.584 0.112795 12.6805 0.0681619 12.7868C0.0235284 12.8932 0.000364692 13.0073 4.27183e-06 13.1226C-0.000356148 13.2379 0.0220937 13.3522 0.0660617 13.4588C0.11003 13.5654 0.174648 13.6623 0.256198 13.7438C0.337747 13.8254 0.434618 13.89 0.541236 13.934C0.647853 13.9779 0.762113 14.0004 0.877439 14C0.992764 13.9996 1.10688 13.9765 1.21322 13.9318C1.31955 13.8872 1.41601 13.822 1.49704 13.7399L13.7437 1.4932C13.825 1.412 13.8894 1.31558 13.9334 1.20946C13.9774 1.10335 14 0.989607 14 0.874741C14 0.759876 13.9774 0.646135 13.9334 0.540018C13.8894 0.433901 13.825 0.337487 13.7437 0.256283Z" fill="currentColor"/>
</svg>
