<svg width="13" height="16" viewBox="0 0 13 16" fill="none" xmlns="http://www.w3.org/2000/svg">
<path d="M3.77565 16H8.9979C11.3325 16 12.7735 14.6024 12.7735 12.3294V8.64769L12.8 8.40784C12.6332 7.66604 12.8 8.46646 12.8 7.90588C12.8 7.90588 12.8 6.96826 12.8 6.4C12.8 5.83174 12.8 6.4 12.8 5.89804L12.7735 3.63224C12.7735 1.39761 11.3325 0 8.9979 0H3.77565C1.44908 0 0 1.39761 0 3.66296V12.3294C0 14.6024 1.44908 16 3.77565 16ZM3.73539 14.5333C2.35072 14.5333 1.54568 13.7346 1.54568 12.3754V3.6476C1.54568 2.29607 2.35072 1.50511 3.73539 1.50511H9.04621C10.4228 1.50511 11.2359 2.29607 11.2359 3.6476V12.3754C11.2359 13.7346 10.4228 14.5333 9.04621 14.5333H3.73539Z" fill="currentColor"/>
<path d="M3.7002 9.53333C3.7002 9.25718 3.92405 9.03333 4.2002 9.03333H8.60019C8.87634 9.03333 9.1002 9.25718 9.1002 9.53333V11.8C9.1002 12.0761 8.87634 12.3 8.6002 12.3H4.2002C3.92405 12.3 3.7002 12.0761 3.7002 11.8V9.53333Z" stroke="currentColor"/>
<circle cx="6.39967" cy="4.26662" r="1.06667" fill="currentColor"/>
<rect x="9.6001" y="9.59998" width="2.13333" height="1.06667" fill="currentColor"/>
<rect x="6.3999" y="4.26672" width="3.2" height="1.06667" transform="rotate(-90 6.3999 4.26672)" fill="currentColor"/>
<rect x="5.33301" y="4.26672" width="3.2" height="1.06667" transform="rotate(-90 5.33301 4.26672)" fill="currentColor"/>
<rect x="1.06641" y="9.59998" width="2.13333" height="1.06667" fill="currentColor"/>
</svg>
