<svg width="17" height="13" viewBox="0 0 17 13" fill="none" xmlns="http://www.w3.org/2000/svg">
<path d="M2.34826 13H14.6589C16.203 13 17 12.161 17 10.5581V2.44195C17 0.838951 16.203 0 14.6589 0H2.34115C0.804102 0 0 0.831461 0 2.44195V10.5581C0 12.161 0.804102 13 2.34826 13ZM2.43365 11.5094C1.77899 11.5094 1.42319 11.1498 1.42319 10.4232V2.57678C1.42319 1.85019 1.77899 1.49064 2.43365 1.49064H14.5663C15.221 1.49064 15.5839 1.85019 15.5839 2.57678V10.4232C15.5839 11.1498 15.221 11.5094 14.5663 11.5094H2.43365ZM5.74257 9.91011H11.2645C11.4638 9.91011 11.6132 9.7603 11.6132 9.53558C11.6132 9.31835 11.4638 9.16854 11.2645 9.16854H5.74257C5.53621 9.16854 5.38677 9.31835 5.38677 9.53558C5.38677 9.7603 5.53621 9.91011 5.74257 9.91011Z" fill="currentColor"/>
</svg>
