<svg width="14" height="14" viewBox="0 0 14 14" fill="none" xmlns="http://www.w3.org/2000/svg">
<path d="M4.76063 4.66353C4.42267 4.65825 4.09704 4.53584 3.8394 4.31723C3.30198 3.82472 2.97639 3.14332 2.93099 2.41606C2.78922 0.962635 3.58269 0.105039 4.43974 0.00942702C4.64625 -0.013452 4.85525 0.00541672 5.05431 0.0649101C5.25337 0.124404 5.43842 0.223306 5.59844 0.35573C5.83716 0.570761 6.03099 0.830834 6.16876 1.12099C6.30654 1.41115 6.38554 1.72566 6.40124 2.04644C6.53192 3.40133 5.80964 4.66353 4.76063 4.66353ZM1.66203 8.16154C1.35164 8.15417 1.05534 8.03057 0.831814 7.81524C0.337807 7.30125 0.0475286 6.6254 0.015012 5.91349C-0.113343 4.46006 0.601943 3.60247 1.37499 3.50686C1.56341 3.48562 1.75421 3.5056 1.93414 3.56539C2.11407 3.62519 2.27883 3.72338 2.41699 3.85316C2.86076 4.30687 3.11897 4.90983 3.14103 5.54387C3.2583 6.89934 2.54068 8.16154 1.66203 8.16154ZM9.23671 4.66353C8.1807 4.66353 7.46658 3.40075 7.59902 2.04469C7.61471 1.72391 7.69372 1.4094 7.83149 1.11924C7.96927 0.829085 8.16309 0.569012 8.40182 0.353981C8.56169 0.222351 8.74632 0.124047 8.94482 0.0648703C9.14333 0.00569341 9.35168 -0.0131584 9.55759 0.00942702C10.4147 0.105039 11.2081 0.962635 11.0663 2.41606C11.0211 3.14352 10.6955 3.82516 10.1579 4.31781C9.90021 4.53621 9.57459 4.65841 9.23671 4.66353ZM12.2805 8.16154C11.1801 8.16154 10.6311 6.89876 10.7548 5.5427C10.7793 4.90458 11.0466 4.29987 11.5022 3.85199C11.6469 3.72127 11.8177 3.62279 12.0034 3.56309C12.1891 3.50338 12.3853 3.48382 12.5792 3.50569C13.3773 3.6013 14.1165 4.4589 13.9847 5.91232C13.9478 6.62909 13.6461 7.30672 13.1381 7.81407C12.9044 8.03088 12.5993 8.15451 12.2805 8.16154ZM9.16553 13.9916C8.63905 14.0009 8.12034 13.8638 7.66728 13.5957C7.46591 13.4729 7.23457 13.4079 6.99867 13.4079C6.76277 13.4079 6.53143 13.4729 6.33006 13.5957C4.52259 14.6766 2.27289 13.5182 2.33123 10.9792C2.33123 8.32712 4.96075 5.82954 6.99867 5.82954C9.03659 5.82954 11.6661 8.32712 11.6661 10.9792C11.6661 12.7527 10.6381 13.9916 9.16553 13.9916ZM6.99867 11.6596C7.52514 11.6502 8.04386 11.7873 8.49692 12.0554C9.65094 12.716 9.92574 11.554 9.91582 10.9792C9.91582 9.25934 8.06985 7.57854 6.99867 7.57854C5.92749 7.57854 4.08152 9.25934 4.08152 10.9792C4.0681 11.5453 4.35106 12.72 5.50042 12.0554C5.95348 11.7873 6.47219 11.6502 6.99867 11.6596Z" fill="currentColor"/>
</svg>
