<svg width="15" height="15" viewBox="0 0 15 15" fill="none" xmlns="http://www.w3.org/2000/svg">
<path d="M14.7504 3.3101L10.1801 0.105815C9.94977 -0.0560507 9.63295 -0.0296249 9.43212 0.168568C8.51123 1.07759 6.48878 1.07759 5.56786 0.168568C5.36615 -0.0305039 5.04963 -0.0556113 4.81988 0.105815L0.249597 3.3101C0.0485913 3.45105 -0.0432838 3.70239 0.0195287 3.93975L0.766453 6.76315C0.839344 7.03869 1.09959 7.22188 1.38386 7.19701L2.959 7.05955V14.4141C2.959 14.7377 3.22133 15 3.54494 15H11.4551C11.7787 15 12.041 14.7377 12.041 14.4141V7.05952L13.6162 7.19698C13.9 7.22176 14.1607 7.03869 14.2336 6.76312L14.9805 3.93972C15.0433 3.70239 14.9514 3.45105 14.7504 3.3101ZM7.49999 2.02303C8.13242 2.02303 8.73445 1.89829 9.2571 1.66822C9.2421 2.62464 8.45991 3.39817 7.49999 3.39817C6.54008 3.39817 5.75791 2.62461 5.74288 1.66822C6.26554 1.89832 6.86756 2.02303 7.49999 2.02303ZM13.2268 5.9867L11.506 5.83652C11.3424 5.82219 11.1803 5.8773 11.0592 5.98828C10.9381 6.09925 10.8691 6.25599 10.8691 6.42023V13.8281H4.13088V6.42023C4.13088 6.25596 4.06191 6.09925 3.94086 5.98828C3.81975 5.8773 3.65762 5.82202 3.49399 5.83652L1.77324 5.9867L1.25694 4.03508L4.57124 1.7114C4.60912 3.29417 5.90835 4.57007 7.50002 4.57007C9.09169 4.57007 10.3909 3.29417 10.4288 1.7114L13.7431 4.03508L13.2268 5.9867Z" fill="currentColor"/>
</svg>
