<svg width="12" height="19" viewBox="0 0 12 19" fill="none" xmlns="http://www.w3.org/2000/svg">
<path d="M10.8461 1.47201H8.11491C7.67639 0.600052 6.77371 0 5.73295 0C4.69218 0 3.7895 0.600052 3.35099 1.47201H0.619805C0.277545 1.47201 0 1.74949 0 2.09175C0 2.43407 0.277545 2.71155 0.619805 2.71155H3.06911C3.0715 2.85051 3.0846 2.98684 3.10755 3.11991C1.91968 3.36077 1.02264 4.41307 1.02264 5.67105V12.9534C1.02264 14.3732 2.1653 15.5303 3.57924 15.5553V16.5791C3.57924 17.7068 4.49678 18.6243 5.62452 18.6243H5.84143C6.96917 18.6243 7.88665 17.7068 7.88665 16.5791V15.5553C9.30059 15.5303 10.4433 14.3731 10.4433 12.9534V5.67099C10.4433 4.41301 9.54628 3.36071 8.3584 3.11984C8.38135 2.98678 8.39446 2.85045 8.39684 2.71149H10.8461C11.1884 2.71149 11.466 2.43401 11.466 2.09169C11.4659 1.74943 11.1883 1.47201 10.8461 1.47201ZM5.73295 1.23955C6.51899 1.23955 7.15842 1.87898 7.15842 2.66502C7.15842 3.45107 6.51899 4.0905 5.73295 4.0905C4.9469 4.0905 4.30747 3.45107 4.30747 2.66502C4.30747 1.87898 4.9469 1.23955 5.73295 1.23955ZM6.6471 16.579C6.6471 17.0233 6.28565 17.3848 5.84137 17.3848H5.62446C5.18018 17.3848 4.81873 17.0233 4.81873 16.579V13.2942C4.81873 12.8499 5.18018 12.4885 5.62446 12.4885H5.84137C6.28565 12.4885 6.6471 12.8499 6.6471 13.2942V16.579ZM7.84012 4.30741C8.59199 4.30741 9.20364 4.91906 9.20364 5.67093V12.9533C9.20364 13.6895 8.61701 14.2909 7.88659 14.3156V13.2942C7.88659 12.1665 6.96911 11.2489 5.84137 11.2489H5.62446C4.49672 11.2489 3.57918 12.1665 3.57918 13.2942V14.3156C2.84888 14.291 2.26219 13.6896 2.26219 12.9533V5.67099C2.26219 4.91912 2.87384 4.30747 3.62565 4.30747H3.63643C4.12474 4.92941 4.88275 5.33011 5.73295 5.33011C6.58314 5.33011 7.34109 4.92941 7.82946 4.30747H7.84012V4.30741Z" fill="currentColor"/>
</svg>
