<svg width="13" height="17" viewBox="0 0 13 17" fill="none" xmlns="http://www.w3.org/2000/svg">
<path d="M6.78455 6.73483C7.66897 6.73483 8.39447 6.01074 8.38065 5.09498C8.37374 4.17922 7.66897 3.46933 6.78455 3.45513C5.90013 3.44803 5.18844 4.17922 5.18844 5.09498C5.18844 6.01074 5.90013 6.73483 6.78455 6.73483ZM6.78455 5.84746C6.37688 5.84746 6.05214 5.50672 6.05214 5.09498C6.05214 4.65485 6.37688 4.33539 6.78455 4.33539C7.1853 4.33539 7.51696 4.67614 7.51696 5.09498C7.51696 5.50672 7.19221 5.84746 6.78455 5.84746ZM6.78455 13.5001C8.32538 13.5001 9.5691 12.2294 9.5691 10.6392C9.5691 9.04197 8.32538 7.77837 6.78455 7.77127C5.24372 7.76417 4 9.04197 4 10.6392C4 12.2294 5.24372 13.5001 6.78455 13.5001ZM6.78455 11.7751C6.17651 11.7751 5.67211 11.2639 5.67211 10.6392C5.67211 9.97903 6.16269 9.4892 6.78455 9.4892C7.40641 9.4892 7.89698 9.97903 7.89698 10.6392C7.89698 11.2639 7.40641 11.7751 6.78455 11.7751Z" fill="currentColor"/>
<path d="M3.83464 17H9.13849C11.5096 17 12.9731 15.515 12.9731 13.0999V9.18817L13 8.93333C12.8306 8.14516 13 8.99562 13 8.4C13 8.4 13 7.40377 13 6.8C13 6.19623 13 6.8 13 6.26667L12.9731 3.85926C12.9731 1.48496 11.5096 0 9.13849 0H3.83464C1.47172 0 0 1.48496 0 3.89189V13.0999C0 15.515 1.47172 17 3.83464 17ZM3.79376 15.4416C2.38745 15.4416 1.56983 14.5931 1.56983 13.1489V3.87557C1.56983 2.43957 2.38745 1.59918 3.79376 1.59918H9.18755C10.5857 1.59918 11.4115 2.43957 11.4115 3.87557V13.1489C11.4115 14.5931 10.5857 15.4416 9.18755 15.4416H3.79376Z" fill="currentColor"/>
</svg>
