<svg width="26" height="11" viewBox="0 0 26 11" fill="none" xmlns="http://www.w3.org/2000/svg">
<path fill-rule="evenodd" clip-rule="evenodd" d="M12.0579 8.52831V5.59366H13.5725C14.1931 5.59366 14.717 5.38569 15.1441 4.97554L15.2466 4.87155C16.0266 4.02235 15.9754 2.69945 15.1441 1.91379C14.7284 1.49786 14.159 1.27256 13.5725 1.28411H11.1411V8.52831H12.0579ZM12.058 4.70397V2.1737H13.5956C13.9259 2.1737 14.2391 2.30079 14.4726 2.53186C14.9681 3.01712 14.9795 3.82588 14.5011 4.32847C14.2676 4.57688 13.9373 4.71552 13.5956 4.70397H12.058ZM19.5228 3.95878C19.1299 3.59484 18.5947 3.40998 17.9171 3.40998C17.0459 3.40998 16.3911 3.73348 15.9583 4.37472L16.7669 4.88886C17.063 4.44982 17.4673 4.2303 17.9797 4.2303C18.3043 4.2303 18.6175 4.35161 18.8623 4.57113C19.1015 4.7791 19.2381 5.0795 19.2381 5.39722V5.61097C18.8851 5.41455 18.441 5.31057 17.8943 5.31057C17.2566 5.31057 16.7441 5.46077 16.3626 5.76694C15.9811 6.07312 15.7875 6.4775 15.7875 6.99164C15.7761 7.45957 15.9754 7.90439 16.3285 8.20478C16.6872 8.52829 17.1427 8.69004 17.6779 8.69004C18.31 8.69004 18.8111 8.40697 19.1926 7.84084H19.2324V8.52829H20.1093V5.47232C20.1093 4.83109 19.9157 4.32273 19.5228 3.95878ZM17.0347 7.61556C16.8467 7.47691 16.7328 7.25162 16.7328 7.00899C16.7328 6.73748 16.8581 6.51218 17.103 6.33309C17.3536 6.15401 17.6668 6.06158 18.037 6.06158C18.5495 6.05581 18.9482 6.17134 19.2329 6.40242C19.2329 6.79524 19.0792 7.13608 18.7773 7.42492C18.504 7.70221 18.1338 7.85819 17.7465 7.85819C17.4903 7.86397 17.2397 7.77731 17.0347 7.61556ZM22.0795 10.7062L25.1429 3.57173H24.1464L22.7286 7.13028H22.7115L21.2595 3.57173H20.2631L22.2731 8.21055L21.1343 10.7062H22.0795Z" fill="currentColor"/>
<path d="M8.89299 4.95817C8.89299 4.6751 8.87021 4.39204 8.82466 4.11475H4.95837V5.71494H7.17337C7.08227 6.22908 6.78618 6.69123 6.35343 6.98007V8.01991H7.67445C8.44885 7.2978 8.89299 6.22908 8.89299 4.95817Z" fill="#4285F4"/>
<path d="M4.95854 9.02523C6.06319 9.02523 6.99702 8.65551 7.67462 8.02005L6.35359 6.98021C5.98347 7.2344 5.51086 7.37882 4.95854 7.37882C3.88805 7.37882 2.98269 6.64515 2.65813 5.66309H1.29724V6.73758C1.99192 8.14137 3.40975 9.02523 4.95854 9.02523Z" fill="#34A853"/>
<path d="M2.65822 5.66265C2.48737 5.14851 2.48737 4.58815 2.65822 4.06823V2.99951H1.29712C0.710532 4.17222 0.710532 5.55867 1.29712 6.73137L2.65822 5.66265Z" fill="#FBBC04"/>
<path d="M4.95854 2.35271C5.54503 2.34116 6.10874 2.56646 6.53011 2.97662L7.70309 1.78658C6.95716 1.0818 5.97778 0.694752 4.95854 0.706306C3.40975 0.706306 1.99192 1.59594 1.29724 2.99972L2.65813 4.07422C2.98269 3.08638 3.88805 2.35271 4.95854 2.35271Z" fill="#EA4335"/>
</svg>
