<svg width="12" height="16" viewBox="0 0 12 16" fill="none" xmlns="http://www.w3.org/2000/svg">
<path d="M3.53967 16H8.43553C10.6242 16 11.9752 14.6024 11.9752 12.3294V8.64769L12 8.40784C11.8437 7.66604 12 8.46646 12 7.90588C12 7.90588 12 6.96826 12 6.4C12 5.83174 12 6.4 12 5.89804L11.9752 3.63224C11.9752 1.39761 10.6242 0 8.43553 0H3.53967C1.35851 0 0 1.39761 0 3.66296V12.3294C0 14.6024 1.35851 16 3.53967 16ZM3.50193 14.5333C2.2038 14.5333 1.44908 13.7346 1.44908 12.3754V3.6476C1.44908 2.29607 2.2038 1.50511 3.50193 1.50511H8.48082C9.7714 1.50511 10.5337 2.29607 10.5337 3.6476V12.3754C10.5337 13.7346 9.7714 14.5333 8.48082 14.5333H3.50193Z" fill="currentColor"/>
<rect x="3" y="12" width="6" height="1" rx="0.5" fill="currentColor"/>
</svg>
