<svg width="16" height="15" viewBox="0 0 16 15" fill="none" xmlns="http://www.w3.org/2000/svg">
<path d="M1.95914 12.449H14.0409C15.3281 12.449 16 11.7784 16 10.43V2.01895C16 0.670554 15.3281 0 14.0409 0H1.95914C0.671906 0 0 0.670554 0 2.01895V10.43C0 11.7784 0.671906 12.449 1.95914 12.449ZM2.05108 11.035C1.58428 11.035 1.3721 10.8382 1.3721 10.3426V2.10641C1.3721 1.61079 1.58428 1.41399 2.05108 1.41399H13.9489C14.4157 1.41399 14.6279 1.61079 14.6279 2.10641V10.3426C14.6279 10.8382 14.4157 11.035 13.9489 11.035H2.05108ZM4.38232 15H11.6177C11.9713 15 12.2613 14.7012 12.2613 14.3367C12.2613 13.9723 11.9713 13.6662 11.6177 13.6662H4.38232C4.02868 13.6662 3.7387 13.9723 3.7387 14.3367C3.7387 14.7012 4.02868 15 4.38232 15Z" fill="currentColor"/>
</svg>
