<svg width="18" height="18" viewBox="0 0 18 18" fill="none" xmlns="http://www.w3.org/2000/svg">
<path d="M4.23131 7.60046C4.89864 7.60046 5.55099 7.40257 6.10585 7.03182C6.66072 6.66107 7.09319 6.13411 7.34856 5.51758C7.60394 4.90104 7.67076 4.22262 7.54057 3.56812C7.41038 2.91361 7.08903 2.3124 6.61715 1.84053C6.14528 1.36865 5.54407 1.0473 4.88956 0.917109C4.23505 0.786919 3.55664 0.853737 2.9401 1.10911C2.32357 1.36449 1.79661 1.79696 1.42586 2.35182C1.05511 2.90669 0.857221 3.55904 0.857221 4.22637C0.858197 5.12093 1.21399 5.97858 1.84655 6.61113C2.4791 7.24368 3.33675 7.59948 4.23131 7.60046ZM4.23131 3.10167C4.45375 3.10167 4.6712 3.16763 4.85616 3.29122C5.04111 3.4148 5.18527 3.59045 5.27039 3.79596C5.35552 4.00148 5.37779 4.22762 5.3344 4.44579C5.291 4.66396 5.18388 4.86436 5.02659 5.02165C4.8693 5.17894 4.6689 5.28606 4.45073 5.32945C4.23256 5.37285 4.00642 5.35058 3.80091 5.26545C3.5954 5.18033 3.41974 5.03617 3.29616 4.85122C3.17258 4.66626 3.10661 4.44881 3.10661 4.22637C3.10681 3.92814 3.22537 3.64219 3.43625 3.43131C3.64713 3.22043 3.93308 3.10187 4.23131 3.10167ZM13.7737 10.3946C13.1063 10.3946 12.454 10.5925 11.8991 10.9633C11.3443 11.334 10.9118 11.861 10.6564 12.4775C10.401 13.094 10.3342 13.7725 10.4644 14.427C10.5946 15.0815 10.9159 15.6827 11.3878 16.1546C11.8597 16.6264 12.4609 16.9478 13.1154 17.078C13.7699 17.2082 14.4483 17.1414 15.0649 16.886C15.6814 16.6306 16.2084 16.1981 16.5791 15.6433C16.9499 15.0884 17.1478 14.4361 17.1478 13.7687C17.1468 12.8742 16.791 12.0165 16.1584 11.384C15.5259 10.7514 14.6682 10.3956 13.7737 10.3946ZM13.7737 14.8934C13.5512 14.8934 13.3338 14.8275 13.1488 14.7039C12.9639 14.5803 12.8197 14.4046 12.7346 14.1991C12.6495 13.9936 12.6272 13.7675 12.6706 13.5493C12.714 13.3311 12.8211 13.1307 12.9784 12.9734C13.1357 12.8162 13.3361 12.709 13.5542 12.6656C13.7724 12.6222 13.9986 12.6445 14.2041 12.7296C14.4096 12.8148 14.5852 12.9589 14.7088 13.1439C14.8324 13.3288 14.8984 13.5463 14.8984 13.7687C14.8982 14.0669 14.7796 14.3529 14.5687 14.5638C14.3578 14.7747 14.0719 14.8932 13.7737 14.8934ZM17.6705 0.329507C17.5661 0.225044 17.4422 0.142176 17.3057 0.0856381C17.1693 0.0291001 17.023 0 16.8753 0C16.7276 0 16.5814 0.0291001 16.445 0.0856381C16.3085 0.142176 16.1845 0.225044 16.0801 0.329507L0.334383 16.0753C0.22888 16.1794 0.145023 16.3035 0.0876367 16.4402C0.0302507 16.5769 0.000468889 16.7236 5.49235e-06 16.8719C-0.000457905 17.0202 0.0284062 17.1671 0.0849365 17.3042C0.141467 17.4412 0.224547 17.5658 0.329397 17.6706C0.434246 17.7755 0.558794 17.8586 0.695874 17.9151C0.832954 17.9716 0.97986 18.0005 1.12814 18C1.27641 17.9995 1.42313 17.9697 1.55985 17.9123C1.69657 17.855 1.82059 17.7711 1.92477 17.6656L17.6705 1.91983C17.775 1.81542 17.8578 1.69146 17.9144 1.55503C17.9709 1.41859 18 1.27235 18 1.12467C18 0.976983 17.9709 0.830745 17.9144 0.694309C17.8578 0.557873 17.775 0.433912 17.6705 0.329507Z" fill="currentColor"/>
</svg>
