<svg width="13" height="17" viewBox="0 0 13 17" fill="none" xmlns="http://www.w3.org/2000/svg">
<path d="M3.53967 17H9.43553C11.6242 17 12.9752 15.6897 12.9752 13.5588V8.10721L13 7.88235C12.8437 7.18691 13 7.93731 13 7.41177C13 7.41177 13 6.53274 13 6C13 5.46726 13 6 13 5.52941L12.9752 3.40523C12.9752 1.31026 11.6242 0 9.43553 0H3.53967C1.35851 0 0 1.31026 0 3.43402V13.5588C0 15.6897 1.35851 17 3.53967 17ZM3.50193 15.625C2.2038 15.625 1.44908 14.8762 1.44908 13.602V3.41962C1.44908 2.15256 2.2038 1.41104 3.50193 1.41104H9.48082C10.7714 1.41104 11.5337 2.15256 11.5337 3.41962V13.602C11.5337 14.8762 10.7714 15.625 9.48082 15.625H3.50193Z" fill="currentColor"/>
<circle cx="6.5" cy="10.5" r="2.5" stroke="currentColor" stroke-width="2"/>
<circle cx="9.5" cy="3.5" r="1" stroke="currentColor"/>
<rect x="3" y="3" width="4" height="2" rx="1" fill="currentColor"/>
</svg>
