<svg width="17" height="16" viewBox="0 0 17 16" fill="none" xmlns="http://www.w3.org/2000/svg">
<path d="M6.18182 10.4C6.02899 10.4 5.87959 10.4469 5.75251 10.5348C5.62544 10.6227 5.5264 10.7477 5.46791 10.8939C5.40943 11.04 5.39412 11.2009 5.42394 11.3561C5.45375 11.5113 5.52735 11.6538 5.63542 11.7657C5.74349 11.8776 5.88117 11.9538 6.03107 11.9846C6.18096 12.0155 6.33633 11.9997 6.47753 11.9391C6.61873 11.8786 6.73941 11.776 6.82432 11.6445C6.90923 11.5129 6.95455 11.3582 6.95455 11.2C6.95455 10.9878 6.87313 10.7843 6.72822 10.6343C6.5833 10.4843 6.38676 10.4 6.18182 10.4ZM0.772727 9.6C0.567787 9.6 0.371241 9.68429 0.226327 9.83432C0.0814121 9.98434 0 10.1878 0 10.4V12C0 12.2122 0.0814121 12.4157 0.226327 12.5657C0.371241 12.7157 0.567787 12.8 0.772727 12.8C0.977667 12.8 1.17421 12.7157 1.31913 12.5657C1.46404 12.4157 1.54545 12.2122 1.54545 12V10.4C1.54545 10.1878 1.46404 9.98434 1.31913 9.83432C1.17421 9.68429 0.977667 9.6 0.772727 9.6ZM16.2273 9.6C16.0223 9.6 15.8258 9.68429 15.6809 9.83432C15.536 9.98434 15.4545 10.1878 15.4545 10.4V12C15.4545 12.2122 15.536 12.4157 15.6809 12.5657C15.8258 12.7157 16.0223 12.8 16.2273 12.8C16.4322 12.8 16.6288 12.7157 16.7737 12.5657C16.9186 12.4157 17 12.2122 17 12V10.4C17 10.1878 16.9186 9.98434 16.7737 9.83432C16.6288 9.68429 16.4322 9.6 16.2273 9.6ZM12.3636 4H9.27273V2.976C9.5063 2.83639 9.70052 2.63593 9.83608 2.39454C9.97165 2.15314 10.0438 1.87922 10.0455 1.6C10.0455 1.17565 9.88263 0.768687 9.5928 0.468629C9.30297 0.168571 8.90988 0 8.5 0C8.09012 0 7.69703 0.168571 7.4072 0.468629C7.11737 0.768687 6.95455 1.17565 6.95455 1.6C6.95617 1.87922 7.02835 2.15314 7.16392 2.39454C7.29948 2.63593 7.4937 2.83639 7.72727 2.976V4H4.63636C4.02154 4 3.43191 4.25286 2.99716 4.70294C2.56242 5.15303 2.31818 5.76348 2.31818 6.4V13.6C2.31818 14.2365 2.56242 14.847 2.99716 15.2971C3.43191 15.7471 4.02154 16 4.63636 16H12.3636C12.9785 16 13.5681 15.7471 14.0028 15.2971C14.4376 14.847 14.6818 14.2365 14.6818 13.6V6.4C14.6818 5.76348 14.4376 5.15303 14.0028 4.70294C13.5681 4.25286 12.9785 4 12.3636 4ZM9.82909 5.6L9.44273 7.2H7.55727L7.17091 5.6H9.82909ZM13.1364 13.6C13.1364 13.8122 13.055 14.0157 12.91 14.1657C12.7651 14.3157 12.5686 14.4 12.3636 14.4H4.63636C4.43142 14.4 4.23488 14.3157 4.08996 14.1657C3.94505 14.0157 3.86364 13.8122 3.86364 13.6V6.4C3.86364 6.18783 3.94505 5.98434 4.08996 5.83431C4.23488 5.68429 4.43142 5.6 4.63636 5.6H5.57909L6.18182 8.192C6.22413 8.3695 6.32388 8.52664 6.46448 8.63727C6.60507 8.74789 6.77803 8.80532 6.95455 8.8H10.0455C10.222 8.80532 10.3949 8.74789 10.5355 8.63727C10.6761 8.52664 10.7759 8.3695 10.8182 8.192L11.4209 5.6H12.3636C12.5686 5.6 12.7651 5.68429 12.91 5.83431C13.055 5.98434 13.1364 6.18783 13.1364 6.4V13.6ZM10.8182 10.4C10.6654 10.4 10.516 10.4469 10.3889 10.5348C10.2618 10.6227 10.1628 10.7477 10.1043 10.8939C10.0458 11.04 10.0305 11.2009 10.0603 11.3561C10.0901 11.5113 10.1637 11.6538 10.2718 11.7657C10.3798 11.8776 10.5175 11.9538 10.6674 11.9846C10.8173 12.0155 10.9727 11.9997 11.1139 11.9391C11.2551 11.8786 11.3758 11.776 11.4607 11.6445C11.5456 11.5129 11.5909 11.3582 11.5909 11.2C11.5909 10.9878 11.5095 10.7843 11.3646 10.6343C11.2197 10.4843 11.0231 10.4 10.8182 10.4Z" fill="currentColor"/>
</svg>
