<svg width="13" height="16" viewBox="0 0 13 16" fill="none" xmlns="http://www.w3.org/2000/svg">
<path d="M6.49214 1.97333C8.62213 1.97333 10.257 1.54667 10.257 0.990476C10.257 0.419048 8.62213 0 6.49214 0C4.37001 0 2.74305 0.419048 2.74305 0.990476C2.74305 1.54667 4.37787 1.97333 6.49214 1.97333ZM6.5 16C10.9643 16 13 14.461 13 10.979V5.06667C13 3.78667 12.7563 2.77333 12.1983 2.01905C12.0097 1.75238 11.656 1.69905 11.3416 1.88952C10.3827 2.5219 8.48851 3.01714 6.5 3.01714C4.51149 3.01714 2.61729 2.5219 1.6584 1.88952C1.34401 1.69905 0.990327 1.75238 0.801693 2.01905C0.243652 2.77333 0 3.78667 0 5.06667V10.979C0 14.461 2.03567 16 6.5 16ZM6.5 14.4914C2.9474 14.4914 1.55623 13.3714 1.55623 10.8648V5.12762C1.55623 4.57143 1.65054 4.06095 1.82346 3.6419C2.90024 4.25143 4.59008 4.54857 6.5 4.54857C8.40992 4.54857 10.0998 4.25143 11.1687 3.6419C11.3495 4.06095 11.4438 4.57143 11.4438 5.12762V10.8648C11.4438 13.3714 10.0447 14.4914 6.5 14.4914Z" fill="currentColor"/>
</svg>
