<svg width="12" height="15" viewBox="0 0 12 15" fill="none" xmlns="http://www.w3.org/2000/svg">
<path d="M11.9386 4.94949C11.8825 4.82106 11.7914 4.71083 11.6756 4.63132C11.5598 4.5518 11.424 4.50616 11.2835 4.49958H7.83486L8.79113 0.945259C8.82159 0.834037 8.82588 0.717319 8.80368 0.604175C8.78148 0.491031 8.73339 0.384508 8.66313 0.292884C8.59298 0.20214 8.5029 0.128601 8.39979 0.0779084C8.29667 0.0272154 8.18327 0.000715034 8.06828 0.000439776H2.79747C2.62747 -0.00535904 2.46052 0.0463308 2.32379 0.147091C2.18706 0.24785 2.08862 0.391744 2.04449 0.555334L0.0265265 8.0539C-0.00392965 8.16512 -0.00822442 8.28184 0.013976 8.39498C0.0361765 8.50813 0.0842741 8.61465 0.154532 8.70627C0.225451 8.79803 0.316742 8.87218 0.421251 8.92291C0.52576 8.97365 0.640647 8.9996 0.75691 8.99872H3.67092L2.30803 14.0528C2.26338 14.2157 2.2753 14.3889 2.34185 14.5443C2.4084 14.6997 2.52568 14.8282 2.6747 14.9089C2.82372 14.9896 2.99574 15.0178 3.16289 14.989C3.33003 14.9602 3.48251 14.876 3.59562 14.7501L11.803 5.75184C11.9008 5.64527 11.9655 5.51288 11.9896 5.37056C12.0136 5.22824 11.9959 5.08204 11.9386 4.94949ZM4.56695 11.4582L5.37264 8.45882C5.40309 8.3476 5.40739 8.23088 5.38519 8.11774C5.36299 8.00459 5.31489 7.89807 5.24463 7.80645C5.17448 7.7157 5.0844 7.64216 4.98129 7.59147C4.87818 7.54078 4.76477 7.51428 4.64978 7.514H1.75836L3.36973 1.50015H7.08188L6.12561 5.05447C6.09491 5.16774 6.09132 5.28661 6.11515 5.40151C6.13897 5.51641 6.18953 5.62414 6.26277 5.71604C6.33601 5.80794 6.42988 5.88144 6.53683 5.93063C6.64379 5.97983 6.76084 6.00335 6.87858 5.99929H9.5667L4.56695 11.4582Z" fill="currentColor"/>
</svg>
