<svg width="14" height="16" viewBox="0 0 14 16" fill="none" xmlns="http://www.w3.org/2000/svg">
<path d="M13.1753 5.25144L8.10157 0.438118C7.48623 -0.145608 6.51476 -0.14647 5.8985 0.438118L0.82469 5.25144C0.348069 5.70357 0 6.51714 0 7.18213V14.4021C0 15.2845 0.699747 16 1.55568 16H6.23465V11.2323H7.78194V16H12.4418C13.3015 16 14 15.2863 14 14.4021V7.18213C14 6.51699 13.653 5.70447 13.1753 5.25144ZM12.4419 14.4H9.33755V9.63234H4.67911V14.4C2.59675 14.4006 1.55557 14.4013 1.55557 14.4021V7.18213C1.55557 6.96489 1.72131 6.57744 1.87932 6.42755L6.95313 1.61427C6.97322 1.59522 7.02692 1.59526 7.04694 1.61427L12.1207 6.42755C12.2795 6.57815 12.4445 6.9644 12.4445 7.18213C12.4442 11.9941 12.4434 14.4 12.4419 14.4Z" fill="currentColor"/>
</svg>
