<svg width="17" height="11" viewBox="0 0 17 11" fill="none" xmlns="http://www.w3.org/2000/svg">
<path d="M2.82823 11C2.37443 11 1.94575 10.8988 1.55699 10.6942C0.633868 10.2094 0.0862022 9.21868 0.0137714 7.90377C-0.0993094 5.84891 0.483094 3.84611 1.79498 1.78098C2.82971 0.15366 4.0699 -0.317154 5.93906 0.202795C6.76758 0.434536 7.64414 0.655276 8.4867 0.631809C9.24205 0.618608 10.0602 0.482204 11.0602 0.202795C12.9323 -0.319354 14.171 0.152927 15.205 1.78098C16.5162 3.84611 17.0993 5.84891 16.9862 7.90377C16.9138 9.21868 16.3654 10.2102 15.443 10.6942C14.4778 11.2009 13.2642 11.0733 12.0292 10.3341C11.1674 9.81856 10.3751 9.29348 9.64707 8.80213C8.97302 8.34745 8.02847 8.34745 7.35368 8.80213C6.62567 9.29348 5.83337 9.8193 4.97159 10.3341C4.23324 10.7763 3.50228 11 2.82823 11ZM4.61609 1.46197C3.96125 1.46197 3.53628 1.79198 3.04552 2.56347C1.90289 4.36239 1.39439 6.08285 1.48973 7.82383C1.5326 8.60486 1.80237 9.16441 2.24878 9.39835C2.72993 9.65136 3.44537 9.53475 4.20811 9.07861C5.03959 8.58139 5.8112 8.06951 6.52146 7.58989C7.68701 6.80227 9.31153 6.80227 10.4778 7.58989C11.1881 8.06878 11.9604 8.58139 12.7912 9.07861C13.5539 9.53549 14.2693 9.65209 14.7505 9.39835C15.1969 9.16441 15.4667 8.60486 15.5095 7.82383C15.6049 6.08285 15.0964 4.36239 13.9538 2.56347C13.2657 1.4803 12.7084 1.26616 11.4601 1.61524C10.3352 1.92985 9.398 2.08312 8.51257 2.09925C7.47932 2.11099 6.47564 1.87705 5.53847 1.61524C5.18075 1.51477 4.87994 1.46197 4.61609 1.46197ZM8.50001 1.3659H8.5074H8.50001Z" fill="currentColor"/>
<path d="M6.09817 5.68011H3.51135C3.20537 5.68011 2.95703 5.4337 2.95703 5.1301C2.95703 4.82649 3.20537 4.58008 3.51135 4.58008H6.09817C6.40415 4.58008 6.65248 4.82649 6.65248 5.1301C6.65248 5.4337 6.40415 5.68011 6.09817 5.68011Z" fill="currentColor"/>
<path d="M4.80481 6.96341C4.49882 6.96341 4.25049 6.71701 4.25049 6.4134V3.84665C4.25049 3.54304 4.49882 3.29663 4.80481 3.29663C5.11079 3.29663 5.35912 3.54304 5.35912 3.84665V6.4134C5.35912 6.71701 5.11079 6.96341 4.80481 6.96341Z" fill="currentColor"/>
<path d="M12.5651 6.597C11.7499 6.597 11.0869 5.93918 11.0869 5.13029C11.0869 4.32139 11.7499 3.66357 12.5651 3.66357C13.3803 3.66357 14.0433 4.32139 14.0433 5.13029C14.0433 5.93918 13.3803 6.597 12.5651 6.597Z" fill="currentColor"/>
</svg>
