<svg width="10" height="13" viewBox="0 0 10 13" fill="none" xmlns="http://www.w3.org/2000/svg">
<path d="M9.9488 4.28956C9.90205 4.17825 9.82613 4.08272 9.72965 4.01381C9.63316 3.94489 9.51997 3.90534 9.4029 3.89964H6.52905L7.32594 0.819225C7.35132 0.722832 7.3549 0.621676 7.3364 0.523618C7.3179 0.42556 7.27782 0.33324 7.21927 0.253833C7.16082 0.175188 7.08575 0.111455 6.99982 0.0675206C6.91389 0.0235867 6.81939 0.000619696 6.72357 0.000381139H2.33122C2.18956 -0.0046445 2.05043 0.0401534 1.93649 0.127479C1.82255 0.214804 1.74052 0.339511 1.70375 0.481289L0.0221054 6.98005C-0.00327471 7.07644 -0.00685369 7.1776 0.0116467 7.27565C0.0301471 7.37371 0.0702284 7.46603 0.128776 7.54544C0.187876 7.62496 0.263951 7.68922 0.351042 7.73319C0.438133 7.77716 0.533873 7.79965 0.630759 7.79889H3.0591L1.92336 12.1791C1.88615 12.3203 1.89608 12.4704 1.95154 12.6051C2.007 12.7398 2.10474 12.8511 2.22892 12.921C2.3531 12.991 2.49645 13.0154 2.63574 12.9905C2.77503 12.9655 2.9021 12.8925 2.99635 12.7834L9.83585 4.98493C9.91729 4.89257 9.97127 4.77783 9.9913 4.65449C10.0113 4.53114 9.99658 4.40443 9.9488 4.28956V4.28956ZM3.8058 9.93048L4.4772 7.33098C4.50258 7.23459 4.50616 7.13343 4.48766 7.03537C4.46915 6.93732 4.42907 6.845 4.37052 6.76559C4.31207 6.68694 4.237 6.62321 4.15107 6.57928C4.06515 6.53534 3.97064 6.51238 3.87482 6.51214H1.4653L2.80811 1.30013H5.90157L5.10467 4.38054C5.07909 4.47871 5.0761 4.58173 5.09595 4.68131C5.11581 4.78089 5.15794 4.87425 5.21897 4.9539C5.28001 5.03355 5.35823 5.09725 5.44736 5.13988C5.53649 5.18252 5.63403 5.2029 5.73215 5.19939H7.97225L3.8058 9.93048Z" fill="currentColor"/>
</svg>
