<svg width="13" height="14" viewBox="0 0 13 14" fill="none" xmlns="http://www.w3.org/2000/svg">
<path d="M10.8333 3.50271H10.5806C10.7454 3.17573 10.8318 2.81688 10.8333 2.45298C10.8355 1.96544 10.6871 1.48841 10.4071 1.08332C10.1271 0.67822 9.72841 0.36359 9.26232 0.179926C8.79622 -0.00373865 8.28407 -0.0480309 7.79178 0.0527501C7.29949 0.153531 6.84959 0.394773 6.5 0.745423C6.15041 0.394773 5.70051 0.153531 5.20822 0.0527501C4.71593 -0.0480309 4.20378 -0.00373865 3.73768 0.179926C3.27159 0.36359 2.8729 0.67822 2.59291 1.08332C2.31293 1.48841 2.16448 1.96544 2.16667 2.45298C2.16821 2.81688 2.25462 3.17573 2.41944 3.50271H2.16667C1.59203 3.50271 1.04093 3.7239 0.634602 4.11763C0.228273 4.51135 0 5.04536 0 5.60217V7.00181C0 7.18741 0.076091 7.36541 0.211534 7.49665C0.346977 7.62789 0.530677 7.70163 0.722222 7.70163H1.44444V11.9005C1.44444 12.4574 1.67272 12.9914 2.07905 13.3851C2.48538 13.7788 3.03648 14 3.61111 14H9.38889C9.96352 14 10.5146 13.7788 10.921 13.3851C11.3273 12.9914 11.5556 12.4574 11.5556 11.9005V7.70163H12.2778C12.4693 7.70163 12.653 7.62789 12.7885 7.49665C12.9239 7.36541 13 7.18741 13 7.00181V5.60217C13 5.04536 12.7717 4.51135 12.3654 4.11763C11.9591 3.7239 11.408 3.50271 10.8333 3.50271ZM5.77778 12.6004H3.61111C3.41957 12.6004 3.23587 12.5266 3.10042 12.3954C2.96498 12.2641 2.88889 12.0861 2.88889 11.9005V7.70163H5.77778V12.6004ZM5.77778 6.30199H1.44444V5.60217C1.44444 5.41656 1.52054 5.23856 1.65598 5.10732C1.79142 4.97608 1.97512 4.90235 2.16667 4.90235H5.77778V6.30199ZM5.77778 3.50271H4.69444C4.48018 3.50271 4.27073 3.44114 4.09258 3.3258C3.91442 3.21045 3.77557 3.04651 3.69357 2.8547C3.61158 2.66288 3.59013 2.45182 3.63193 2.24819C3.67373 2.04456 3.77691 1.85752 3.92841 1.71071C4.07992 1.5639 4.27295 1.46393 4.4831 1.42342C4.69324 1.38292 4.91106 1.40371 5.10902 1.48316C5.30697 1.56261 5.47617 1.69716 5.5952 1.86978C5.71424 2.04241 5.77778 2.24536 5.77778 2.45298V3.50271ZM7.22222 2.45298C7.22222 2.24536 7.28576 2.04241 7.4048 1.86978C7.52383 1.69716 7.69303 1.56261 7.89098 1.48316C8.08893 1.40371 8.30676 1.38292 8.5169 1.42342C8.72705 1.46393 8.92008 1.5639 9.07159 1.71071C9.22309 1.85752 9.32627 2.04456 9.36807 2.24819C9.40987 2.45182 9.38842 2.66288 9.30643 2.8547C9.22443 3.04651 9.08558 3.21045 8.90742 3.3258C8.72927 3.44114 8.51982 3.50271 8.30556 3.50271H7.22222V2.45298ZM10.1111 11.9005C10.1111 12.0861 10.035 12.2641 9.89958 12.3954C9.76413 12.5266 9.58043 12.6004 9.38889 12.6004H7.22222V7.70163H10.1111V11.9005ZM11.5556 6.30199H7.22222V4.90235H10.8333C11.0249 4.90235 11.2086 4.97608 11.344 5.10732C11.4795 5.23856 11.5556 5.41656 11.5556 5.60217V6.30199Z" fill="currentColor"/>
</svg>
