<svg width="13" height="15" viewBox="0 0 13 15" fill="none" xmlns="http://www.w3.org/2000/svg">
<path d="M4.01677 15H8.98323C11.6844 15 13 13.7463 13 11.1721V3.82789C13 1.25371 11.6844 0 8.98323 0H4.01677C1.31557 0 0 1.25371 0 3.82789V11.1721C0 13.7463 1.31557 15 4.01677 15ZM8.71078 3.78338H4.28922C3.90778 3.78338 3.58084 3.98368 3.43293 4.28783H1.51018V3.82789C1.51018 2.16617 2.27305 1.43917 4.01677 1.43917H8.98323C10.7269 1.43917 11.4898 2.16617 11.4898 3.82789V4.28783H9.57485C9.42695 3.98368 9.10778 3.78338 8.71078 3.78338ZM4.01677 13.5608C2.27305 13.5608 1.51018 12.8338 1.51018 11.1721V5.07418H3.43293C3.58084 5.38576 3.90778 5.57864 4.28922 5.57864H8.71078C9.10778 5.57864 9.42695 5.38576 9.57485 5.07418H11.4898V11.1721C11.4898 12.8338 10.7269 13.5608 8.98323 13.5608H4.01677ZM6.5 8.15282C6.92814 8.1454 7.27844 7.80415 7.27844 7.42582C7.27844 7.0178 6.92814 6.68398 6.5 6.68398C6.07186 6.68398 5.72156 7.0178 5.72156 7.42582C5.72156 7.82641 6.07186 8.16024 6.5 8.15282Z" fill="currentColor"/>
</svg>
